<svg width="48" height="48" viewBox="0 0 48 48" fill="none" xmlns="http://www.w3.org/2000/svg">
<path d="M30.1703 9C38.3595 9 39 9.6405 39 17.8298V30.1695C39 38.3588 38.3595 39 30.1703 39H17.8298C9.6405 39 9 38.3588 9 30.1703V17.8298C9 9.6405 9.6405 9 17.8298 9H30.1703ZM18.117 31.2638C18.1665 31.1768 18.624 30.381 19.3005 29.2013C18.6607 28.4513 17.8605 28.263 16.9395 28.497C16.4198 29.4022 16.0792 29.9963 16.0365 30.0705C15.7072 30.645 15.9052 31.3778 16.4797 31.707C17.0542 32.0363 17.787 31.8383 18.117 31.2638ZM26.5897 27.9135C27.093 26.5387 26.0648 25.6343 25.2135 25.515C23.9445 25.515 22.6417 25.515 21.4147 25.515C23.7555 21.4358 26.5013 16.65 26.628 16.4295C26.958 15.855 26.7592 15.1223 26.1847 14.793C25.6102 14.4638 24.8775 14.6618 24.5482 15.2363C24.5167 15.2918 24.3135 15.6458 24 16.1918C23.6835 15.6398 23.484 15.2918 23.4517 15.2363C23.1217 14.6618 22.389 14.4638 21.8152 14.793C21.2415 15.1223 21.042 15.855 21.372 16.4295C21.423 16.5188 21.9075 17.3625 22.6177 18.6008C21.4425 20.649 19.932 23.2815 18.6503 25.515C16.8458 25.515 15.5685 25.515 15.4493 25.515C14.787 25.515 14.25 26.052 14.25 26.7142C14.25 27.3765 14.787 27.9135 15.4493 27.9135C15.7148 27.9135 21.759 27.9135 26.5897 27.9135ZM32.5508 27.9135C33.213 27.9135 33.75 27.3765 33.75 26.7142C33.75 26.052 33.213 25.515 32.5508 25.515C32.4323 25.515 31.1505 25.515 29.3497 25.515C28.2097 23.5283 26.886 21.2213 25.7798 19.2938C24.8333 20.4615 24.6802 21.7425 25.2105 23.121C27.4132 26.9602 29.7652 31.0597 29.8822 31.263C30.2115 31.8375 30.945 32.0355 31.5188 31.7063C32.0933 31.377 32.292 30.6435 31.962 30.0697C31.911 29.9812 31.4295 29.1412 30.7245 27.9135C31.7745 27.9135 32.4653 27.9135 32.5508 27.9135Z" fill="white"/>
</svg>
