<svg width="129" height="128" viewBox="0 0 129 128" fill="none" xmlns="http://www.w3.org/2000/svg">
<path d="M64.5 18C39.1 18 18.5 38.6 18.5 64C18.5 89.4 39.1 110 64.5 110C89.9 110 110.5 89.4 110.5 64C110.5 38.6 89.9 18 64.5 18ZM60.4219 41.3398C61.2819 41.3398 61.9219 41.9398 61.9219 42.8398V46.2188H65.4414V42.8398C65.4414 41.9398 66.1014 41.3398 66.9414 41.3398C67.8014 41.3398 68.4609 41.9398 68.4609 42.8398V46.3203C73.4809 46.9603 76.7383 50.2605 76.7383 54.9805C76.7383 58.6205 74.0602 62.0406 70.6602 62.6406V62.8398C75.4402 63.4398 78.5 66.8005 78.5 71.4805C78.5 77.1605 74.8009 80.7012 68.4609 81.2812V84.7188C68.4609 85.6188 67.8014 86.2188 66.9414 86.2188C66.1014 86.2188 65.4414 85.6188 65.4414 84.7188V81.3398H61.9219V84.7188C61.9219 85.6188 61.2819 86.2188 60.4219 86.2188C59.5619 86.2188 58.9219 85.6188 58.9219 84.7188V81.3398H57.3594C55.5994 81.3398 54.4414 80.1584 54.4414 78.3984V49.1602C54.4414 47.4002 55.5994 46.2188 57.3594 46.2188H58.9219V42.8398C58.9219 41.9398 59.5619 41.3398 60.4219 41.3398ZM58.9609 50.1797V61.2617H64.1797C69.3397 61.2617 72.1992 59.3005 72.1992 55.4805C72.1992 51.9805 69.7591 50.1797 65.5391 50.1797H58.9609ZM58.9609 65.2188V77.3789H65.8398C71.0598 77.3789 73.8984 75.3413 73.8984 71.2812C73.8984 67.2012 71.0019 65.2188 65.4219 65.2188H58.9609Z" fill="white"/>
</svg>
