<svg width="146" height="42" viewBox="0 0 146 42" fill="none" xmlns="http://www.w3.org/2000/svg">
<path d="M144.577 37.1563C144.577 39.3946 142.726 41.2076 140.437 41.2076H4.95304C2.66491 41.2076 0.807617 39.3946 0.807617 37.1563V4.84901C0.807617 2.61184 2.66491 0.79248 4.95304 0.79248H140.436C142.726 0.79248 144.576 2.61184 144.576 4.84901L144.577 37.1563Z" fill="black"/>
<path d="M140 0.841319C142.493 0.841319 144.522 2.81926 144.522 5.25001V36.75C144.522 39.1808 142.493 41.1587 140 41.1587H5.38462C2.89154 41.1587 0.862884 39.1808 0.862884 36.75V5.25001C0.862884 2.81926 2.89154 0.841319 5.38462 0.841319H140ZM140 6.67572e-06H5.38462C2.42442 6.67572e-06 0 2.36382 0 5.25001V36.75C0 39.6362 2.42442 42 5.38462 42H140C142.96 42 145.385 39.6362 145.385 36.75V5.25001C145.385 2.36382 142.96 6.67572e-06 140 6.67572e-06Z" fill="#A6A6A6"/>
<path d="M32.4455 20.7732C32.4143 17.389 35.2875 15.7426 35.4189 15.666C33.7917 13.3528 31.2695 13.0368 30.3832 13.0116C28.2649 12.7942 26.2101 14.2474 25.1311 14.2474C24.0304 14.2474 22.3688 13.0326 20.5778 13.0683C18.2732 13.1029 16.1172 14.4039 14.9348 16.4241C12.4944 20.5432 14.3144 26.5965 16.6524 29.926C17.822 31.5567 19.1886 33.3774 20.9774 33.3133C22.7274 33.243 23.3811 32.2255 25.4929 32.2255C27.5854 32.2255 28.1992 33.3133 30.0235 33.2724C31.9017 33.243 33.0841 31.6344 34.2127 29.989C35.5643 28.12 36.1071 26.2794 36.1286 26.1849C36.0844 26.1702 32.4811 24.8293 32.4455 20.7732Z" fill="white"/>
<path d="M28.9994 10.8213C29.9406 9.67363 30.5846 8.11228 30.4058 6.52783C29.0435 6.58663 27.3398 7.44658 26.3588 8.56903C25.4908 9.55813 24.7154 11.1793 24.9157 12.7039C26.446 12.8152 28.0172 11.9511 28.9994 10.8213Z" fill="white"/>
<path d="M52.823 10.5094C52.823 11.7453 52.4429 12.6756 51.6837 13.3003C50.9804 13.8768 49.981 14.1655 48.6866 14.1655C48.0447 14.1655 47.4955 14.1382 47.0356 14.0836V7.33109C47.6355 7.23659 48.2816 7.18829 48.9795 7.18829C50.2126 7.18829 51.142 7.44974 51.7687 7.97264C52.4709 8.56379 52.823 9.40904 52.823 10.5094ZM51.633 10.5399C51.633 9.73874 51.4155 9.12449 50.9804 8.69609C50.5453 8.26874 49.91 8.05454 49.0732 8.05454C48.7178 8.05454 48.4152 8.07764 48.1643 8.12594V13.2594C48.3032 13.2804 48.5573 13.2898 48.9267 13.2898C49.7904 13.2898 50.457 13.0557 50.9266 12.5874C51.3961 12.1191 51.633 11.4366 51.633 10.5399Z" fill="white"/>
<path d="M59.1328 11.5888C59.1328 12.3501 58.9099 12.9738 58.464 13.4631C57.9966 13.966 57.3774 14.217 56.6042 14.217C55.859 14.217 55.2656 13.9765 54.823 13.4935C54.3814 13.0116 54.1606 12.4036 54.1606 11.6707C54.1606 10.9042 54.3879 10.2753 54.8445 9.78704C55.3011 9.29879 55.915 9.05414 56.6882 9.05414C57.4334 9.05414 58.0322 9.29459 58.4856 9.77654C58.9163 10.2448 59.1328 10.8496 59.1328 11.5888ZM57.9622 11.6245C57.9622 11.1678 57.861 10.7761 57.6596 10.4496C57.4226 10.0548 57.0856 9.85739 56.6473 9.85739C56.1939 9.85739 55.8493 10.0548 55.6123 10.4496C55.4099 10.7761 55.3097 11.1741 55.3097 11.6445C55.3097 12.1012 55.411 12.4929 55.6123 12.8194C55.8568 13.2142 56.1971 13.4116 56.6365 13.4116C57.0673 13.4116 57.4054 13.2111 57.6488 12.8089C57.8577 12.4761 57.9622 12.0813 57.9622 11.6245Z" fill="white"/>
<path d="M67.5932 9.15497L66.0047 14.1047H64.9709L64.3129 11.9553C64.1459 11.4188 64.0102 10.8854 63.9047 10.3562H63.8842C63.7862 10.9001 63.6506 11.4324 63.4761 11.9553L62.7772 14.1047H61.7315L60.2378 9.15497H61.3976L61.9716 11.508C62.1106 12.0645 62.2247 12.5948 62.3163 13.0967H62.3367C62.4207 12.683 62.5596 12.1559 62.7556 11.5185L63.4761 9.15602H64.3958L65.0861 11.4681C65.253 12.032 65.3887 12.5748 65.4932 13.0977H65.5244C65.6009 12.5885 65.7161 12.0456 65.869 11.4681L66.485 9.15602H67.5932V9.15497Z" fill="white"/>
<path d="M73.444 14.1047H72.3154V11.2697C72.3154 10.3961 71.9751 9.95928 71.2923 9.95928C70.9574 9.95928 70.6871 10.079 70.4771 10.3194C70.2692 10.5599 70.1637 10.8434 70.1637 11.1678V14.1036H69.0351V10.5693C69.0351 10.1346 69.0211 9.66318 68.9941 9.15288H69.986L70.0388 9.92673H70.07C70.2014 9.68628 70.3974 9.48783 70.6548 9.32928C70.9606 9.14448 71.3031 9.05103 71.6778 9.05103C72.1517 9.05103 72.5458 9.20013 72.8592 9.49938C73.249 9.86583 73.444 10.4129 73.444 11.1395V14.1047Z" fill="white"/>
<path d="M76.5562 14.1046H75.4287V6.88379H76.5562V14.1046Z" fill="white"/>
<path d="M83.2007 11.5888C83.2007 12.3501 82.9777 12.9738 82.5319 13.4631C82.0645 13.966 81.4442 14.217 80.6721 14.217C79.9258 14.217 79.3324 13.9765 78.8908 13.4935C78.4493 13.0116 78.2285 12.4036 78.2285 11.6707C78.2285 10.9042 78.4557 10.2753 78.9124 9.78704C79.369 9.29879 79.9828 9.05414 80.755 9.05414C81.5013 9.05414 82.099 9.29459 82.5534 9.77654C82.9842 10.2448 83.2007 10.8496 83.2007 11.5888ZM82.029 11.6245C82.029 11.1678 81.9277 10.7761 81.7264 10.4496C81.4905 10.0548 81.1524 9.85739 80.7151 9.85739C80.2607 9.85739 79.9161 10.0548 79.6802 10.4496C79.4777 10.7761 79.3776 11.1741 79.3776 11.6445C79.3776 12.1012 79.4788 12.4929 79.6802 12.8194C79.9247 13.2142 80.265 13.4116 80.7044 13.4116C81.1351 13.4116 81.4722 13.2111 81.7156 12.8089C81.9256 12.4761 82.029 12.0813 82.029 11.6245Z" fill="white"/>
<path d="M88.6628 14.1046H87.6494L87.5654 13.5345H87.5342C87.1874 13.9891 86.6931 14.217 86.0513 14.217C85.572 14.217 85.1844 14.0668 84.8925 13.7686C84.6276 13.4977 84.4951 13.1607 84.4951 12.7606C84.4951 12.1558 84.7536 11.6949 85.2737 11.3757C85.7928 11.0565 86.523 10.9 87.4631 10.9074V10.815C87.4631 10.1629 87.112 9.83744 86.4088 9.83744C85.908 9.83744 85.4665 9.96029 85.0853 10.2039L84.8559 9.48149C85.3276 9.19694 85.9102 9.05414 86.5973 9.05414C87.924 9.05414 88.5896 9.73664 88.5896 11.1016V12.9244C88.5896 13.419 88.6143 13.8127 88.6628 14.1046ZM87.4911 12.4036V11.6403C86.2462 11.6193 85.6237 11.9521 85.6237 12.6378C85.6237 12.8961 85.6948 13.0893 85.8402 13.2184C85.9856 13.3476 86.1708 13.4116 86.3916 13.4116C86.6393 13.4116 86.8708 13.335 87.0819 13.1827C87.294 13.0294 87.4243 12.8352 87.4728 12.5968C87.4847 12.5433 87.4911 12.4782 87.4911 12.4036Z" fill="white"/>
<path d="M95.0761 14.1046H94.0746L94.0218 13.3098H93.9906C93.6707 13.9146 93.1258 14.217 92.3601 14.217C91.7484 14.217 91.2391 13.9828 90.8352 13.5145C90.4314 13.0462 90.23 12.4383 90.23 11.6917C90.23 10.8906 90.4486 10.2417 90.888 9.74609C91.3134 9.28409 91.8346 9.05309 92.4549 9.05309C93.1366 9.05309 93.6137 9.27674 93.885 9.72509H93.9066V6.88379H95.0363V12.7711C95.0363 13.2531 95.0492 13.6972 95.0761 14.1046ZM93.9066 12.0172V11.1919C93.9066 11.0491 93.8958 10.9336 93.8754 10.8454C93.8118 10.5808 93.675 10.3582 93.4672 10.1787C93.2572 9.99914 93.0041 9.90884 92.7123 9.90884C92.2912 9.90884 91.9617 10.0716 91.7194 10.3981C91.4792 10.7247 91.3575 11.1415 91.3575 11.6508C91.3575 12.1401 91.4727 12.537 91.7043 12.8425C91.9487 13.168 92.2783 13.3308 92.6907 13.3308C93.0612 13.3308 93.3574 13.1953 93.5824 12.9234C93.8 12.6724 93.9066 12.37 93.9066 12.0172Z" fill="white"/>
<path d="M104.729 11.5888C104.729 12.3501 104.506 12.9738 104.06 13.4631C103.592 13.966 102.974 14.217 102.2 14.217C101.456 14.217 100.862 13.9765 100.419 13.4935C99.9771 13.0116 99.7563 12.4036 99.7563 11.6707C99.7563 10.9042 99.9836 10.2753 100.44 9.78704C100.897 9.29879 101.511 9.05414 102.285 9.05414C103.029 9.05414 103.629 9.29459 104.081 9.77654C104.512 10.2448 104.729 10.8496 104.729 11.5888ZM103.559 11.6245C103.559 11.1678 103.458 10.7761 103.256 10.4496C103.018 10.0548 102.682 9.85739 102.243 9.85739C101.791 9.85739 101.446 10.0548 101.208 10.4496C101.006 10.7761 100.905 11.1741 100.905 11.6445C100.905 12.1012 101.007 12.4929 101.208 12.8194C101.452 13.2142 101.793 13.4116 102.232 13.4116C102.663 13.4116 103.002 13.2111 103.246 12.8089C103.453 12.4761 103.559 12.0813 103.559 11.6245Z" fill="white"/>
<path d="M110.797 14.1047H109.669V11.2697C109.669 10.3961 109.329 9.95928 108.645 9.95928C108.31 9.95928 108.04 10.079 107.831 10.3194C107.622 10.5599 107.518 10.8434 107.518 11.1678V14.1036H106.388V10.5693C106.388 10.1346 106.375 9.66318 106.348 9.15288H107.339L107.392 9.92673H107.423C107.555 9.68628 107.751 9.48783 108.008 9.32928C108.315 9.14448 108.656 9.05103 109.032 9.05103C109.505 9.05103 109.899 9.20013 110.212 9.49938C110.603 9.86583 110.797 10.4129 110.797 11.1395V14.1047Z" fill="white"/>
<path d="M118.393 9.97919H117.15V12.3837C117.15 12.9948 117.371 13.3003 117.808 13.3003C118.01 13.3003 118.178 13.2835 118.311 13.2489L118.34 14.0836C118.117 14.1655 117.824 14.2065 117.463 14.2065C117.017 14.2065 116.671 14.0742 116.42 13.8096C116.168 13.545 116.043 13.0998 116.043 12.475V9.97919H115.301V9.15494H116.043V8.24774L117.149 7.92224V9.15389H118.392V9.97919H118.393Z" fill="white"/>
<path d="M124.367 14.1046H123.238V11.2906C123.238 10.4034 122.897 9.95924 122.216 9.95924C121.692 9.95924 121.335 10.2165 121.139 10.731C121.105 10.8391 121.086 10.9714 121.086 11.1268V14.1036H119.958V6.88379H121.086V9.86684H121.108C121.463 9.32399 121.972 9.05309 122.633 9.05309C123.1 9.05309 123.487 9.20219 123.793 9.50144C124.176 9.87419 124.367 10.4286 124.367 11.1615V14.1046Z" fill="white"/>
<path d="M130.53 11.3956C130.53 11.593 130.515 11.7589 130.488 11.8944H127.104C127.119 12.3837 127.28 12.7564 127.594 13.0147C127.88 13.2457 128.25 13.3612 128.702 13.3612C129.203 13.3612 129.659 13.2835 130.071 13.1271L130.247 13.8915C129.766 14.0952 129.199 14.197 128.544 14.197C127.757 14.197 127.138 13.9713 126.69 13.5198C126.24 13.0683 126.017 12.4624 126.017 11.7022C126.017 10.9557 126.225 10.3341 126.644 9.83848C127.081 9.30928 127.672 9.04468 128.419 9.04468C129.149 9.04468 129.703 9.30928 130.078 9.83848C130.381 10.2585 130.53 10.7782 130.53 11.3956ZM129.454 11.1111C129.462 10.7845 129.388 10.5031 129.235 10.2658C129.039 9.96028 128.741 9.80698 128.337 9.80698C127.968 9.80698 127.668 9.95608 127.439 10.2553C127.251 10.4937 127.14 10.7782 127.104 11.1111H129.454Z" fill="white"/>
<path d="M57.7716 33.0792H55.3259L53.9862 28.9747H49.3296L48.0534 33.0792H45.6724L50.2859 19.1058H53.1354L57.7716 33.0792ZM53.5824 27.2527L52.3708 23.604C52.2427 23.2312 52.0025 22.3534 51.6482 20.9716H51.6051C51.4641 21.5659 51.2368 22.4437 50.9245 23.604L49.7345 27.2527H53.5824Z" fill="white"/>
<path d="M69.6359 27.9174C69.6359 29.631 69.161 30.9855 68.2112 31.9799C67.3604 32.865 66.3039 33.3071 65.0428 33.3071C63.6816 33.3071 62.7038 32.8304 62.1082 31.877H62.0652V37.1847H59.7692V26.3204C59.7692 25.2431 59.7401 24.1374 59.6841 23.0034H61.7033L61.8315 24.6005H61.8745C62.6402 23.3972 63.8022 22.7966 65.3616 22.7966C66.5807 22.7966 67.5984 23.2659 68.4125 24.2057C69.2289 25.1465 69.6359 26.3834 69.6359 27.9174ZM67.2969 27.9993C67.2969 27.0186 67.0707 26.2101 66.6162 25.5738C66.1198 24.9102 65.4532 24.5784 64.6175 24.5784C64.051 24.5784 63.5362 24.7632 63.0764 25.1276C62.6155 25.4951 62.3139 25.9749 62.1728 26.5692C62.1018 26.8464 62.0662 27.0732 62.0662 27.2517V28.9317C62.0662 29.6646 62.2967 30.2831 62.7576 30.7881C63.2185 31.2932 63.8173 31.5452 64.5539 31.5452C65.4187 31.5452 66.0918 31.2197 66.5732 30.5708C67.0556 29.9208 67.2969 29.064 67.2969 27.9993Z" fill="white"/>
<path d="M81.5221 27.9174C81.5221 29.631 81.0471 30.9855 80.0962 31.9799C79.2465 32.865 78.1901 33.3071 76.929 33.3071C75.5677 33.3071 74.5899 32.8304 73.9954 31.877H73.9524V37.1847H71.6564V26.3204C71.6564 25.2431 71.6273 24.1374 71.5713 23.0034H73.5905L73.7187 24.6005H73.7617C74.5264 23.3972 75.6884 22.7966 77.2488 22.7966C78.4668 22.7966 79.4845 23.2659 80.3008 24.2057C81.1139 25.1465 81.5221 26.3834 81.5221 27.9174ZM79.183 27.9993C79.183 27.0186 78.9557 26.2101 78.5013 25.5738C78.0048 24.9102 77.3404 24.5784 76.5036 24.5784C75.9361 24.5784 75.4224 24.7632 74.9614 25.1276C74.5005 25.4951 74.2001 25.9749 74.059 26.5692C73.989 26.8464 73.9524 27.0732 73.9524 27.2517V28.9317C73.9524 29.6646 74.1828 30.2831 74.6416 30.7881C75.1025 31.2921 75.7013 31.5452 76.4401 31.5452C77.3048 31.5452 77.9779 31.2197 78.4593 30.5708C78.9418 29.9208 79.183 29.064 79.183 27.9993Z" fill="white"/>
<path d="M94.8115 29.1606C94.8115 30.3492 94.3883 31.3163 93.5386 32.0628C92.6049 32.8787 91.305 33.2861 89.6347 33.2861C88.0926 33.2861 86.8563 32.9963 85.9204 32.4156L86.4524 30.5498C87.4604 31.1441 88.5664 31.4423 89.7715 31.4423C90.6363 31.4423 91.3093 31.2512 91.7929 30.8711C92.2743 30.491 92.5144 29.9807 92.5144 29.3444C92.5144 28.7774 92.3163 28.2996 91.9189 27.9122C91.5236 27.5247 90.8635 27.1646 89.9416 26.8317C87.4324 25.9193 86.1789 24.5826 86.1789 22.8249C86.1789 21.6762 86.6183 20.7344 87.4981 20.0015C88.3747 19.2675 89.5443 18.9011 91.0067 18.9011C92.3109 18.9011 93.3943 19.1226 94.259 19.5647L93.685 21.3896C92.8773 20.9612 91.9641 20.747 90.9421 20.747C90.1344 20.747 89.5033 20.9412 89.051 21.3276C88.6687 21.6731 88.477 22.0941 88.477 22.5929C88.477 23.1452 88.6956 23.6019 89.135 23.961C89.5173 24.2928 90.212 24.6519 91.22 25.0394C92.453 25.5234 93.3587 26.0894 93.9413 26.7383C94.5218 27.3851 94.8115 28.1946 94.8115 29.1606Z" fill="white"/>
<path d="M102.402 24.6834H99.8716V29.5754C99.8716 30.8196 100.317 31.4412 101.211 31.4412C101.622 31.4412 101.962 31.4066 102.231 31.3373L102.295 33.0372C101.842 33.2021 101.247 33.285 100.509 33.285C99.6024 33.285 98.8938 33.0152 98.3823 32.4765C97.8729 31.9368 97.6166 31.0317 97.6166 29.7602V24.6813H96.1089V23.0013H97.6166V21.1565L99.8716 20.4929V23.0013H102.402V24.6834Z" fill="white"/>
<path d="M113.821 27.9584C113.821 29.5071 113.367 30.7787 112.46 31.773C111.509 32.7968 110.247 33.3071 108.674 33.3071C107.157 33.3071 105.95 32.8167 105.05 31.836C104.149 30.8553 103.699 29.6174 103.699 28.1253C103.699 26.564 104.162 25.2851 105.092 24.2907C106.019 23.2953 107.27 22.7976 108.844 22.7976C110.36 22.7976 111.58 23.288 112.501 24.2697C113.382 25.2221 113.821 26.4516 113.821 27.9584ZM111.439 28.0308C111.439 27.1016 111.236 26.3046 110.823 25.64C110.342 24.8357 109.654 24.4346 108.762 24.4346C107.839 24.4346 107.138 24.8367 106.656 25.64C106.244 26.3057 106.04 27.1152 106.04 28.0728C106.04 29.0021 106.244 29.799 106.656 30.4626C107.153 31.2669 107.846 31.668 108.741 31.668C109.618 31.668 110.306 31.2585 110.803 30.4416C111.226 29.7644 111.439 28.959 111.439 28.0308Z" fill="white"/>
<path d="M121.284 24.9722C121.057 24.9312 120.815 24.9102 120.561 24.9102C119.753 24.9102 119.128 25.2074 118.689 25.8027C118.307 26.3277 118.115 26.9913 118.115 27.7925V33.0792H115.82L115.842 26.1765C115.842 25.0152 115.812 23.9579 115.755 23.0045H117.755L117.839 24.9323H117.903C118.145 24.2697 118.527 23.7363 119.051 23.3363C119.562 22.9761 120.115 22.7966 120.71 22.7966C120.922 22.7966 121.114 22.8113 121.284 22.8375V24.9722Z" fill="white"/>
<path d="M131.553 27.5646C131.553 27.9657 131.526 28.3038 131.469 28.5799H124.581C124.608 29.5753 124.94 30.3366 125.58 30.8616C126.16 31.3309 126.911 31.5661 127.833 31.5661C128.853 31.5661 129.783 31.4076 130.62 31.0894L130.98 32.6434C130.002 33.0592 128.847 33.2661 127.515 33.2661C125.913 33.2661 124.655 32.8062 123.74 31.8874C122.826 30.9687 122.369 29.7349 122.369 28.1872C122.369 26.6679 122.794 25.4026 123.646 24.3936C124.538 23.3163 125.743 22.7776 127.259 22.7776C128.748 22.7776 129.876 23.3163 130.642 24.3936C131.248 25.2493 131.553 26.3077 131.553 27.5646ZM129.363 26.9839C129.378 26.3203 129.229 25.747 128.917 25.263C128.52 24.6403 127.909 24.3295 127.088 24.3295C126.337 24.3295 125.726 24.633 125.26 25.242C124.878 25.726 124.651 26.3067 124.581 26.9829H129.363V26.9839Z" fill="white"/>
</svg>
