<svg width="48" height="48" viewBox="0 0 48 48" fill="none" xmlns="http://www.w3.org/2000/svg">
<path d="M25.1393 22.7309L29.346 18.5243L13.629 9.59596C12.9083 9.18362 12.245 9.11529 11.7307 9.32229L25.1393 22.7309Z" fill="white"/>
<path d="M10.687 11.1076C10.6833 11.175 10.6733 11.236 10.6733 11.3063V37.0999C10.6733 37.1322 10.6757 37.1622 10.6767 37.1939L23.725 24.1456L10.687 11.1076Z" fill="white"/>
<path d="M25.1393 25.5599L11.6377 39.0616C12.1637 39.3112 12.8647 39.2512 13.629 38.8242L29.421 29.8416L25.1393 25.5599Z" fill="white"/>
<path d="M36.3786 22.5179L31.1516 19.5476L26.5536 24.1456L31.225 28.8169L36.3786 25.8883C38.0116 24.9549 38.0116 23.4383 36.3786 22.5179Z" fill="white"/>
</svg>
