<svg width="48" height="48" viewBox="0 0 48 48" fill="none" xmlns="http://www.w3.org/2000/svg">
<path d="M23.8652 8C10.0787 8 9 9.07948 9 22.8652V23.1348C9 36.9205 10.0787 38 23.8652 38H24.1348C37.9213 38 39 36.9205 39 23.1348V23C39 9.089 37.911 8 24 8H23.8652ZM32.9956 12.5C33.8244 12.4977 34.4977 13.1669 34.5 13.9956C34.5023 14.8244 33.8331 15.4977 33.0044 15.5C32.1756 15.5023 31.5023 14.8331 31.5 14.0044C31.4977 13.1756 32.1669 12.5023 32.9956 12.5ZM23.9824 15.5C28.1239 15.4902 31.4902 18.8409 31.5 22.9824C31.5098 27.1239 28.1591 30.4902 24.0176 30.5C19.8761 30.5098 16.5098 27.1591 16.5 23.0176C16.4902 18.8761 19.8409 15.5098 23.9824 15.5ZM23.9897 18.5C21.5042 18.506 19.494 20.5262 19.5 23.0117C19.506 25.4965 21.5255 27.506 24.0103 27.5C26.4958 27.494 28.506 25.4745 28.5 22.9897C28.494 20.5042 26.4745 18.494 23.9897 18.5Z" fill="white"/>
</svg>
