<svg width="48" height="48" viewBox="0 0 48 48" fill="none" xmlns="http://www.w3.org/2000/svg">
<path d="M19.8385 11.2807C19.4545 11.2869 19.0743 11.4385 18.7867 11.7363L7.92195 22.957C7.3587 23.5382 7.3587 24.4617 7.92195 25.0429L18.7867 36.2636C19.0807 36.5674 19.4719 36.7207 19.8634 36.7207C20.2391 36.7207 20.616 36.5793 20.9078 36.2973C21.5025 35.7213 21.5182 34.771 20.9415 34.1762L12.5406 25.5H39.0001C39.8281 25.5 40.5001 24.828 40.5001 24C40.5001 23.172 39.8281 22.5 39.0001 22.5H12.5406L20.9415 13.8237C21.5175 13.2289 21.5025 12.2793 20.9078 11.7026C20.61 11.4146 20.2224 11.2745 19.8385 11.2807Z" fill="white"/>
</svg>
