<svg width="48" height="48" viewBox="0 0 48 48" fill="none" xmlns="http://www.w3.org/2000/svg">
<path d="M30.5355 7C28.0389 7 25.5417 7.9508 23.6404 9.85205L19.3983 14.0942C15.5958 17.8967 15.5958 24.0803 19.3983 27.8828C20.5495 29.0333 21.9071 29.8293 23.3651 30.2793L24.1707 29.4736C24.6957 28.9486 25.0676 28.3225 25.2694 27.6543C23.8961 27.448 22.5746 26.817 21.5194 25.7617C18.8891 23.1315 18.8891 18.8456 21.5194 16.2153L25.7615 11.9731C28.3918 9.34289 32.6777 9.34289 35.3079 11.9731C37.9382 14.6034 37.9382 18.8893 35.3079 21.5195L32.7679 24.0596C33.0334 25.4388 33.0486 26.8553 32.8206 28.2285C32.9429 28.1168 33.0698 27.9998 33.1868 27.8828L37.429 23.6406C41.2315 19.8381 41.2315 13.6546 37.429 9.85205C35.5278 7.9508 33.032 7 30.5355 7ZM23.9173 17.0005L23.1116 17.8076C22.5866 18.3326 22.2148 18.9572 22.013 19.6255C23.3863 19.8317 24.7063 20.4643 25.7615 21.5195C28.3918 24.1498 28.3918 28.4342 25.7615 31.0645L21.5194 35.3081C18.8891 37.9384 14.6032 37.9384 11.973 35.3081C9.34272 32.6779 9.34272 28.392 11.973 25.7617L14.513 23.2217C14.2475 21.8424 14.2323 20.426 14.4603 19.0527C14.338 19.1645 14.2111 19.2814 14.0941 19.3984L9.85187 23.6406C6.04938 27.4431 6.04938 33.6267 9.85187 37.4292C13.6544 41.2317 19.8379 41.2317 23.6404 37.4292L27.8826 33.187C31.6851 29.3845 31.6851 23.2009 27.8826 19.3984C26.7314 18.2479 25.3746 17.4512 23.9173 17.0005Z" fill="white"/>
</svg>
