<svg width="48" height="48" viewBox="0 0 48 48" fill="none" xmlns="http://www.w3.org/2000/svg">
<path d="M23.9998 7.5C23.6233 7.5 23.2475 7.64025 22.9568 7.92188L11.7361 18.7866C11.1414 19.3626 11.1257 20.313 11.7024 20.9077C12.2769 21.504 13.228 21.5196 13.8235 20.9429L22.4998 12.5405V39C22.4998 39.828 23.1718 40.5 23.9998 40.5C24.8278 40.5 25.4998 39.828 25.4998 39V12.5405L34.1761 20.9429C34.4678 21.2249 34.8448 21.3647 35.2205 21.3647C35.612 21.3647 36.0032 21.2115 36.2972 20.9077C36.8732 20.313 36.8582 19.3634 36.2635 18.7866L25.0442 7.92188C24.7536 7.64025 24.3763 7.5 23.9998 7.5Z" fill="white"/>
</svg>
