<svg width="48" height="48" viewBox="0 0 48 48" fill="none" xmlns="http://www.w3.org/2000/svg">
<path d="M20.9209 7.5C18.8936 7.5 17.25 9.14365 17.25 11.1709V13.5H18.0044C19.4541 13.5 20.853 14.108 21.8423 15.1685L30.0894 24.0103C30.9999 24.9875 31.5 26.2576 31.5 27.5903V33.75H34.6362C36.632 33.75 38.25 32.132 38.25 30.1362V18.75H30.3516C28.5036 18.75 27 17.2358 27 15.375V7.5H20.9209ZM29.25 8.50928V15.375C29.25 15.9952 29.7441 16.5 30.3516 16.5H36.7031L29.25 8.50928ZM13.4209 15.75C11.3936 15.75 9.75 17.3936 9.75 19.4209V36.7104C9.75 38.8037 11.4463 40.5 13.5396 40.5H25.6362C27.632 40.5 29.25 38.882 29.25 36.8862V27H21.3516C19.5036 27 18 25.4858 18 23.625V15.75H13.4209ZM20.25 16.7593V23.625C20.25 24.2453 20.7441 24.75 21.3516 24.75H27.7031L20.25 16.7593ZM15.375 29.25H23.625C24.246 29.25 24.75 29.7533 24.75 30.375C24.75 30.9967 24.246 31.5 23.625 31.5H15.375C14.754 31.5 14.25 30.9967 14.25 30.375C14.25 29.7533 14.754 29.25 15.375 29.25ZM15.375 33.75H23.625C24.246 33.75 24.75 34.2533 24.75 34.875C24.75 35.4967 24.246 36 23.625 36H15.375C14.754 36 14.25 35.4967 14.25 34.875C14.25 34.2533 14.754 33.75 15.375 33.75Z" fill="white"/>
</svg>
