<svg width="48" height="48" viewBox="0 0 48 48" fill="none" xmlns="http://www.w3.org/2000/svg">
<path d="M24 7.5C23.172 7.5 22.5 8.172 22.5 9V35.4595L13.8237 27.0571C13.2282 26.4811 12.2779 26.4968 11.7026 27.0923C11.1266 27.687 11.1416 28.6366 11.7363 29.2134L22.9556 40.0781C23.2466 40.3594 23.6235 40.5 24 40.5C24.3765 40.5 24.7527 40.3594 25.043 40.0781L36.2637 29.2134C36.8584 28.6374 36.8741 27.687 36.2974 27.0923C35.7221 26.4968 34.7718 26.4811 34.1763 27.0571L25.5 35.4595V9C25.5 8.172 24.828 7.5 24 7.5Z" fill="white"/>
</svg>
