<svg width="48" height="48" viewBox="0 0 48 48" fill="none" xmlns="http://www.w3.org/2000/svg">
<path d="M40.7064 34.1252C41.3835 35.3006 41.3835 36.7016 40.7047 37.8752C40.0276 39.0488 38.8141 39.7502 37.4582 39.7502H10.5415C9.1856 39.7502 7.97206 39.0488 7.29498 37.8752C6.61616 36.7016 6.61616 35.3006 7.29324 34.1252L20.7516 10.8145C21.4304 9.64084 22.6439 8.93945 23.9998 8.93945C25.3557 8.93945 26.5693 9.64084 27.2481 10.8145L40.7064 34.1252ZM22.7238 17.7207C22.4009 18.0384 22.2446 18.4342 22.2585 18.9099L22.4964 27.7954C22.5259 28.7901 23.0294 29.2884 24.0103 29.2884C24.9616 29.2884 25.4443 28.7901 25.4582 27.7954L25.7394 18.9325C25.7533 18.4568 25.5919 18.0558 25.2533 17.7311C24.9148 17.4082 24.4929 17.245 23.9894 17.245C23.4703 17.245 23.0484 17.4047 22.7238 17.7207ZM23.9998 34.8665C25.1752 34.8665 25.88 33.9464 25.88 33.0679C25.88 32.1895 25.1509 31.2693 23.9998 31.2693C22.8488 31.2693 22.1196 32.2415 22.1196 33.0679C22.1196 33.8943 22.8245 34.8665 23.9998 34.8665Z" fill="white"/>
</svg>
