<svg width="48" height="48" viewBox="0 0 48 48" fill="none" xmlns="http://www.w3.org/2000/svg">
<path d="M11.9999 10.5C11.6159 10.5 11.2326 10.6462 10.9393 10.9395C10.3536 11.5252 10.3536 12.4748 10.9393 13.0605L21.8788 24L10.9393 34.9395C10.3536 35.5252 10.3536 36.4748 10.9393 37.0605C11.2326 37.3538 11.6159 37.5 11.9999 37.5C12.3839 37.5 12.7672 37.3538 13.0604 37.0605L23.9999 26.1211L34.9393 37.0605C35.5251 37.6463 36.4747 37.6463 37.0604 37.0605C37.6462 36.4748 37.6462 35.5252 37.0604 34.9395L26.121 24L37.0604 13.0605C37.6462 12.4748 37.6462 11.5252 37.0604 10.9395C36.4747 10.3537 35.5251 10.3537 34.9393 10.9395L23.9999 21.8789L13.0604 10.9395C12.7672 10.6462 12.3839 10.5 11.9999 10.5Z" fill="white"/>
</svg>
