<svg width="48" height="48" viewBox="0 0 48 48" fill="none" xmlns="http://www.w3.org/2000/svg">
<path d="M30.1703 8C38.3595 8 39 8.6405 39 16.8298V29.1695C39 37.3588 38.3595 38 30.1703 38H28.6035V27.0785H32.454L33.0592 22.751H28.6035C28.6035 22.751 28.5968 20.2175 28.6035 19.5853C28.6163 18.3485 29.649 17.723 30.5363 17.732C31.4235 17.741 33.2617 17.735 33.2617 17.735V13.7473C33.2617 13.7473 31.6695 13.541 30 13.5237C28.5967 13.5095 27.0472 13.889 25.797 15.149C24.525 16.4307 24.3248 18.3395 24.3 20.672C24.2933 21.347 24.3 22.751 24.3 22.751H20.532V27.0785H24.3V38H17.8305C9.6405 38 9 37.3588 9 29.1703V16.8298C9 8.6405 9.6405 8 17.8298 8H30.1703Z" fill="white"/>
</svg>
