<svg width="153" height="64" viewBox="0 0 153 64" fill="none" xmlns="http://www.w3.org/2000/svg">
<path d="M74.8188 56.288C73.4428 56.288 72.2348 56.032 71.1948 55.52C70.1548 54.992 69.3388 54.264 68.7468 53.336C68.1708 52.392 67.8828 51.312 67.8828 50.096C67.8828 48.896 68.1628 47.832 68.7228 46.904C69.2988 45.976 70.0828 45.248 71.0748 44.72C72.0668 44.176 73.1868 43.904 74.4348 43.904C75.6668 43.904 76.7548 44.16 77.6988 44.672C78.6428 45.168 79.3788 45.864 79.9068 46.76C80.4508 47.656 80.7228 48.68 80.7228 49.832C80.7228 50.072 80.7068 50.328 80.6748 50.6C80.6588 50.856 80.6108 51.16 80.5308 51.512L69.8748 51.584V48.704L78.7788 48.632L76.5948 49.904C76.5948 49.264 76.5148 48.744 76.3548 48.344C76.2108 47.928 75.9868 47.616 75.6828 47.408C75.3788 47.2 74.9948 47.096 74.5308 47.096C74.0508 47.096 73.6348 47.216 73.2828 47.456C72.9308 47.696 72.6588 48.04 72.4668 48.488C72.2908 48.936 72.2028 49.48 72.2028 50.12C72.2028 50.776 72.2988 51.328 72.4908 51.776C72.6988 52.208 72.9948 52.536 73.3788 52.76C73.7628 52.984 74.2428 53.096 74.8188 53.096C75.3788 53.096 75.8668 53.008 76.2828 52.832C76.7148 52.64 77.1068 52.344 77.4588 51.944L79.8108 54.272C79.2188 54.944 78.5068 55.448 77.6748 55.784C76.8428 56.12 75.8908 56.288 74.8188 56.288Z" fill="white"/>
<path d="M59.5358 61.424C58.2078 61.424 57.0318 61.2 56.0078 60.752C54.9838 60.32 54.1918 59.704 53.6318 58.904L56.4158 56.144C56.7838 56.544 57.1918 56.856 57.6398 57.08C58.0878 57.32 58.6318 57.44 59.2718 57.44C60.0398 57.44 60.6398 57.256 61.0718 56.888C61.5198 56.52 61.7438 55.984 61.7438 55.28V52.16L62.5118 49.616L61.8638 47.096V44.192H66.4478V55.088C66.4478 56.384 66.1438 57.504 65.5358 58.448C64.9278 59.392 64.1038 60.12 63.0638 60.632C62.0238 61.16 60.8478 61.424 59.5358 61.424ZM59.3198 55.52C58.2158 55.52 57.2398 55.264 56.3918 54.752C55.5438 54.24 54.8798 53.544 54.3998 52.664C53.9198 51.784 53.6798 50.808 53.6798 49.736C53.6798 48.648 53.9198 47.672 54.3998 46.808C54.8798 45.928 55.5438 45.232 56.3918 44.72C57.2398 44.208 58.2158 43.952 59.3198 43.952C60.0078 43.952 60.6398 44.072 61.2158 44.312C61.8078 44.536 62.2958 44.856 62.6798 45.272C63.0798 45.688 63.3358 46.168 63.4478 46.712V52.76C63.3358 53.304 63.0798 53.784 62.6798 54.2C62.2958 54.616 61.8078 54.944 61.2158 55.184C60.6398 55.408 60.0078 55.52 59.3198 55.52ZM60.1838 51.512C60.5678 51.512 60.8958 51.424 61.1678 51.248C61.4398 51.072 61.6478 50.848 61.7918 50.576C61.9358 50.304 62.0078 50.016 62.0078 49.712C62.0078 49.408 61.9358 49.12 61.7918 48.848C61.6478 48.576 61.4398 48.352 61.1678 48.176C60.9118 48 60.5918 47.912 60.2078 47.912C59.8398 47.912 59.5198 48 59.2478 48.176C58.9758 48.352 58.7678 48.584 58.6238 48.872C58.4798 49.144 58.4078 49.424 58.4078 49.712C58.4078 49.984 58.4798 50.264 58.6238 50.552C58.7678 50.824 58.9678 51.056 59.2238 51.248C59.4958 51.424 59.8158 51.512 60.1838 51.512Z" fill="white"/>
<path d="M47.7571 56V49.376C47.7571 48.912 47.6211 48.56 47.3491 48.32C47.0931 48.064 46.7651 47.936 46.3651 47.936C46.0931 47.936 45.8451 47.992 45.6211 48.104C45.4131 48.216 45.2451 48.384 45.1171 48.608C45.0051 48.816 44.9491 49.072 44.9491 49.376L43.1251 48.56C43.1251 47.6 43.3331 46.776 43.7491 46.088C44.1811 45.4 44.7651 44.872 45.5011 44.504C46.2531 44.136 47.1011 43.952 48.0451 43.952C48.8931 43.952 49.6451 44.144 50.3011 44.528C50.9731 44.896 51.5011 45.408 51.8851 46.064C52.2691 46.704 52.4611 47.448 52.4611 48.296V56H47.7571ZM40.2451 56V44.192H44.9491V56H40.2451Z" fill="white"/>
<path d="M30.5165 56.24C29.4125 56.24 28.4365 55.976 27.5885 55.448C26.7405 54.92 26.0765 54.2 25.5965 53.288C25.1165 52.36 24.8765 51.296 24.8765 50.096C24.8765 48.896 25.1165 47.832 25.5965 46.904C26.0765 45.976 26.7405 45.256 27.5885 44.744C28.4365 44.216 29.4125 43.952 30.5165 43.952C31.2045 43.952 31.8365 44.072 32.4125 44.312C33.0045 44.536 33.4925 44.856 33.8765 45.272C34.2765 45.688 34.5325 46.168 34.6445 46.712V53.48C34.5325 54.024 34.2765 54.504 33.8765 54.92C33.4925 55.336 33.0045 55.664 32.4125 55.904C31.8365 56.128 31.2045 56.24 30.5165 56.24ZM31.5725 52.112C32.1645 52.112 32.6365 51.928 32.9885 51.56C33.3565 51.176 33.5405 50.688 33.5405 50.096C33.5405 49.696 33.4605 49.352 33.3005 49.064C33.1405 48.76 32.9085 48.52 32.6045 48.344C32.3165 48.168 31.9805 48.08 31.5965 48.08C31.2125 48.08 30.8685 48.168 30.5645 48.344C30.2765 48.52 30.0445 48.76 29.8685 49.064C29.6925 49.368 29.6045 49.712 29.6045 50.096C29.6045 50.48 29.6845 50.824 29.8445 51.128C30.0205 51.432 30.2605 51.672 30.5645 51.848C30.8685 52.024 31.2045 52.112 31.5725 52.112ZM33.3965 56V52.832L34.0445 49.952L33.3965 47.096V44.192H37.9805V56H33.3965Z" fill="white"/>
<path d="M15.2373 56V44.192H19.9413V56H15.2373ZM19.9413 49.616L17.7573 47.672C18.3653 46.392 19.0693 45.456 19.8693 44.864C20.6853 44.256 21.7013 43.952 22.9173 43.952C23.4613 43.952 23.9253 44.016 24.3093 44.144C24.7093 44.272 25.0293 44.456 25.2693 44.696L22.6293 48.44C22.5173 48.312 22.3493 48.208 22.1253 48.128C21.9173 48.032 21.6693 47.984 21.3813 47.984C20.9013 47.984 20.5413 48.128 20.3013 48.416C20.0613 48.688 19.9413 49.088 19.9413 49.616Z" fill="white"/>
<path d="M7.07994 56.288C5.78394 56.288 4.62394 56.024 3.59994 55.496C2.59194 54.952 1.79194 54.208 1.19994 53.264C0.623938 52.32 0.335938 51.256 0.335938 50.072C0.335938 48.888 0.623938 47.832 1.19994 46.904C1.77594 45.976 2.56794 45.248 3.57594 44.72C4.59994 44.176 5.75994 43.904 7.05594 43.904C8.35194 43.904 9.50394 44.176 10.5119 44.72C11.5199 45.248 12.3119 45.976 12.8879 46.904C13.4799 47.832 13.7759 48.888 13.7759 50.072C13.7759 51.256 13.4879 52.32 12.9119 53.264C12.3359 54.208 11.5439 54.952 10.5359 55.496C9.52794 56.024 8.37594 56.288 7.07994 56.288ZM7.05594 52.16C7.45594 52.16 7.79994 52.08 8.08794 51.92C8.39194 51.744 8.62394 51.504 8.78394 51.2C8.94394 50.88 9.02394 50.512 9.02394 50.096C9.02394 49.68 8.93594 49.32 8.75994 49.016C8.59994 48.696 8.37594 48.456 8.08794 48.296C7.79994 48.12 7.45594 48.032 7.05594 48.032C6.67194 48.032 6.32794 48.12 6.02394 48.296C5.73594 48.472 5.50394 48.72 5.32794 49.04C5.16794 49.344 5.08794 49.704 5.08794 50.12C5.08794 50.52 5.16794 50.88 5.32794 51.2C5.50394 51.504 5.73594 51.744 6.02394 51.92C6.32794 52.08 6.67194 52.16 7.05594 52.16Z" fill="white"/>
<rect x="89" width="64" height="64" rx="8" fill="#F3474D"/>
<path d="M141.913 56.288C140.537 56.288 139.329 56.032 138.289 55.52C137.249 54.992 136.433 54.264 135.841 53.336C135.265 52.392 134.977 51.312 134.977 50.096C134.977 48.896 135.257 47.832 135.817 46.904C136.393 45.976 137.177 45.248 138.169 44.72C139.161 44.176 140.281 43.904 141.529 43.904C142.761 43.904 143.849 44.16 144.793 44.672C145.737 45.168 146.473 45.864 147.001 46.76C147.545 47.656 147.817 48.68 147.817 49.832C147.817 50.072 147.801 50.328 147.769 50.6C147.753 50.856 147.705 51.16 147.625 51.512L136.969 51.584V48.704L145.873 48.632L143.689 49.904C143.689 49.264 143.609 48.744 143.449 48.344C143.305 47.928 143.081 47.616 142.777 47.408C142.473 47.2 142.089 47.096 141.625 47.096C141.145 47.096 140.729 47.216 140.377 47.456C140.025 47.696 139.753 48.04 139.561 48.488C139.385 48.936 139.297 49.48 139.297 50.12C139.297 50.776 139.393 51.328 139.585 51.776C139.793 52.208 140.089 52.536 140.473 52.76C140.857 52.984 141.337 53.096 141.913 53.096C142.473 53.096 142.961 53.008 143.377 52.832C143.809 52.64 144.201 52.344 144.553 51.944L146.905 54.272C146.313 54.944 145.601 55.448 144.769 55.784C143.937 56.12 142.985 56.288 141.913 56.288Z" fill="white"/>
<path d="M114.534 56V44.192H119.238V56H114.534ZM121.806 56V49.232C121.806 48.832 121.686 48.52 121.446 48.296C121.206 48.056 120.902 47.936 120.534 47.936C120.278 47.936 120.046 47.992 119.838 48.104C119.646 48.2 119.494 48.344 119.382 48.536C119.286 48.728 119.238 48.96 119.238 49.232L117.414 48.56C117.414 47.6 117.622 46.776 118.038 46.088C118.47 45.4 119.046 44.872 119.766 44.504C120.486 44.136 121.302 43.952 122.214 43.952C123.014 43.952 123.734 44.144 124.374 44.528C125.03 44.912 125.55 45.448 125.934 46.136C126.318 46.808 126.51 47.608 126.51 48.536V56H121.806ZM129.078 56V49.232C129.078 48.832 128.958 48.52 128.718 48.296C128.478 48.056 128.174 47.936 127.806 47.936C127.55 47.936 127.318 47.992 127.11 48.104C126.918 48.2 126.766 48.344 126.654 48.536C126.558 48.728 126.51 48.96 126.51 49.232L123.75 49.256C123.75 48.152 123.966 47.208 124.398 46.424C124.846 45.624 125.462 45.016 126.246 44.6C127.03 44.168 127.926 43.952 128.934 43.952C129.878 43.952 130.71 44.152 131.43 44.552C132.166 44.952 132.742 45.528 133.158 46.28C133.574 47.032 133.782 47.936 133.782 48.992V56H129.078Z" fill="white"/>
<path d="M109.72 56.288C108.968 56.288 108.344 56.032 107.848 55.52C107.352 55.008 107.104 54.384 107.104 53.648C107.104 52.896 107.352 52.264 107.848 51.752C108.344 51.24 108.968 50.984 109.72 50.984C110.472 50.984 111.088 51.24 111.568 51.752C112.064 52.264 112.312 52.896 112.312 53.648C112.312 54.384 112.064 55.008 111.568 55.52C111.088 56.032 110.472 56.288 109.72 56.288Z" fill="white"/>
</svg>
