<svg width="48" height="48" viewBox="0 0 48 48" fill="none" xmlns="http://www.w3.org/2000/svg">
<path d="M10.5 11.25C8.8455 11.25 7.5 12.5955 7.5 14.25V30.75C7.5 32.4045 8.8455 33.75 10.5 33.75H37.5C39.1545 33.75 40.5 32.4045 40.5 30.75V14.25C40.5 12.5955 39.1545 11.25 37.5 11.25H10.5ZM19.5 36V38.25H18.75C17.922 38.25 17.25 38.922 17.25 39.75C17.25 40.578 17.922 41.25 18.75 41.25H29.25C30.078 41.25 30.75 40.578 30.75 39.75C30.75 38.922 30.078 38.25 29.25 38.25H28.5V36H19.5Z" fill="white"/>
</svg>
