<svg width="48" height="48" viewBox="0 0 48 48" fill="none" xmlns="http://www.w3.org/2000/svg">
<path fill-rule="evenodd" clip-rule="evenodd" d="M6.75 24C6.75 33.5115 14.4878 41.25 24 41.25C33.5122 41.25 41.25 33.5115 41.25 24C41.25 14.4885 33.5122 6.75 24 6.75C14.4878 6.75 6.75 14.4885 6.75 24ZM10.5 24C10.5 16.5562 16.5562 10.5 24 10.5C31.4438 10.5 37.5 16.5562 37.5 24C37.5 31.4438 31.4438 37.5 24 37.5C16.5562 37.5 10.5 31.4438 10.5 24ZM24 33C28.9706 33 33 28.9706 33 24C33 19.0294 28.9706 15 24 15C19.0294 15 15 19.0294 15 24C15 28.9706 19.0294 33 24 33Z" fill="white"/>
</svg>
