<svg width="86" height="86" viewBox="0 0 86 86" fill="none" xmlns="http://www.w3.org/2000/svg">
<g filter="url(#filter0_dd_8089_7847)">
<rect x="8.38464" y="7.9231" width="71.1539" height="71.1539" rx="8" fill="black"/>
<path d="M25.8839 53.0344C27.2126 52.4411 28.6863 52.111 30.2378 52.111C31.1351 52.111 32.0065 52.2215 32.8388 52.4294C33.2438 52.5095 33.6445 52.6112 34.0391 52.734C34.7585 45.526 35.477 38.3185 36.1945 31.1114C36.4013 29.0381 36.6081 26.934 36.2789 24.8761C35.9497 22.8181 35.0127 20.7783 33.3568 19.5971C33.0065 19.3472 32.5844 19.1308 32.1694 19.2271C31.8387 19.3039 31.5799 19.5636 31.3435 19.8177C23.282 28.474 20.6722 41.5981 25.6976 52.6376C25.7582 52.7703 25.8203 52.9029 25.8839 53.0344Z" fill="#EB343A"/>
<path d="M25.8839 53.0344C27.2126 52.4411 28.6863 52.111 30.2378 52.111C31.1351 52.111 32.0065 52.2215 32.8388 52.4294C33.2438 52.5095 33.6445 52.6112 34.0391 52.734C34.7585 45.526 35.477 38.3185 36.1945 31.1114C36.4013 29.0381 36.6081 26.934 36.2789 24.8761C35.9497 22.8181 35.0127 20.7783 33.3568 19.5971C33.0065 19.3472 32.5844 19.1308 32.1694 19.2271C31.8387 19.3039 31.5799 19.5636 31.3435 19.8177C23.282 28.474 20.6722 41.5981 25.6976 52.6376C25.7582 52.7703 25.8203 52.9029 25.8839 53.0344Z" fill="black" fill-opacity="0.16"/>
<path d="M34.8522 30.1285C38.7859 24.0132 46.1806 18.3364 53.1081 16.5213C54.5573 16.1416 54.6698 24.3343 54.5966 24.9878C54.1127 29.4234 52.558 33.6901 50.4815 37.5799C48.4865 41.323 46.0146 44.7422 43.4343 48.0582L43.4181 48.079C41.52 50.5194 39.5777 53.0165 36.867 54.4155C35.05 52.9734 32.7453 52.111 30.2377 52.111C29.56 52.111 28.8972 52.174 28.2549 52.2944C29.0035 44.7138 30.728 36.5389 34.8522 30.1285Z" fill="#EB343A"/>
<path d="M34.8522 30.1285C38.7859 24.0132 46.1806 18.3364 53.1081 16.5213C54.5573 16.1416 54.6698 24.3343 54.5966 24.9878C54.1127 29.4234 52.558 33.6901 50.4815 37.5799C48.4865 41.323 46.0146 44.7422 43.4343 48.0582L43.4181 48.079C41.52 50.5194 39.5777 53.0165 36.867 54.4155C35.05 52.9734 32.7453 52.111 30.2377 52.111C29.56 52.111 28.8972 52.174 28.2549 52.2944C29.0035 44.7138 30.728 36.5389 34.8522 30.1285Z" fill="black" fill-opacity="0.08"/>
<path d="M42.849 34.8488C48.1952 30.0613 56.7548 26.6561 63.8821 26.825C65.372 26.8599 63.3855 34.7609 63.1463 35.364C61.5481 39.4967 58.9622 43.1672 55.9711 46.3296C53.0968 49.3677 49.8399 51.9729 46.5111 54.4455C44.445 55.9823 42.3354 57.551 39.9446 58.3652C38.4743 55.0915 35.3718 52.6987 31.6632 52.205C34.2593 45.8018 37.8007 39.3684 42.849 34.8488Z" fill="#EB343A"/>
<path d="M45.0143 42.7443C49.7106 40.5593 56.3821 40.0385 61.3344 41.7041C62.3684 42.0532 59.3914 47.145 59.1129 47.5136C57.1615 50.0547 54.615 52.0582 51.887 53.6177C49.2674 55.1172 46.4648 56.2314 43.6398 57.2366C42.4264 57.6686 41.1913 58.1074 39.9398 58.3543C38.726 55.66 36.406 53.5639 33.553 52.6346C36.6838 48.6538 40.5034 44.8404 45.0143 42.7443Z" fill="#EB343A"/>
<path d="M45.0143 42.7443C49.7106 40.5593 56.3821 40.0385 61.3344 41.7041C62.3684 42.0532 59.3914 47.145 59.1129 47.5136C57.1615 50.0547 54.615 52.0582 51.887 53.6177C49.2674 55.1172 46.4648 56.2314 43.6398 57.2366C42.4264 57.6686 41.1913 58.1074 39.9398 58.3543C38.726 55.66 36.406 53.5639 33.553 52.6346C36.6838 48.6538 40.5034 44.8404 45.0143 42.7443Z" fill="white" fill-opacity="0.08"/>
<path d="M30.2391 71.1017C34.9408 71.1017 38.7523 67.3193 38.7523 62.6535C38.7523 57.9876 34.9408 54.2052 30.2391 54.2052C25.5374 54.2052 21.726 57.9876 21.726 62.6535C21.726 67.3193 25.5374 71.1017 30.2391 71.1017Z" fill="white"/>
</g>
<defs>
<filter id="filter0_dd_8089_7847" x="-15.6154" y="-16.0769" width="119.154" height="119.154" filterUnits="userSpaceOnUse" color-interpolation-filters="sRGB">
<feFlood flood-opacity="0" result="BackgroundImageFix"/>
<feColorMatrix in="SourceAlpha" type="matrix" values="0 0 0 0 0 0 0 0 0 0 0 0 0 0 0 0 0 0 127 0" result="hardAlpha"/>
<feOffset/>
<feGaussianBlur stdDeviation="12"/>
<feComposite in2="hardAlpha" operator="out"/>
<feColorMatrix type="matrix" values="0 0 0 0 1 0 0 0 0 1 0 0 0 0 1 0 0 0 0.25 0"/>
<feBlend mode="normal" in2="BackgroundImageFix" result="effect1_dropShadow_8089_7847"/>
<feColorMatrix in="SourceAlpha" type="matrix" values="0 0 0 0 0 0 0 0 0 0 0 0 0 0 0 0 0 0 127 0" result="hardAlpha"/>
<feOffset/>
<feGaussianBlur stdDeviation="1"/>
<feComposite in2="hardAlpha" operator="out"/>
<feColorMatrix type="matrix" values="0 0 0 0 1 0 0 0 0 1 0 0 0 0 1 0 0 0 1 0"/>
<feBlend mode="normal" in2="effect1_dropShadow_8089_7847" result="effect2_dropShadow_8089_7847"/>
<feBlend mode="normal" in="SourceGraphic" in2="effect2_dropShadow_8089_7847" result="shape"/>
</filter>
</defs>
</svg>
