<svg width="48" height="48" viewBox="0 0 48 48" fill="none" xmlns="http://www.w3.org/2000/svg">
<path d="M32.2887 9.29053C35.9174 9.29053 38.8694 12.4167 38.8694 16.2583C38.8694 20.0998 35.9174 23.226 32.2887 23.226C28.6601 23.226 25.7081 20.0998 25.7081 16.2583C25.7081 12.4167 28.6601 9.29053 32.2887 9.29053ZM43.7383 32.2136C44.4854 34.2273 42.9726 36.3873 40.8095 36.3873C38.6735 36.3873 32.2663 36.3873 32.2663 36.3873C32.7997 32.2291 28.763 28.067 25.6539 26.2996C27.5026 25.393 29.6402 24.8797 31.9016 24.8797C37.355 24.8797 42.1109 27.8278 43.7383 32.2136ZM29.0286 34.5362C29.7757 36.5499 28.2629 38.7099 26.0998 38.7099C21.6459 38.7099 12.738 38.7099 8.28406 38.7099C6.13026 38.7099 4.60432 36.5584 5.35529 34.5354C6.98265 30.1496 11.7385 27.2023 17.1919 27.2023C22.6454 27.2023 27.4012 30.1504 29.0286 34.5362ZM16.8048 11.6131C20.4335 11.6131 23.3855 14.7393 23.3855 18.5809C23.3855 22.4224 20.4335 25.5486 16.8048 25.5486C13.1762 25.5486 10.2242 22.4224 10.2242 18.5809C10.2242 14.7393 13.1762 11.6131 16.8048 11.6131Z" fill="white"/>
</svg>
