<svg width="48" height="48" viewBox="0 0 48 48" fill="none" xmlns="http://www.w3.org/2000/svg">
<path d="M30.993 7C40.2741 7 41 7.7259 41 17.0071V30.9921C41 40.2733 40.2741 41 30.993 41H17.0071C7.7259 41 7 40.2733 7 30.993V17.0071C7 7.7259 7.7259 7 17.0071 7H30.993ZM17.3326 32.2323C17.3887 32.1337 17.9072 31.2318 18.6739 29.8948C17.9488 29.0448 17.0419 28.8314 15.9981 29.0966C15.4091 30.1225 15.0232 30.7958 14.9747 30.8799C14.6016 31.531 14.8259 32.3615 15.477 32.7346C16.1281 33.1078 16.9586 32.8834 17.3326 32.2323ZM26.935 28.4353C27.5054 26.8772 26.34 25.8521 25.3753 25.717C23.9371 25.717 22.4607 25.717 21.0701 25.717C23.7229 21.0939 26.8348 15.67 26.9784 15.4201C27.3524 14.769 27.1271 13.9386 26.476 13.5654C25.8249 13.1923 24.9945 13.4167 24.6213 14.0678C24.5856 14.1307 24.3553 14.5319 24 15.1507C23.6413 14.5251 23.4152 14.1307 23.3786 14.0678C23.0047 13.4167 22.1742 13.1923 21.524 13.5654C20.8737 13.9386 20.6476 14.769 21.0216 15.4201C21.0794 15.5213 21.6285 16.4775 22.4334 17.8809C21.1015 20.2022 19.3896 23.1857 17.937 25.717C15.8919 25.717 14.4443 25.717 14.3092 25.717C13.5586 25.717 12.95 26.3256 12.95 27.0762C12.95 27.8267 13.5586 28.4353 14.3092 28.4353C14.6101 28.4353 21.4602 28.4353 26.935 28.4353ZM33.6909 28.4353C34.4414 28.4353 35.05 27.8267 35.05 27.0762C35.05 26.3256 34.4414 25.717 33.6909 25.717C33.5566 25.717 32.1039 25.717 30.063 25.717C28.771 23.4654 27.2708 20.8508 26.0171 18.6663C24.9444 19.9897 24.7709 21.4415 25.3719 23.0038C27.8683 27.3549 30.5339 32.001 30.6665 32.2314C31.0397 32.8825 31.871 33.1069 32.5213 32.7338C33.1724 32.3606 33.3976 31.5293 33.0236 30.879C32.9658 30.7787 32.4201 29.8267 31.6211 28.4353C32.8111 28.4353 33.594 28.4353 33.6909 28.4353Z" fill="white"/>
</svg>
