<svg width="48" height="48" viewBox="0 0 48 48" fill="none" xmlns="http://www.w3.org/2000/svg">
<path d="M22.8638 12C22.4723 12 22.0812 12.1525 21.7872 12.457L10.9224 23.6777C10.3592 24.259 10.3592 25.1824 10.9224 25.7637L21.7872 36.9844C22.3624 37.5799 23.3128 37.5941 23.9083 37.0181C24.503 36.4421 24.5187 35.4917 23.942 34.897L14.088 24.7207L23.942 14.543C24.518 13.9482 24.503 12.9986 23.9083 12.4219C23.6165 12.1399 23.2396 12 22.8638 12ZM34.8638 12C34.4723 12 34.0812 12.1525 33.7872 12.457L22.9224 23.6777C22.3592 24.259 22.3592 25.1824 22.9224 25.7637L33.7872 36.9844C34.3624 37.5799 35.3128 37.5941 35.9083 37.0181C36.503 36.4421 36.5187 35.4917 35.942 34.897L26.088 24.7207L35.942 14.543C36.518 13.9482 36.503 12.9986 35.9083 12.4219C35.6165 12.1399 35.2396 12 34.8638 12Z" fill="white"/>
</svg>
