<svg width="48" height="48" viewBox="0 0 48 48" fill="none" xmlns="http://www.w3.org/2000/svg">
<path d="M24 6.75C14.475 6.75 6.75 14.475 6.75 24C6.75 33.525 14.475 41.25 24 41.25C33.525 41.25 41.25 33.525 41.25 24C41.25 14.475 33.525 6.75 24 6.75ZM22.4707 15.5024C22.7932 15.5024 23.0332 15.7274 23.0332 16.0649V17.332H24.353V16.0649C24.353 15.7274 24.6005 15.5024 24.9155 15.5024C25.238 15.5024 25.4854 15.7274 25.4854 16.0649V17.3701C27.3679 17.6101 28.5894 18.8477 28.5894 20.6177C28.5894 21.9827 27.5851 23.2652 26.3101 23.4902V23.5649C28.1026 23.7899 29.25 25.0502 29.25 26.8052C29.25 28.9352 27.8629 30.263 25.4854 30.4805V31.7695C25.4854 32.107 25.238 32.332 24.9155 32.332C24.6005 32.332 24.353 32.107 24.353 31.7695V30.5024H23.0332V31.7695C23.0332 32.107 22.7932 32.332 22.4707 32.332C22.1482 32.332 21.9082 32.107 21.9082 31.7695V30.5024H21.3223C20.6623 30.5024 20.228 30.0594 20.228 29.3994V18.4351C20.228 17.7751 20.6623 17.332 21.3223 17.332H21.9082V16.0649C21.9082 15.7274 22.1482 15.5024 22.4707 15.5024ZM21.9229 18.8174V22.9731H23.8799C25.8149 22.9731 26.8872 22.2377 26.8872 20.8052C26.8872 19.4927 25.9721 18.8174 24.3896 18.8174H21.9229ZM21.9229 24.457V29.0171H24.5024C26.4599 29.0171 27.5244 28.253 27.5244 26.7305C27.5244 25.2005 26.4382 24.457 24.3457 24.457H21.9229Z" fill="white"/>
</svg>
