<svg width="48" height="48" viewBox="0 0 48 48" fill="none" xmlns="http://www.w3.org/2000/svg">
<path d="M41.25 19.5V32.25C41.25 35.5583 38.5583 38.25 35.25 38.25H12.75C9.44175 38.25 6.75 35.5583 6.75 32.25V19.5C6.75 16.1918 9.44175 13.5 12.75 13.5H15.396C15.9675 13.5 16.4812 13.182 16.737 12.6713L17.3287 11.4878C18.0967 9.95325 19.6388 9 21.354 9H26.6467C28.362 9 29.904 9.95325 30.6712 11.487L31.263 12.6705C31.518 13.182 32.0325 13.5 32.604 13.5H35.25C38.5583 13.5 41.25 16.1918 41.25 19.5ZM32.25 25.5C32.25 20.9513 28.5487 17.25 24 17.25C19.4513 17.25 15.75 20.9513 15.75 25.5C15.75 30.0487 19.4513 33.75 24 33.75C28.5487 33.75 32.25 30.0487 32.25 25.5ZM29.25 25.5C29.25 28.395 26.8943 30.75 24 30.75C21.1058 30.75 18.75 28.395 18.75 25.5C18.75 22.605 21.1058 20.25 24 20.25C26.8943 20.25 29.25 22.605 29.25 25.5Z" fill="white"/>
</svg>
