<svg width="48" height="48" viewBox="0 0 48 48" fill="none" xmlns="http://www.w3.org/2000/svg">
<path d="M24 8.5C33.1125 8.5 40.5 15.8875 40.5 25C40.5 34.1125 33.1125 41.5 24 41.5C14.8875 41.5 7.5 34.1125 7.5 25C7.5 15.8875 14.8875 8.5 24 8.5ZM27.7125 30.8335C28.2983 31.4193 29.2477 31.4193 29.8335 30.8335C30.4193 30.2477 30.4193 29.2983 29.8335 28.7125C29.7022 28.5813 27.7582 26.6373 26.121 25C27.7582 23.3628 29.7015 21.4195 29.8335 21.2875C30.4193 20.7017 30.4193 19.7522 29.8335 19.1665C29.2477 18.5808 28.2983 18.5808 27.7125 19.1665C27.5813 19.2978 25.6373 21.2418 24 22.879C22.3628 21.2418 20.4187 19.2978 20.2875 19.1665C19.7017 18.5808 18.7522 18.5808 18.1665 19.1665C17.5808 19.7522 17.5808 20.7017 18.1665 21.2875C18.2978 21.4187 20.2418 23.3628 21.879 25C20.2418 26.6373 18.2985 28.5805 18.1665 28.7125C17.5808 29.2983 17.5808 30.2477 18.1665 30.8335C18.7522 31.4193 19.7017 31.4193 20.2875 30.8335C20.4187 30.7022 22.3628 28.7582 24 27.121C25.6373 28.7582 27.5813 30.7022 27.7125 30.8335Z" fill="white"/>
</svg>
