<svg width="48" height="48" viewBox="0 0 48 48" fill="none" xmlns="http://www.w3.org/2000/svg">
<path d="M40.5 24C40.5 14.8875 33.1125 7.5 24 7.5C14.8875 7.5 7.5 14.8875 7.5 24C7.5 33.1125 14.8875 40.5 24 40.5C33.1125 40.5 40.5 33.1125 40.5 24ZM37.5 24C37.5 31.4557 31.4557 37.5 24 37.5C16.5442 37.5 10.5 31.4557 10.5 24C10.5 16.5442 16.5443 10.5 24 10.5C31.4557 10.5 37.5 16.5443 37.5 24ZM32.3584 26.0376C32.363 25.6536 32.2209 25.2685 31.9321 24.9727L25.0679 17.9341C24.7851 17.6446 24.3969 17.4814 23.9927 17.4814C23.5884 17.4814 23.2009 17.6446 22.9189 17.9341L16.0664 24.958C15.7822 25.249 15.6401 25.6274 15.6401 26.0054C15.6401 26.3946 15.7913 26.7851 16.0928 27.0791C16.6853 27.6581 17.6356 27.646 18.2139 27.0527L23.9927 21.1304L29.7861 27.0674C30.3644 27.6606 31.314 27.6705 31.9072 27.0923C32.2039 26.8032 32.3538 26.4216 32.3584 26.0376Z" fill="white"/>
</svg>
