<svg width="48" height="48" viewBox="0 0 48 48" fill="none" xmlns="http://www.w3.org/2000/svg">
<path d="M24 8.5C33.1125 8.5 40.5 15.8875 40.5 25C40.5 34.1125 33.1125 41.5 24 41.5C14.8875 41.5 7.5 34.1125 7.5 25C7.5 15.8875 14.8875 8.5 24 8.5ZM32.0093 20.1145C32.46 19.4193 32.2613 18.49 31.566 18.04C30.8685 17.59 29.9408 17.788 29.4907 18.4833L22.209 29.7228L18.3765 25.366C17.8298 24.7442 16.881 24.6827 16.2593 25.231C15.6375 25.7777 15.5767 26.7257 16.1235 27.3483L21.2648 33.1915C21.5513 33.5163 21.9622 33.7008 22.3912 33.7008C22.428 33.7008 22.4647 33.6993 22.5007 33.697C22.9695 33.6625 23.394 33.4105 23.6497 33.0168L32.0093 20.1145Z" fill="white"/>
</svg>
