<svg width="48" height="48" viewBox="0 0 48 48" fill="none" xmlns="http://www.w3.org/2000/svg">
<path d="M12.0001 10.5C11.6161 10.5 11.2328 10.6462 10.9396 10.9395C10.3538 11.5252 10.3538 12.4748 10.9396 13.0605L21.879 24L10.9396 34.9395C10.3538 35.5252 10.3538 36.4748 10.9396 37.0605C11.2328 37.3538 11.6161 37.5 12.0001 37.5C12.3841 37.5 12.7674 37.3538 13.0607 37.0605L24.0001 26.1211L34.9396 37.0605C35.5253 37.6463 36.4749 37.6463 37.0607 37.0605C37.6464 36.4748 37.6464 35.5252 37.0607 34.9395L26.1212 24L37.0607 13.0605C37.6464 12.4748 37.6464 11.5252 37.0607 10.9395C36.4749 10.3537 35.5253 10.3537 34.9396 10.9395L24.0001 21.8789L13.0607 10.9395C12.7674 10.6462 12.3841 10.5 12.0001 10.5Z" fill="white"/>
</svg>
