<svg width="48" height="48" viewBox="0 0 48 48" fill="none" xmlns="http://www.w3.org/2000/svg">
<path d="M43 24C43 26.7839 41.2883 29.1647 38.8613 30.156C39.8766 32.5731 39.4032 35.4669 37.4355 37.4355C35.4669 39.404 32.5731 39.8766 30.156 38.8613C29.1647 41.2883 26.7839 43 24 43C21.2161 43 18.8353 41.2883 17.844 38.8613C15.4269 39.8766 12.5331 39.4032 10.5645 37.4355C8.59596 35.4669 8.12344 32.5731 9.1387 30.156C6.71165 29.1647 5 26.7839 5 24C5 21.2161 6.71165 18.8353 9.1387 17.844C8.12344 15.4269 8.59678 12.5331 10.5645 10.5645C12.5323 8.59596 15.4269 8.12344 17.844 9.1387C18.8353 6.71165 21.2161 5 24 5C26.7839 5 29.1647 6.71165 30.156 9.1387C32.5731 8.12344 35.4669 8.59678 37.4355 10.5645C39.404 12.5331 39.8766 15.4269 38.8613 17.844C41.2883 18.8353 43 21.2161 43 24ZM32.8218 18.6189C33.3183 17.8531 33.0993 16.8296 32.3336 16.3339C31.5653 15.8383 30.5434 16.0563 30.0478 16.8221L22.0273 29.2019L17.806 24.4031C17.2038 23.7183 16.1588 23.6506 15.474 24.2544C14.7891 24.8567 14.7222 25.9008 15.3244 26.5865L20.9873 33.0225C21.3028 33.3802 21.7555 33.5834 22.228 33.5834C22.2685 33.5834 22.309 33.5818 22.3487 33.5793C22.865 33.5413 23.3325 33.2637 23.6142 32.83L32.8218 18.6189Z" fill="white"/>
</svg>
