<svg width="48" height="48" viewBox="0 0 48 48" fill="none" xmlns="http://www.w3.org/2000/svg">
<path d="M15 7.5C13.3432 7.5 12 8.84325 12 10.5V37.5H11.25C10.422 37.5 9.75 38.172 9.75 39C9.75 39.828 10.422 40.5 11.25 40.5H36.75C37.578 40.5 38.25 39.828 38.25 39C38.25 38.172 37.578 37.5 36.75 37.5H36V10.5C36 8.84325 34.6567 7.5 33 7.5H15ZM29.25 22.5C30.078 22.5 30.75 23.1713 30.75 24C30.75 24.8288 30.078 25.5 29.25 25.5C28.422 25.5 27.75 24.8288 27.75 24C27.75 23.1713 28.422 22.5 29.25 22.5Z" fill="white"/>
</svg>
