<svg width="48" height="48" viewBox="0 0 48 48" fill="none" xmlns="http://www.w3.org/2000/svg">
<path d="M24 7.5C33.1125 7.5 40.5 14.8875 40.5 24C40.5 33.1125 33.1125 40.5 24 40.5C14.8875 40.5 7.5 33.1125 7.5 24C7.5 14.8875 14.8875 7.5 24 7.5ZM18.1545 28.884C17.3842 29.9167 20.1263 33 24 33C27.8738 33 30.6157 29.9167 29.8455 28.884C29.2057 28.026 27.3135 30 24 30C20.6865 30 18.7942 28.026 18.1545 28.884ZM18.375 22.5C19.4108 22.5 20.25 21.4928 20.25 20.25C20.25 19.0072 19.4108 18 18.375 18C17.3392 18 16.5 19.0072 16.5 20.25C16.5 21.4928 17.3392 22.5 18.375 22.5ZM29.625 22.5C30.6607 22.5 31.5 21.4928 31.5 20.25C31.5 19.0072 30.6607 18 29.625 18C28.5893 18 27.75 19.0072 27.75 20.25C27.75 21.4928 28.5893 22.5 29.625 22.5Z" fill="white"/>
</svg>
