<svg width="48" height="48" viewBox="0 0 48 48" fill="none" xmlns="http://www.w3.org/2000/svg">
<path d="M40.7067 34.1252C41.3838 35.3006 41.3838 36.7016 40.7049 37.8752C40.0279 39.0488 38.8143 39.7502 37.4584 39.7502H10.5417C9.18585 39.7502 7.9723 39.0488 7.29522 37.8752C6.6164 36.7016 6.6164 35.3006 7.29348 34.1252L20.7518 10.8145C21.4306 9.64084 22.6442 8.93945 24.0001 8.93945C25.356 8.93945 26.5695 9.64084 27.2483 10.8145L40.7067 34.1252ZM22.724 17.7207C22.4011 18.0384 22.2449 18.4342 22.2588 18.9099L22.4966 27.7954C22.5261 28.7902 23.0296 29.2884 24.0105 29.2884C24.9619 29.2884 25.4445 28.7902 25.4584 27.7954L25.7397 18.9325C25.7536 18.4568 25.5921 18.0558 25.2536 17.7311C24.915 17.4082 24.4931 17.245 23.9897 17.245C23.4706 17.245 23.0487 17.4047 22.724 17.7207ZM24.0001 34.8665C25.1754 34.8665 25.8803 33.9464 25.8803 33.0679C25.8803 32.1895 25.1511 31.2693 24.0001 31.2693C22.849 31.2693 22.1199 32.2415 22.1199 33.0679C22.1199 33.8943 22.8247 34.8665 24.0001 34.8665Z" fill="white"/>
</svg>
