<svg width="48" height="48" viewBox="0 0 48 48" fill="none" xmlns="http://www.w3.org/2000/svg">
<path d="M24 6.75C14.4878 6.75 6.75 14.4885 6.75 24C6.75 33.5115 14.4878 41.25 24 41.25C33.5122 41.25 41.25 33.5115 41.25 24C41.25 14.4885 33.5122 6.75 24 6.75ZM30.8569 15.624C31.8359 15.5502 32.6849 16.575 32.2734 17.5679L28.6611 26.291C28.2156 27.3673 27.3673 28.2156 26.291 28.6611L17.5679 32.2734C16.4331 32.7429 15.2563 31.5669 15.7266 30.4321L19.3389 21.709C19.7844 20.6327 20.6342 19.7844 21.7104 19.3389L30.4321 15.7266C30.574 15.6679 30.7171 15.6346 30.8569 15.624ZM24 22.125C22.9643 22.125 22.125 22.9643 22.125 24C22.125 25.0357 22.9643 25.875 24 25.875C25.0357 25.875 25.875 25.0357 25.875 24C25.875 22.9643 25.0357 22.125 24 22.125Z" fill="white"/>
</svg>
