<svg width="48" height="48" viewBox="0 0 48 48" fill="none" xmlns="http://www.w3.org/2000/svg">
<path d="M39.75 9C41.4 9 42.75 10.35 42.75 12V36C42.75 37.65 41.4 39 39.75 39H8.25C6.6 39 5.25 37.65 5.25 36V12C5.25 10.35 6.6 9 8.25 9H39.75Z" fill="white"/>
<path d="M29.8684 30.5005V17.7925H32.6944V30.5005H29.8684ZM32.0284 25.5145V23.0845H38.3824V25.5145H32.0284ZM32.0284 20.2225V17.7925H38.6704V20.2225H32.0284Z" fill="#141414"/>
<path d="M24.595 30.5005V17.7925H27.421V30.5005H24.595Z" fill="#141414"/>
<path d="M16.4562 30.6982C15.5322 30.6982 14.6622 30.5302 13.8462 30.1942C13.0422 29.8582 12.3402 29.3962 11.7402 28.8082C11.1402 28.2082 10.6662 27.5122 10.3182 26.7202C9.98221 25.9162 9.81421 25.0522 9.81421 24.1282C9.81421 23.2042 9.98821 22.3462 10.3362 21.5542C10.6842 20.7622 11.1642 20.0722 11.7762 19.4842C12.4002 18.8842 13.1262 18.4222 13.9542 18.0982C14.7822 17.7622 15.6702 17.5942 16.6182 17.5942C17.7102 17.5942 18.7002 17.7922 19.5882 18.1882C20.4882 18.5842 21.2322 19.1302 21.8202 19.8262L19.8942 21.7522C19.4862 21.2242 19.0062 20.8282 18.4542 20.5642C17.9022 20.3002 17.2782 20.1682 16.5822 20.1682C15.8382 20.1682 15.1722 20.3362 14.5842 20.6722C13.9962 20.9962 13.5342 21.4582 13.1982 22.0582C12.8742 22.6462 12.7122 23.3362 12.7122 24.1282C12.7122 24.9202 12.8742 25.6162 13.1982 26.2162C13.5222 26.8162 13.9662 27.2842 14.5302 27.6202C15.0942 27.9562 15.7422 28.1242 16.4742 28.1242C17.2182 28.1242 17.8482 27.9862 18.3642 27.7102C18.8922 27.4222 19.2942 27.0142 19.5702 26.4862C19.8582 25.9462 20.0022 25.2922 20.0022 24.5242L21.8742 25.7842L16.2042 25.6942V23.3002H22.8822V23.7142C22.8822 25.2382 22.6062 26.5222 22.0542 27.5662C21.5142 28.5982 20.7582 29.3782 19.7862 29.9062C18.8262 30.4342 17.7162 30.6982 16.4562 30.6982Z" fill="#141414"/>
</svg>
