<svg width="48" height="48" viewBox="0 0 48 48" fill="none" xmlns="http://www.w3.org/2000/svg">
<path d="M31.8751 10.5C28.3598 10.5 25.5001 13.5285 25.5001 17.25C25.5001 20.9715 28.3598 24 31.8751 24C35.3903 24 38.2501 20.9715 38.2501 17.25C38.2501 13.5285 35.3903 10.5 31.8751 10.5ZM16.1251 12.75C12.6098 12.75 9.7501 15.7785 9.7501 19.5C9.7501 23.2215 12.6098 26.25 16.1251 26.25C19.6403 26.25 22.5001 23.2215 22.5001 19.5C22.5001 15.7785 19.6403 12.75 16.1251 12.75ZM31.8751 13.5C33.7358 13.5 35.2501 15.1823 35.2501 17.25C35.2501 19.3177 33.7358 21 31.8751 21C30.0143 21 28.5001 19.3177 28.5001 17.25C28.5001 15.1823 30.0143 13.5 31.8751 13.5ZM31.8736 25.6025C28.1844 25.6025 24.808 26.961 22.5411 29.2222C20.753 28.3474 18.6867 27.8525 16.5001 27.8525C11.2171 27.8525 6.6098 30.7068 5.0333 34.9556C4.3058 36.9153 5.7842 39 7.8707 39H25.1295C26.5734 39 27.7178 38.0061 28.0533 36.75H40.0738C42.3283 36.75 44.3412 34.3832 43.1734 31.96C41.3134 28.0975 36.8769 25.6025 31.8736 25.6025ZM31.8751 28.6025C35.6738 28.6025 39.129 30.4752 40.4708 33.2622C40.59 33.5157 40.3064 33.75 40.0724 33.75H27.4088C26.833 32.6891 26.0602 31.7381 25.128 30.9258C26.8388 29.4799 29.2763 28.6025 31.8751 28.6025Z" fill="white"/>
</svg>
