<svg width="48" height="48" viewBox="0 0 48 48" fill="none" xmlns="http://www.w3.org/2000/svg">
<path d="M32.625 7.5C36.1268 7.5 42.75 9.85125 42.75 18.75C42.75 24.9653 38.5935 29.2725 35.559 32.418C31.539 36.6022 25.905 40.5825 25.6838 40.7325C25.176 41.0775 24.588 41.25 24 41.25C23.412 41.25 22.824 41.0775 22.3162 40.7325C22.095 40.5825 16.4602 36.6007 12.441 32.418C9.4065 29.2725 5.25 24.9653 5.25 18.75C5.25 9.85125 11.8733 7.5 15.375 7.5C19.0515 7.5 21.9608 9.42075 23.9993 11.4255C26.031 9.426 28.944 7.5 32.625 7.5Z" fill="white"/>
</svg>
