<svg width="48" height="48" viewBox="0 0 48 48" fill="none" xmlns="http://www.w3.org/2000/svg">
<path d="M23.9999 6C23.3165 6 22.6334 6.23189 22.0766 6.69727L6.60049 19.6289C6.02674 20.1082 5.82251 20.9439 6.20351 21.5874C6.68876 22.4064 7.76259 22.5664 8.46084 21.9829L8.9999 21.5332V35.25C8.9999 37.3207 10.6791 39 12.7499 39H35.2499C37.3206 39 38.9999 37.3207 38.9999 35.25V21.5347L39.539 21.9844C39.8195 22.2191 40.1594 22.333 40.4984 22.333C41.0197 22.333 41.5369 22.0625 41.8226 21.542C42.1714 20.906 41.9661 20.1027 41.4096 19.6377L38.9999 17.6235V11.25C38.9999 10.4212 38.3286 9.75 37.4999 9.75H35.9999C35.1711 9.75 34.4999 10.4212 34.4999 11.25V13.8633L25.9232 6.69727C25.3664 6.23189 24.6833 6 23.9999 6ZM23.9999 9.11426C24.086 9.11426 24.1715 9.14365 24.2416 9.20215L35.9999 19.0269V34.5C35.9999 35.3288 35.3286 36 34.4999 36H28.4999V25.5C28.4999 24.6712 27.8286 24 26.9999 24H20.9999C20.1711 24 19.4999 24.6712 19.4999 25.5V36H13.4999C12.6711 36 11.9999 35.3288 11.9999 34.5V19.0254L23.7582 9.20215C23.8283 9.14365 23.9138 9.11426 23.9999 9.11426Z" fill="white"/>
</svg>
