<svg width="48" height="48" viewBox="0 0 48 48" fill="none" xmlns="http://www.w3.org/2000/svg">
<path d="M34.4904 15.0074C39.4494 15.0074 43.4941 19.0409 43.4941 23.9999C43.4941 28.9589 39.4591 32.9939 34.5001 32.9939C29.4181 32.9939 26.0739 28.9041 22.8391 24.9494C19.9186 21.3786 17.1609 18.0059 13.5001 18.0059C10.1949 18.0059 7.5061 20.6946 7.5061 23.9999C7.5061 27.3051 10.1949 29.9931 13.5001 29.9931C16.2076 29.9931 18.4201 28.1474 20.5726 25.7324C20.7451 25.9424 20.9251 26.1524 21.0976 26.3699C21.5551 26.9324 22.0276 27.5024 22.5076 28.0724C20.0221 30.7971 17.2201 32.9849 13.5099 32.9924C8.55085 32.9924 4.5061 28.9589 4.5061 23.9999C4.5061 19.0409 8.5411 15.0059 13.5001 15.0059C18.5821 15.0059 21.9264 19.0956 25.1611 23.0504C28.0816 26.6211 30.8394 29.9939 34.5001 29.9939C37.8054 29.9939 40.4941 27.3051 40.4941 23.9999C40.4941 20.6946 37.8054 18.0066 34.5001 18.0066C31.7926 18.0066 29.5801 19.8524 27.4276 22.2674C27.2551 22.0574 27.0751 21.8474 26.9026 21.6299C26.4451 21.0674 25.9726 20.4974 25.4926 19.9274C27.9781 17.2026 30.7801 15.0149 34.4904 15.0074Z" fill="white"/>
</svg>
