<svg width="48" height="48" viewBox="0 0 48 48" fill="none" xmlns="http://www.w3.org/2000/svg">
<path d="M37.875 9.75C36.0142 9.75 34.5 11.2643 34.5 13.125V34.875C34.5 36.7358 36.0142 38.25 37.875 38.25C39.7357 38.25 41.25 36.7358 41.25 34.875V13.125C41.25 11.2643 39.7357 9.75 37.875 9.75ZM32.2646 12.7646L15.8555 17.2954C15.113 17.4979 14.4448 17.8571 13.8823 18.3296C14.1223 18.9221 14.25 19.575 14.25 20.25V27.75C14.25 28.0769 14.2187 28.3974 14.1606 28.7095C14.1264 28.8945 14.0804 29.0763 14.0273 29.2544C14.0042 29.3304 13.9763 29.4042 13.9497 29.4785C13.9032 29.6114 13.8577 29.7448 13.8003 29.8726L14.4448 32.4668C14.9473 34.4693 16.4102 36.0521 18.3677 36.7046L19.8604 37.1997C20.4979 37.4097 21.1418 37.5146 21.7793 37.5146C23.5193 37.5146 25.2001 36.7506 26.3701 35.3481L27.5508 33.9331L32.2646 35.2354C32.2571 35.1154 32.25 34.995 32.25 34.875V13.125C32.25 13.005 32.2571 12.8846 32.2646 12.7646ZM9 17.25C7.3455 17.25 6 18.5955 6 20.25V27.75C6 29.4045 7.3455 30.75 9 30.75C10.6545 30.75 12 29.4045 12 27.75V20.25C12 18.5955 10.6545 17.25 9 17.25ZM17.1885 31.0723L24.3765 33.0571L24.0674 33.4277C23.2649 34.3877 21.99 34.7479 20.8125 34.3579L19.3198 33.8555C18.3373 33.533 17.603 32.7377 17.3555 31.7402L17.1885 31.0723Z" fill="white"/>
</svg>
