<svg width="48" height="48" viewBox="0 0 48 48" fill="none" xmlns="http://www.w3.org/2000/svg">
<path d="M11.5087 9.05225C9.8125 9.05225 8.38889 9.35259 7.23611 9.95155C6.08507 10.5522 5.21528 11.429 4.62847 12.58C4.0434 13.7328 3.75 15.1443 3.75 16.8127V22.1043C3.75 23.7727 4.0434 25.1825 4.63021 26.3352C5.21701 27.4863 6.08507 28.363 7.23611 28.9637C8.38889 29.5627 9.6632 29.8647 11.3594 29.8647V33.9811C11.3594 34.6981 11.5347 35.2675 11.8872 35.6877C12.2396 36.1095 12.7396 36.3196 13.3872 36.3196C13.842 36.3196 14.2552 36.1981 14.6285 35.9585C15 35.7154 15.4705 35.3404 16.0365 34.83L21.5799 29.8647H26.0556C27.7517 29.8647 29.1753 29.5627 30.3281 28.9637C31.4809 28.363 32.3472 27.4863 32.934 26.3352C33.5191 25.1825 33.8142 23.7727 33.8142 22.1043V16.8127C33.8142 15.1425 33.5208 13.7328 32.934 12.58C32.3472 11.429 31.4809 10.5522 30.3281 9.95155C29.1753 9.35259 27.7517 9.05225 26.0556 9.05225H11.5087ZM35.9549 15.0522C36.0295 15.6147 36.0677 16.1998 36.0677 16.8144V22.1026C36.0677 24.12 35.684 25.8908 34.9427 27.3526C34.1406 28.929 32.941 30.1425 31.3646 30.9602C29.8958 31.7241 28.1094 32.1147 26.0556 32.1147H22.4392L18.7049 35.4516C19.5972 35.7293 20.6094 35.8647 21.75 35.8647H26.2205L31.7691 40.83C32.3316 41.3404 32.8056 41.7154 33.1736 41.955C33.5486 42.1946 33.9601 42.3144 34.4184 42.3144C35.0625 42.3144 35.566 42.1061 35.9184 41.6859C36.2708 41.2658 36.4427 40.6963 36.4427 39.9828V35.8647C38.1441 35.8647 39.4132 35.5644 40.5677 34.9637C41.7222 34.3647 42.5851 33.488 43.1771 32.3318C43.7622 31.1842 44.0556 29.7762 44.0556 28.1026V22.8144C44.0556 21.1425 43.7622 19.7328 43.1771 18.5766C42.5851 17.429 41.7222 16.5522 40.5677 15.9516C39.4132 15.3526 37.9948 15.0522 36.2934 15.0522H35.9549Z" fill="white"/>
</svg>
