<svg width="48" height="48" viewBox="0 0 48 48" fill="none" xmlns="http://www.w3.org/2000/svg">
<path d="M24 5.25C20.2778 5.25 17.25 8.2785 17.25 12V21.75C17.25 25.4715 20.2778 28.5 24 28.5C27.7222 28.5 30.75 25.4715 30.75 21.75V12C30.75 8.2785 27.7222 5.25 24 5.25ZM13.5 22.125C12.672 22.125 12 22.797 12 23.625C12 29.1598 16.5905 33.7337 22.5 34.4062V39H17.25C16.422 39 15.75 39.672 15.75 40.5C15.75 41.328 16.422 42 17.25 42H30.75C31.578 42 32.25 41.328 32.25 40.5C32.25 39.672 31.578 39 30.75 39H25.5V34.4062C31.4095 33.7337 36 29.1598 36 23.625C36 22.797 35.328 22.125 34.5 22.125C33.672 22.125 33 22.797 33 23.625C33 27.9675 28.9627 31.5 24 31.5C19.0373 31.5 15 27.9675 15 23.625C15 22.797 14.328 22.125 13.5 22.125Z" fill="white"/>
</svg>
