<svg width="48" height="48" viewBox="0 0 48 48" fill="none" xmlns="http://www.w3.org/2000/svg">
<path d="M10.5 10.25C8.8455 10.25 7.5 11.5955 7.5 13.25V29.75C7.5 31.4045 8.8455 32.75 10.5 32.75H37.5C39.1545 32.75 40.5 31.4045 40.5 29.75V13.25C40.5 11.5955 39.1545 10.25 37.5 10.25H10.5ZM19.5 35V37.25H18.75C17.922 37.25 17.25 37.922 17.25 38.75C17.25 39.578 17.922 40.25 18.75 40.25H29.25C30.078 40.25 30.75 39.578 30.75 38.75C30.75 37.922 30.078 37.25 29.25 37.25H28.5V35H19.5Z" fill="white"/>
</svg>
