<svg width="48" height="48" viewBox="0 0 48 48" fill="none" xmlns="http://www.w3.org/2000/svg">
<path d="M39.75 9C41.4 9 42.75 10.35 42.75 12V36C42.75 37.65 41.4 39 39.75 39H8.25C6.6 39 5.25 37.65 5.25 36V12C5.25 10.35 6.6 9 8.25 9H39.75ZM17.25 15C15.5933 15 14.25 16.3432 14.25 18C14.25 19.6567 15.5933 21 17.25 21C18.9067 21 20.25 19.6567 20.25 18C20.25 16.3432 18.9067 15 17.25 15ZM9 36H13.2457L20.0925 29.6768L18.3787 28.2113C16.9717 27.0075 14.8965 27.0112 13.4932 28.2202L8.25 32.7375V35.25C8.25 35.664 8.586 36 9 36ZM39.75 35.25V31.4002L33.168 25.3507C31.7302 24.03 29.52 24.0322 28.086 25.3567L16.5623 36H39C39.414 36 39.75 35.664 39.75 35.25Z" fill="white"/>
</svg>
