<svg width="48" height="48" viewBox="0 0 48 48" fill="none" xmlns="http://www.w3.org/2000/svg">
<path d="M24.9126 21.8741L29.5399 17.2468L12.2512 7.42567C11.4585 6.9721 10.7288 6.89694 10.1631 7.12464L24.9126 21.8741Z" fill="white"/>
<path d="M9.01503 9.0885C9.011 9.16257 9 9.22967 9 9.30703V37.68C9 37.7156 9.00257 37.7486 9.00367 37.7834L23.3568 23.4303L9.01503 9.0885Z" fill="white"/>
<path d="M24.9126 24.986L10.0608 39.8379C10.6394 40.1125 11.4105 40.0465 12.2512 39.5768L29.6224 29.6959L24.9126 24.986Z" fill="white"/>
<path d="M37.2758 21.6398L31.5261 18.3725L26.4683 23.4303L31.6068 28.5687L37.2758 25.3472C39.0721 24.3205 39.0721 22.6522 37.2758 21.6398Z" fill="white"/>
</svg>
