<svg width="48" height="48" viewBox="0 0 48 48" fill="none" xmlns="http://www.w3.org/2000/svg">
<path d="M28.1602 11.281C27.7762 11.2748 27.39 11.4148 27.0923 11.7028C26.4975 12.2788 26.4818 13.2292 27.0586 13.8239L35.4595 22.5002H9C8.172 22.5002 7.5 23.1722 7.5 24.0002C7.5 24.8282 8.172 25.5002 9 25.5002H35.4595L27.0586 34.1765C26.4826 34.7712 26.4975 35.7208 27.0923 36.2976C27.384 36.5796 27.761 36.7209 28.1367 36.7209C28.5282 36.7209 28.9201 36.5684 29.2134 36.2639L40.0767 25.0432C40.6399 24.4619 40.6399 23.5385 40.0767 22.9572L29.2134 11.7365C28.9261 11.4388 28.5442 11.2871 28.1602 11.281Z" fill="white"/>
</svg>
