<svg width="48" height="48" viewBox="0 0 48 48" fill="none" xmlns="http://www.w3.org/2000/svg">
<path d="M34.7063 39H31.4475V36H34.7063C35.4203 36 36 35.4202 36 34.707V31.4482H39V34.707C39 37.074 37.074 39 34.7063 39ZM39 16.5518H36V13.293C36 12.5798 35.4203 12 34.7063 12H31.4475V9H34.7063C37.074 9 39 10.926 39 13.293V16.5518ZM16.5518 39H13.293C10.926 39 9 37.074 9 34.707V31.4482H12V34.707C12 35.4202 12.5798 36 13.2938 36H16.5525L16.5518 39ZM12 16.5518H9V13.293C9 10.926 10.926 9 13.2938 9H16.5525V12H13.2938C12.5798 12 12 12.5798 12 13.293V16.5518Z" fill="white"/>
</svg>
