<svg width="48" height="48" viewBox="0 0 48 48" fill="none" xmlns="http://www.w3.org/2000/svg">
<path d="M20.25 6.75C12.8063 6.75 6.75 12.8063 6.75 20.25C6.75 27.6938 12.8063 33.75 20.25 33.75C23.3469 33.75 26.1947 32.6905 28.4751 30.9302L38.2866 40.7417C38.9646 41.4197 40.0637 41.4197 40.7417 40.7417C41.4197 40.0637 41.4197 38.9646 40.7417 38.2866L30.9302 28.4751C32.6905 26.1947 33.75 23.3469 33.75 20.25C33.75 12.8063 27.6938 6.75 20.25 6.75ZM20.25 9.75C26.0393 9.75 30.75 14.4608 30.75 20.25C30.75 26.0393 26.0393 30.75 20.25 30.75C14.4608 30.75 9.75 26.0393 9.75 20.25C9.75 14.4608 14.4608 9.75 20.25 9.75Z" fill="white"/>
</svg>
