<svg width="48" height="48" viewBox="0 0 48 48" fill="none" xmlns="http://www.w3.org/2000/svg">
<path d="M42.75 23.9999C42.75 24.5849 42.4125 25.1174 41.88 25.3574L11.13 39.6074C10.9275 39.7049 10.7175 39.7499 10.5 39.7499C10.2203 39.7499 9.948 39.6704 9.70425 39.5264C9.25275 39.2586 9 38.7464 9 38.2214V29.2574C9 28.5426 9.50475 27.9269 10.206 27.7866L25.4625 24.7349C26.265 24.5774 26.265 23.4224 25.4625 23.2649L10.206 20.2139C9.50475 20.0736 9 19.4579 9 18.7424V9.7499C9 9.2399 9.2625 8.7599 9.69 8.4824C10.125 8.2124 10.665 8.1749 11.13 8.3924L41.88 22.6424C42.4125 22.8824 42.75 23.4149 42.75 23.9999Z" fill="white"/>
</svg>
