<svg width="48" height="48" viewBox="0 0 48 48" fill="none" xmlns="http://www.w3.org/2000/svg">
<path d="M24.0001 7.5C23.6236 7.5 23.2477 7.64025 22.9571 7.92188L11.7364 18.7866C11.1416 19.3626 11.1259 20.313 11.7027 20.9077C12.2772 21.504 13.2283 21.5196 13.8238 20.9429L22.5001 12.5405V39C22.5001 39.828 23.1721 40.5 24.0001 40.5C24.8281 40.5 25.5001 39.828 25.5001 39V12.5405L34.1763 20.9429C34.4681 21.2249 34.845 21.3647 35.2208 21.3647C35.6123 21.3647 36.0034 21.2115 36.2974 20.9077C36.8734 20.313 36.8585 19.3634 36.2637 18.7866L25.0445 7.92188C24.7539 7.64025 24.3766 7.5 24.0001 7.5Z" fill="white"/>
</svg>
