<svg width="48" height="48" viewBox="0 0 48 48" fill="none" xmlns="http://www.w3.org/2000/svg">
<path d="M35.25 15C37.7309 15 39.75 17.0191 39.75 19.5V34.5C39.75 36.9809 37.7309 39 35.25 39H12.75C10.2691 39 8.25 36.9809 8.25 34.5V13.5C8.25 11.0191 10.2691 9 12.75 9H34.5C35.3281 9 36 9.67188 36 10.5C36 11.3281 35.3281 12 34.5 12H12.75C11.9236 12 11.25 12.6736 11.25 13.5C11.25 14.3264 11.9236 15 12.75 15H35.25ZM31.5 29.25C32.7431 29.25 33.75 28.2431 33.75 27C33.75 25.7569 32.7431 24.75 31.5 24.75C30.2569 24.75 29.25 25.7569 29.25 27C29.25 28.2431 30.2569 29.25 31.5 29.25Z" fill="white"/>
</svg>
