<svg width="48" height="48" viewBox="0 0 48 48" fill="none" xmlns="http://www.w3.org/2000/svg">
<path d="M24 42C22.0688 42 20.5133 40.5833 18.18 38.25L9.75 29.82C7.41675 27.4867 6 25.9312 6 24C6 22.0688 7.41675 20.5133 9.75 18.18L18.18 9.75C20.5125 7.41675 22.0688 6 24 6C25.9312 6 27.4867 7.41675 29.82 9.75L38.25 18.18C40.5833 20.5133 42 22.0688 42 24C42 25.9312 40.5833 27.4867 38.25 29.82L29.82 38.25C27.4867 40.5833 25.9312 42 24 42ZM22.266 31.9417C22.266 32.904 23.031 33.6427 23.9932 33.6427C24.9817 33.6427 25.7332 32.9048 25.7332 31.9417C25.7332 30.9788 24.9817 30.2407 23.9932 30.2407C23.031 30.2407 22.266 30.9795 22.266 31.9417ZM22.7145 25.9958C22.7407 26.826 23.1892 27.3405 23.9932 27.3405C24.8107 27.3405 25.2593 26.826 25.2855 25.9958L25.4437 15.765C25.4437 15.7125 25.4437 15.6592 25.4437 15.6202C25.4437 14.7367 24.8505 14.1698 24.0067 14.1698C23.1495 14.1698 22.5563 14.7367 22.5563 15.6202C22.5563 15.66 22.5563 15.7125 22.5563 15.765L22.7145 25.9958Z" fill="white"/>
</svg>
