<svg id="Layer_1" data-name="Layer 1" xmlns="http://www.w3.org/2000/svg" xmlns:xlink="http://www.w3.org/1999/xlink" viewBox="0 0 411.36 380.01"><defs><radialGradient id="radial-gradient" cx="193.67" cy="91.1" r="16.54" gradientUnits="userSpaceOnUse"><stop offset="0.85" stop-color="#dc4a51"/><stop offset="1" stop-color="#e06637"/></radialGradient></defs><path d="M199.78,78.45" transform="translate(1.02 -72.71)" style="fill:#dc4a51"/><path d="M194,130.15a5.69,5.69,0,0,1-1.08-.7,10.2,10.2,0,0,1-2.25-2.8c-8.65-14.32-6.77-32.6,3.46-45.58a2.46,2.46,0,0,1,1.08-.92,2.22,2.22,0,0,1,1.74.33,10.77,10.77,0,0,1,4.87,6.77,32.36,32.36,0,0,1,.75,8.51q0,17.4-.07,34.79C199.66,131,196.48,131.41,194,130.15Z" transform="translate(1.02 -72.71)" style="fill:#b23838"/><path d="M195.72,127a2.62,2.62,0,0,1-.22-.48,3.91,3.91,0,0,1-.13-1.23c0-10.48,1.3-21.93,6.27-31.31,4.73-8.91,14.43-17.73,24-21.22,2-.73,3.3,10.42,3.29,11.32a47.16,47.16,0,0,1-4.09,17.78,101.18,101.18,0,0,1-8.55,15.32c-2.79,4.27-5.64,8.66-10.55,10.74C203.62,128.81,197.31,129.69,195.72,127Z" transform="translate(1.02 -72.71)" style="fill:#c43939"/><path d="M199.21,129.51a2.83,2.83,0,0,1-.08-.52,4,4,0,0,1,.2-1.22c2.78-10.07,7.08-20.72,14.35-28.42,6.92-7.31,18.58-13.2,28.71-14,2.12-.17.39,10.89.15,11.75a46.81,46.81,0,0,1-8.66,16,101.78,101.78,0,0,1-12.29,12.45c-3.81,3.37-7.73,6.83-13,7.52C206.32,133.36,200,132.53,199.21,129.51Z" transform="translate(1.02 -72.71)" style="fill:#ce3e3e"/><path d="M201.81,126.81a1.58,1.58,0,0,1,.05-.38,2.64,2.64,0,0,1,.39-.81c4.05-6.46,9.28-13,16-16.87,6.36-3.67,15.75-5.36,23-3.81,1.51.32-2,7.7-2.35,8.25a34.26,34.26,0,0,1-9.4,9.38,75.49,75.49,0,0,1-11.19,6.14c-3.37,1.55-6.83,3.16-10.66,2.54C206,131,201.75,129.09,201.81,126.81Z" transform="translate(1.02 -72.71)" style="fill:#db4544"/><path d="M339.42,324.78c4,2.64,7,5.4,6.93,7.9-.08,6.61-16.14,16.3-21.1,19a60.76,60.76,0,0,1-89.41-53.55c0-9.87.42-12,10.35-12.61,9.44-.6,19.15-.39,28.13,2.88a87.13,87.13,0,0,1,14.51,7.44L320,314.34C323.48,316.4,332.85,320.44,339.42,324.78Z" transform="translate(1.02 -72.71)" style="fill:#fff"/><path d="M238.34,416s-5.21-11-16.68-11.16-11.94,5.75-11.94,5.75,12.21-1.35,19.94,5.94" transform="translate(1.02 -72.71)" style="fill:#dd5735"/><path d="M292.06,415.78s-5.21-11-16.68-11.16-11.95,5.74-11.95,5.74,12.22-1.34,19.95,5.95" transform="translate(1.02 -72.71)" style="fill:#dd5735"/><path d="M313.93,174.44" transform="translate(1.02 -72.71)" style="fill:#dc4a51"/><path d="M306.46,266.55a4.09,4.09,0,0,1-.36-.83,6.56,6.56,0,0,1-.2-2.12c.3-18,2.86-37.62,11.67-53.58,8.37-15.18,25.27-30.05,41.8-35.78,3.46-1.19,5.37,18,5.33,19.53-.3,10.53-3.24,20.86-7.53,30.43a174.4,174.4,0,0,1-15.11,26.06c-4.9,7.26-9.94,14.72-18.42,18.15C320,269.9,309.11,271.23,306.46,266.55Z" transform="translate(1.02 -72.71)" style="fill:#d73e3d"/><path d="M313.22,264.23a1.58,1.58,0,0,1-.15-1c3.9-22,17.07-41,35.5-53.39,10.89-7.3,24.55-15.91,38.08-17.08,1.26-.11,2.91,9,3,9.81,1.34,9.46-1.15,19.06-5.47,27.46A77.46,77.46,0,0,1,330.94,270C325.46,271,316.05,270.47,313.22,264.23Z" transform="translate(1.02 -72.71)" style="fill:#db4544"/><path d="M318.23,270.87a1.43,1.43,0,0,1,.17-.88c10.42-18,28-30.53,48.1-35.48,11.86-2.93,26.57-6.13,38.8-2.85,1.14.3-.33,8.85-.48,9.55-1.84,8.73-7.07,16.34-13.53,22.32a72.17,72.17,0,0,1-59.36,18C326.78,280.73,318.72,277.24,318.23,270.87Z" transform="translate(1.02 -72.71)" style="fill:#dd4f52"/><path d="M248.41,377s-2.62,36.82-11.32,36.7-25.26-5.6-32.41,3.57a11,11,0,0,0-1.31,11.92s10.84-9.06,31.22-4.89a8.81,8.81,0,0,0,11.91,2.27c7.51-4.17,9.66-28.72,9.66-28.72l1.78-21.93" transform="translate(1.02 -72.71)" style="fill:#e78d3c"/><path d="M233,354.64,240,374s1.48,4.63,8.07,4.82l9.66.3s5.71-.4,6.3-9.06-.2-9.56-.2-9.56" transform="translate(1.02 -72.71)" style="fill:#c43532"/><path d="M302.27,376.25S299.65,413.07,291,413s-25.26-5.6-32.41,3.57a11,11,0,0,0-1.31,11.92s10.84-9.06,31.22-4.89a8.81,8.81,0,0,0,11.91,2.27c7.51-4.17,9.66-28.72,9.66-28.72l1.78-21.93" transform="translate(1.02 -72.71)" style="fill:#e78d3c"/><path d="M150.44,151.56A38.8,38.8,0,0,1,167.55,129c15.15-9.32,36.11-11.37,52.39-4,22.16,10.08,35.82,36.08,31.55,60-2.63,14.73-11.22,29.27-7.33,43.72a10.57,10.57,0,0,0,3.08,5.53c3,2.48,7.34,1.86,11.19,1.4,25.74-3.08,52.73,8,68.86,28.31,5.58,7,9.88,15,15.31,22.1s12.33,13.63,20.95,16.11c-3.06,5.31-12.07,5.45-15.28.23a21.65,21.65,0,0,0,16.34,8.93c.92,2.43-1.92,4.95-4.5,4.72s-4.65-2.19-6.38-4.13a17.17,17.17,0,0,0,16.34,8.86c-.19,7-7.21,11.85-13.84,14.23-11.06,4-23.05,4.65-34.8,4.18-16.78-.66-33.78-3.69-48.5-11.75s-27-21.71-30.55-38.11c-.68,20.93,16.12,39.27,35.59,46.94s41.14,6.9,62,5.5c-14.94,18.23-40.92,22.85-64.48,22.44-30.55-.52-63.21-8.74-82.77-32.21-12.82-15.37-18.56-36-17.71-55.95s7.94-39.41,18.31-56.52c.8-1.32,2.67-4.06,1.86-5.72s-2.58-1.14-4.18-1.27a51.66,51.66,0,0,1-31.71-14.73,36.35,36.35,0,0,1-9.61-15.52c-1.33-4.7-1.42-9.64-1.45-14.52A55.61,55.61,0,0,1,150.44,151.56Z" transform="translate(1.02 -72.71)" style="fill:#dc4c4c"/><path d="M314.54,351.53a2.85,2.85,0,0,1,2.56,1c.93,1.2,1.27,3.53,1.66,5a62.09,62.09,0,0,1,1.69,8.22c.17,1.3.47,3.07-.24,4.28-.8,7.27-5.79,8.62-5.79,8.62l-14.94-.27c-5.68-3.58-9-10.35-11.47-16.35a84.13,84.13,0,0,1-3-8.61c-.32-1.07-.9-2.12-.7-3.25a88.94,88.94,0,0,0,27.71,1.63C312.88,351.72,313.74,351.55,314.54,351.53Z" transform="translate(1.02 -72.71)" style="fill:#db4544"/><path d="M146.26,157.23c-.18.27-.38.54-.58.8a40.72,40.72,0,0,1-6.82,6.56c-5.57,4.37-11.85,7-18.56,9.14-4.52,1.41-8.4,5.14-11.16,9-5.83,8-8.27,18.49-8.57,28.28a43,43,0,0,0,1.22,11.8c1,4.06,1.27,5.16,5.35,2.83.74-.43,1.53-.79,2.31-1.16,12.67-6,26.08-10.74,39.22-15.58,3.7-1.36,7.26-3.09,11-4.34,4.54-1.52,9.32-1.21,13.79-2.82a23.2,23.2,0,0,0,10.74-8.07,15.68,15.68,0,0,0,3-6.66c.55-3.37-.44-6.79-1.64-10-5.17-13.71-13.74-26.12-29.59-27.7-1.88-.19-4-.14-5.36,1.15C148.62,152.28,147.74,155,146.26,157.23Z" transform="translate(1.02 -72.71)" style="fill:#eba040"/><path d="M103.7,226.18a110,110,0,0,0,17-13.8c16.78-16.32,36.07-3.4,57.22-38.72" transform="translate(1.02 -72.71)" style="fill:none;stroke:#e5833b;stroke-miterlimit:10"/><ellipse cx="196.22" cy="93.07" rx="32.98" ry="35.99" style="fill:#fff;stroke:#fff;stroke-miterlimit:10;stroke-width:0.6891111324386757px"/><ellipse cx="193.67" cy="91.1" rx="16.6" ry="16.49" style="fill:url(#radial-gradient)"/><ellipse cx="193.89" cy="89.77" rx="10.34" ry="14.07" style="fill:#24212c"/><path d="M183.68,158a3.89,3.89,0,0,1,.06-1.66c1.15-5.53,6.43-10.16,12.53-7.94a12.65,12.65,0,0,1,7.22,7.72c-3.52,1.24-7.41.4-11.15.09a1.42,1.42,0,0,0-.82.1,1.54,1.54,0,0,0-.55,1,4.39,4.39,0,0,1-4.62,2.79,3.1,3.1,0,0,1-2.64-2Z" transform="translate(1.02 -72.71)" style="fill:#fff"/><path d="M1.53,421.39c7.49-1.43,14.81.51,22.31.85,29.71,1.34,60.25-9.84,88.68-1.11" transform="translate(1.02 -72.71)" style="fill:none;stroke:#fff;stroke-miterlimit:10;stroke-width:1.5px"/><path d="M141.11,420.72a296.69,296.69,0,0,0,45.79-1.38,60.42,60.42,0,0,0,13.29-2.56c3.83-1.32,7.45-3.35,11.43-4.1,6.75-1.27,13.66,1.26,19.6,4.69s11.36,7.79,17.58,10.71c8.64,4.05,18.34,5.1,27.83,6.09,20.71,2.16,41.68,5.81,62.42,5.19q34.17-1,68.34,1.16" transform="translate(1.02 -72.71)" style="fill:none;stroke:#fff;stroke-miterlimit:10;stroke-width:1.5px"/><path d="M-.59,446.5c7.41-5.2,16.44-3.2,24.85-4.41,12.25-1.76,24.43-4.84,37-4.15,9.3.51,18.21,3.08,27.37,4.45a106.79,106.79,0,0,0,29,.35c16.78-2.11,33.54-8.22,50.11-5.23,5.41,1,10.47,2.9,15.78,4.2,16.54,4.07,35,3.58,52.13,4.15" transform="translate(1.02 -72.71)" style="fill:none;stroke:#fff;stroke-miterlimit:10;stroke-width:1.5px"/><path d="M255,448.64c9.4-.06,19.59-.76,28.89.17,6,.6,11.87,2.33,18,2.09,5.25-.2,10.22-.9,15.56-.9a145.12,145.12,0,0,1,18.46,1.18,50.31,50.31,0,0,0,10,.74c4.06-.29,7.72-1.69,11.71-2.25,6.28-.89,12.73.38,19.06,1.09,11,1.25,22.38.82,33.58.39" transform="translate(1.02 -72.71)" style="fill:none;stroke:#fff;stroke-miterlimit:10;stroke-width:1.5px"/><path d="M117.06,426.07a3.09,3.09,0,0,1-1.26-.21,3.94,3.94,0,0,1-1.81-1.35,2.87,2.87,0,0,1-.55-1.15,3.07,3.07,0,0,1,1.25.21,3.81,3.81,0,0,1,1,.55,3.62,3.62,0,0,1,.8.81A3,3,0,0,1,117.06,426.07Z" transform="translate(1.02 -72.71)" style="fill:#fff"/><path d="M119.1,417.61a4.43,4.43,0,0,1-1.11,1.06,6.36,6.36,0,0,1-1.26.67,5.84,5.84,0,0,1-1.38.36,4.23,4.23,0,0,1-1.54,0,4.43,4.43,0,0,1,1.11-1.06,6.1,6.1,0,0,1,2.65-1A4.17,4.17,0,0,1,119.1,417.61Z" transform="translate(1.02 -72.71)" style="fill:#fff"/><path d="M110,413a2.86,2.86,0,0,1,.79.95,3.62,3.62,0,0,1,.43,2.13,3,3,0,0,1-.36,1.18,2.77,2.77,0,0,1-.79-.95,3.68,3.68,0,0,1-.42-2.13A2.82,2.82,0,0,1,110,413Z" transform="translate(1.02 -72.71)" style="fill:#fff"/><path d="M139.49,423.2a4.27,4.27,0,0,1-.89,1.3,5.94,5.94,0,0,1-1.12,1,6.3,6.3,0,0,1-1.31.69,4.7,4.7,0,0,1-1.55.34,4.38,4.38,0,0,1,.89-1.31,6.45,6.45,0,0,1,1.13-1,6,6,0,0,1,1.31-.68A4.19,4.19,0,0,1,139.49,423.2Z" transform="translate(1.02 -72.71)" style="fill:#fff"/><path d="M139.63,413.55a3,3,0,0,1,.89.82,3.36,3.36,0,0,1,.49,1,3.31,3.31,0,0,1,.18,1.05,2.8,2.8,0,0,1-.22,1.19,2.64,2.64,0,0,1-.89-.82,3.07,3.07,0,0,1-.49-.95,3.42,3.42,0,0,1-.18-1.06A2.83,2.83,0,0,1,139.63,413.55Z" transform="translate(1.02 -72.71)" style="fill:#fff"/><path d="M134.41,417.64a3.07,3.07,0,0,1,1.25.16,3.41,3.41,0,0,1,1,.5,3.57,3.57,0,0,1,.82.78,3,3,0,0,1,.58,1.12,3.09,3.09,0,0,1-1.25-.16,4,4,0,0,1-1-.51,3.77,3.77,0,0,1-.82-.78A3.07,3.07,0,0,1,134.41,417.64Z" transform="translate(1.02 -72.71)" style="fill:#fff"/><path d="M240.36,449.77a2.86,2.86,0,0,1-1.25-.21,3.75,3.75,0,0,1-1-.54,3.89,3.89,0,0,1-.81-.81,3,3,0,0,1-.55-1.14,3,3,0,0,1,1.25.2,3.66,3.66,0,0,1,1,.55,3.84,3.84,0,0,1,.8.81A3,3,0,0,1,240.36,449.77Z" transform="translate(1.02 -72.71)" style="fill:#fff"/><path d="M242.4,443.05a4,4,0,0,1-1.11,1.06,5.69,5.69,0,0,1-1.26.68,5.84,5.84,0,0,1-1.38.36,4.23,4.23,0,0,1-1.54,0,4.26,4.26,0,0,1,1.11-1.06,6,6,0,0,1,1.27-.67,5.84,5.84,0,0,1,1.38-.36A4.39,4.39,0,0,1,242.4,443.05Z" transform="translate(1.02 -72.71)" style="fill:#fff"/><path d="M234.63,439.11a3,3,0,0,1,.78.95,3.58,3.58,0,0,1,.43,2.13,2.67,2.67,0,0,1-.36,1.18,2.86,2.86,0,0,1-.79-.95,3.64,3.64,0,0,1-.37-1,3.37,3.37,0,0,1,0-1.1A3,3,0,0,1,234.63,439.11Z" transform="translate(1.02 -72.71)" style="fill:#fff"/><path d="M254,449a4.46,4.46,0,0,1-.89,1.3,6,6,0,0,1-1.13,1,6.3,6.3,0,0,1-1.31.69,4.64,4.64,0,0,1-1.55.34A4.4,4.4,0,0,1,250,451a6.39,6.39,0,0,1,1.12-1,6.26,6.26,0,0,1,1.31-.68A4.24,4.24,0,0,1,254,449Z" transform="translate(1.02 -72.71)" style="fill:#fff"/><path d="M253.49,442.21a2.85,2.85,0,0,1,.89.82,3.49,3.49,0,0,1,.67,2,2.65,2.65,0,0,1-.22,1.19,2.85,2.85,0,0,1-.89-.82,3.49,3.49,0,0,1-.67-2A3,3,0,0,1,253.49,442.21Z" transform="translate(1.02 -72.71)" style="fill:#fff"/><path d="M248.8,444.7a3.09,3.09,0,0,1,1.25.16,4,4,0,0,1,1,.51,3.72,3.72,0,0,1,.82.77,3,3,0,0,1,.58,1.12,3,3,0,0,1-1.25-.16,3.67,3.67,0,0,1-1-.5,4,4,0,0,1-.82-.78A3,3,0,0,1,248.8,444.7Z" transform="translate(1.02 -72.71)" style="fill:#fff"/><path d="M98.9,180a21.21,21.21,0,0,0-4.2,3.46,26.05,26.05,0,0,0-6.61,19.19c.6,9.11,5.56,17.57,12.31,23.72a21.81,21.81,0,0,0,15.29,5.53c-1.67-2.43-3.23-7.95-2.46-10.77,1-3.49,4.9-5,7.79-7.19,5.36-4,7.5-11.33,6.81-18s-3.81-12.85-7.32-18.56a5.22,5.22,0,0,0-2-2.15,5,5,0,0,0-2.58-.28C110.23,175.39,103.91,176.81,98.9,180Z" transform="translate(1.02 -72.71)" style="fill:#dc4c4c"/></svg>