<svg id="Layer_1" data-name="Layer 1" xmlns="http://www.w3.org/2000/svg" viewBox="0 0 411.36 368.36"><path d="M339.42,324.78c4,2.64,7,5.4,6.93,7.9-.08,6.61-16.14,16.3-21.1,19a60.76,60.76,0,0,1-89.41-53.55c0-9.87.42-12,10.35-12.61,9.44-.6,19.15-.39,28.13,2.88a87.13,87.13,0,0,1,14.51,7.44L320,314.34C323.48,316.4,332.85,320.44,339.42,324.78Z" transform="translate(1.02 -84.37)" style="fill:#fff"/><path d="M237.92,415.2S233.4,403.88,222,403s-12.28,5-12.28,5,12.28-.6,19.54,7.15" transform="translate(1.02 -84.37)" style="fill:#dd5735"/><path d="M291.78,414.5s-4.52-11.32-16-12.16-12.28,5-12.28,5,12.28-.6,19.54,7.15" transform="translate(1.02 -84.37)" style="fill:#dd5735"/><path d="M164.12,97.64c-.2.29,10.06,23.81,11.16,25.25,2,2.65,15.5,7.36,13.18-.34C186.45,115.87,171.79,87.9,164.12,97.64Z" transform="translate(1.02 -84.37)" style="fill:#8e2835"/><path d="M179.38,87.46c0,.14-.06.28-.08.43-.25,2.13,2.76,6.82,3.52,8.81,2.83,7.38,7.73,17.17,7,25.29s22.84,6.32,27.14,6.31c.83-2.81,3.45-4.61,5.62-6.57,7.74-7,13.31-26.06-1.17-29.75a14.59,14.59,0,0,0-10.46,1.64c-3.08,1.69-5.15,4.35-7.67,6.59a30.14,30.14,0,0,0-3.48-9A14.66,14.66,0,0,0,191.6,85C188.48,84,180.4,83.73,179.38,87.46Z" transform="translate(1.02 -84.37)" style="fill:#8e2835"/><path d="M324.89,168" transform="translate(1.02 -84.37)" style="fill:#db3f50"/><path d="M297.61,250.77a11.17,11.17,0,0,1-1.44-1.69,17.63,17.63,0,0,1-2.3-5.72c-7.11-27.85,5.07-57,28.34-73.22a4.42,4.42,0,0,1,2.25-1,3.88,3.88,0,0,1,2.69,1.41c3.44,3.5,4.78,8.65,4.64,13.55s-1.57,9.68-3,14.37q-8.7,28.59-17.41,57.17C306.48,255,301.06,254.08,297.61,250.77Z" transform="translate(1.02 -84.37)" style="fill:#d34462"/><path d="M299.78,247.8a4.26,4.26,0,0,1-.18-.89,6.84,6.84,0,0,1,.23-2.11c4-17.56,10.46-36.25,22.34-50.09,11.28-13.15,30.86-24.27,48.21-26.51,3.63-.47,1.59,18.71,1.24,20.2-2.44,10.24-7.42,19.77-13.57,28.26A174.55,174.55,0,0,1,338,239.1c-6.28,6.11-12.73,12.39-21.73,14C312.33,253.83,301.43,252.93,299.78,247.8Z" transform="translate(1.02 -84.37)" style="fill:#dc4b60"/><path d="M311.82,261.71a1.63,1.63,0,0,1,.05-1C320.17,240,336.94,224,357.5,215.7c12.15-4.93,27.28-10.58,40.75-9,1.27.15,1,9.46,1,10.22-.62,9.55-5,18.43-11,25.78A77.44,77.44,0,0,1,328,270.94C322.42,270.87,313.33,268.4,311.82,261.71Z" transform="translate(1.02 -84.37)" style="fill:#ce3852"/><path d="M248.41,377s-2.62,36.82-11.32,36.7-25.26-5.6-32.41,3.57a11,11,0,0,0-1.31,11.92s10.84-9.06,31.22-4.89a8.81,8.81,0,0,0,11.91,2.27c7.51-4.17,9.66-28.72,9.66-28.72l1.78-21.93" transform="translate(1.02 -84.37)" style="fill:#e78d3c"/><path d="M233,354.64,240,374s1.48,4.63,8.07,4.82l9.66.3s5.71-.4,6.3-9.06-.2-9.56-.2-9.56" transform="translate(1.02 -84.37)" style="fill:#bc3445"/><path d="M302.27,376.25S299.65,413.07,291,413s-25.26-5.6-32.41,3.57a11,11,0,0,0-1.31,11.92s10.84-9.06,31.22-4.89a8.81,8.81,0,0,0,11.91,2.27c7.51-4.17,9.66-28.72,9.66-28.72l1.78-21.93" transform="translate(1.02 -84.37)" style="fill:#e78d3c"/><path d="M145.7,150.85s21-34.82,54.76-30.47,45,26.84,45,26.84,15.23,23.94-.73,59.85c0,0-5.44,22.12,4.35,29,0,0,31.19-4,46.06,4.72,0,0,24.3,8,37,29,7.37,12.22,16.2,29,31.56,32a8.75,8.75,0,0,1-15.44.53,20.31,20.31,0,0,0,16.29,8.88c1.32,2.33-1.57,5.23-4.25,5s-4.76-2.34-6.59-4.31a16.68,16.68,0,0,0,16.41,8.88c-.19,8-8.6,13-16.24,15.17-12.34,3.53-25.4,3.74-38.18,2.7-16-1.3-32.25-4.67-46.06-12.92-13.32-8-24.38-21.16-27-36.77.88,5.56-.63,11.4,1.66,16.73,2.7,6.29,7.27,11.67,12.1,16.44,23.16,22.82,57.32,23.5,87.49,17.57-9.1,6.66-18.29,15.65-28.92,19.65-14.08,5.29-32.92,4.2-47.81,3.92-16.43-.3-33-3.1-47.8-10.56-14.29-7.22-26.7-18.43-34.48-32.42-8-14.4-10.93-31.34-9.62-47.77A114.37,114.37,0,0,1,183,240a93,93,0,0,1,6.7-14.15c1.12-1.86,7.43-11.07,5.72-13.19Z" transform="translate(1.02 -84.37)" style="fill:#db3f50"/><path d="M283.73,348.37s4.85,23.15,15.75,30l14.94.27s5-1.35,5.79-8.62c0,0,2.7-2.62-5.92-24.37" transform="translate(1.02 -84.37)" style="fill:#dc4b60"/><path d="M184.12,184.22s10.8-12.79,32.11-8.53c16.06,3.22,13.55,21.94,2.53,30a34.3,34.3,0,0,1-13,5.5c-11.27,2.49-25.29,1.53-35.31-4.69-5.11-3.17-8.61-9.54-5.09-15.22Z" transform="translate(1.02 -84.37)" style="fill:#df6583"/><path d="M142.06,151.69a65.05,65.05,0,0,0-8,4.58c-11.3,7.52-21.6,18.33-27.79,30.45a53.49,53.49,0,0,0-6,22.52A43.34,43.34,0,0,0,101.5,221c1,4.07,1.27,5.16,5.35,2.83,5.39-3.08,42.9-17.72,59.08-22.86a57.18,57.18,0,0,0,25.18-16.19s4.11-3.34-4.62-5.91c0,0-3.86-.77-15.16-18.75a29.62,29.62,0,0,0-7.75-8.85C157.08,146.7,149.07,148.4,142.06,151.69Z" transform="translate(1.02 -84.37)" style="fill:#e8903d"/><ellipse cx="202.6" cy="82.26" rx="31.55" ry="34.43" style="fill:#fff;stroke:#fff;stroke-miterlimit:10;stroke-width:0.659196108245014px"/><ellipse cx="200.17" cy="80.38" rx="15.87" ry="15.77" style="fill:#dc4f65"/><ellipse cx="200.38" cy="79.11" rx="9.89" ry="13.46" style="fill:#24212c"/><path d="M190.57,159.17a3.71,3.71,0,0,1,.06-1.59c1.1-5.29,6.15-9.73,12-7.6a12.13,12.13,0,0,1,6.9,7.39c-3.37,1.18-7.09.38-10.67.08a1.38,1.38,0,0,0-.78.1,1.49,1.49,0,0,0-.53.93,4.17,4.17,0,0,1-4.42,2.67,3,3,0,0,1-2.53-1.9A.19.19,0,0,0,190.57,159.17Z" transform="translate(1.02 -84.37)" style="fill:#fff"/><path d="M1.53,421.39c7.49-1.43,14.81.51,22.31.85,29.71,1.34,60.25-9.84,88.68-1.11" transform="translate(1.02 -84.37)" style="fill:none;stroke:#fff;stroke-miterlimit:10;stroke-width:1.5px"/><path d="M141.11,420.72a296.69,296.69,0,0,0,45.79-1.38,60.42,60.42,0,0,0,13.29-2.56c3.83-1.32,7.45-3.35,11.43-4.1,6.75-1.27,13.66,1.26,19.6,4.69s11.36,7.79,17.58,10.71c8.64,4.05,18.34,5.1,27.83,6.09,20.71,2.16,41.68,5.81,62.42,5.19q34.17-1,68.34,1.16" transform="translate(1.02 -84.37)" style="fill:none;stroke:#fff;stroke-miterlimit:10;stroke-width:1.5px"/><path d="M-.59,446.5c7.41-5.2,16.44-3.2,24.85-4.41,12.25-1.76,24.43-4.84,37-4.15,9.3.51,18.21,3.08,27.37,4.45a106.79,106.79,0,0,0,29,.35c16.78-2.11,33.54-8.22,50.11-5.23,5.41,1,10.47,2.9,15.78,4.2,16.54,4.07,35,3.58,52.13,4.15" transform="translate(1.02 -84.37)" style="fill:none;stroke:#fff;stroke-miterlimit:10;stroke-width:1.5px"/><path d="M255,448.64c9.4-.06,19.59-.76,28.89.17,6,.6,11.87,2.33,18,2.09,5.25-.2,10.22-.9,15.56-.9a145.12,145.12,0,0,1,18.46,1.18,50.31,50.31,0,0,0,10,.74c4.06-.29,7.72-1.69,11.71-2.25,6.28-.89,12.73.38,19.06,1.09,11,1.25,22.38.82,33.58.39" transform="translate(1.02 -84.37)" style="fill:none;stroke:#fff;stroke-miterlimit:10;stroke-width:1.5px"/><path d="M117.06,426.07a3.09,3.09,0,0,1-1.26-.21,3.94,3.94,0,0,1-1.81-1.35,2.87,2.87,0,0,1-.55-1.15,3.07,3.07,0,0,1,1.25.21,3.81,3.81,0,0,1,1,.55,3.62,3.62,0,0,1,.8.81A3,3,0,0,1,117.06,426.07Z" transform="translate(1.02 -84.37)" style="fill:#fff"/><path d="M119.1,417.61a4.43,4.43,0,0,1-1.11,1.06,6.36,6.36,0,0,1-1.26.67,5.84,5.84,0,0,1-1.38.36,4.23,4.23,0,0,1-1.54,0,4.43,4.43,0,0,1,1.11-1.06,6.1,6.1,0,0,1,2.65-1A4.17,4.17,0,0,1,119.1,417.61Z" transform="translate(1.02 -84.37)" style="fill:#fff"/><path d="M110,413a2.86,2.86,0,0,1,.79.95,3.62,3.62,0,0,1,.43,2.13,3,3,0,0,1-.36,1.18,2.77,2.77,0,0,1-.79-.95,3.68,3.68,0,0,1-.42-2.13A2.82,2.82,0,0,1,110,413Z" transform="translate(1.02 -84.37)" style="fill:#fff"/><path d="M139.49,423.2a4.27,4.27,0,0,1-.89,1.3,5.94,5.94,0,0,1-1.12,1,6.3,6.3,0,0,1-1.31.69,4.7,4.7,0,0,1-1.55.34,4.38,4.38,0,0,1,.89-1.31,6.45,6.45,0,0,1,1.13-1,6,6,0,0,1,1.31-.68A4.19,4.19,0,0,1,139.49,423.2Z" transform="translate(1.02 -84.37)" style="fill:#fff"/><path d="M139.63,413.55a3,3,0,0,1,.89.82,3.36,3.36,0,0,1,.49,1,3.31,3.31,0,0,1,.18,1.05,2.8,2.8,0,0,1-.22,1.19,2.64,2.64,0,0,1-.89-.82,3.07,3.07,0,0,1-.49-.95,3.42,3.42,0,0,1-.18-1.06A2.83,2.83,0,0,1,139.63,413.55Z" transform="translate(1.02 -84.37)" style="fill:#fff"/><path d="M134.41,417.64a3.07,3.07,0,0,1,1.25.16,3.41,3.41,0,0,1,1,.5,3.57,3.57,0,0,1,.82.78,3,3,0,0,1,.58,1.12,3.09,3.09,0,0,1-1.25-.16,4,4,0,0,1-1-.51,3.77,3.77,0,0,1-.82-.78A3.07,3.07,0,0,1,134.41,417.64Z" transform="translate(1.02 -84.37)" style="fill:#fff"/><path d="M240.36,449.77a2.86,2.86,0,0,1-1.25-.21,3.75,3.75,0,0,1-1-.54,3.89,3.89,0,0,1-.81-.81,3,3,0,0,1-.55-1.14,3,3,0,0,1,1.25.2,3.66,3.66,0,0,1,1,.55,3.84,3.84,0,0,1,.8.81A3,3,0,0,1,240.36,449.77Z" transform="translate(1.02 -84.37)" style="fill:#fff"/><path d="M242.4,443.05a4,4,0,0,1-1.11,1.06,5.69,5.69,0,0,1-1.26.68,5.84,5.84,0,0,1-1.38.36,4.23,4.23,0,0,1-1.54,0,4.26,4.26,0,0,1,1.11-1.06,6,6,0,0,1,1.27-.67,5.84,5.84,0,0,1,1.38-.36A4.39,4.39,0,0,1,242.4,443.05Z" transform="translate(1.02 -84.37)" style="fill:#fff"/><path d="M234.63,439.11a3,3,0,0,1,.78.95,3.58,3.58,0,0,1,.43,2.13,2.67,2.67,0,0,1-.36,1.18,2.86,2.86,0,0,1-.79-.95,3.64,3.64,0,0,1-.37-1,3.37,3.37,0,0,1,0-1.1A3,3,0,0,1,234.63,439.11Z" transform="translate(1.02 -84.37)" style="fill:#fff"/><path d="M254,449a4.46,4.46,0,0,1-.89,1.3,6,6,0,0,1-1.13,1,6.3,6.3,0,0,1-1.31.69,4.64,4.64,0,0,1-1.55.34A4.4,4.4,0,0,1,250,451a6.39,6.39,0,0,1,1.12-1,6.26,6.26,0,0,1,1.31-.68A4.24,4.24,0,0,1,254,449Z" transform="translate(1.02 -84.37)" style="fill:#fff"/><path d="M253.49,442.21a2.85,2.85,0,0,1,.89.82,3.49,3.49,0,0,1,.67,2,2.65,2.65,0,0,1-.22,1.19,2.85,2.85,0,0,1-.89-.82,3.49,3.49,0,0,1-.67-2A3,3,0,0,1,253.49,442.21Z" transform="translate(1.02 -84.37)" style="fill:#fff"/><path d="M248.8,444.7a3.09,3.09,0,0,1,1.25.16,4,4,0,0,1,1,.51,3.72,3.72,0,0,1,.82.77,3,3,0,0,1,.58,1.12,3,3,0,0,1-1.25-.16,3.67,3.67,0,0,1-1-.5,4,4,0,0,1-.82-.78A3,3,0,0,1,248.8,444.7Z" transform="translate(1.02 -84.37)" style="fill:#fff"/></svg>