<?xml version="1.0" encoding="UTF-8"?>
<svg id="Layer_2" xmlns="http://www.w3.org/2000/svg" viewBox="0 0 259.08 180.7">
  <defs>
    <style>
      .cls-1 {
        fill: #fff;
      }
    </style>
  </defs>
  <g id="Layer_2-2" data-name="Layer_2">
    <g>
      <path class="cls-1" d="M11.42,78.13c.26,4.96-.04,9.48.86,13.75,1.24,5.86,1.35,12.02,4.35,17.5,1.9,3.48,2.93,7.46,5.02,10.78,3.4,5.39,7.1,10.57,11.99,14.91,6.09,5.41,12.71,9.94,20,13.36,6.15,2.89,12.42,5.68,19.24,6.87,4.05.7,8.04,1.79,12.09,2.48,3.88.66,7.81,1.08,11.73,1.5,5.89.62,11.79,1.51,17.69,1.6,6.36.1,12.76-.42,19.11-.99,6.89-.62,13.75-1.52,20.61-2.48,3.18-.44,6.3-1.82,9.46-1.85,3.65-.03,6.55-1.51,9.54-3.1.36-.19.77-.31,1.14-.49,4.65-2.18,9.74-3.75,13.86-6.69,6.53-4.65,14.15-7.76,19.69-13.85,2.99-3.29,6.57-6.04,9.51-9.37,4.75-5.38,9.1-11.05,11.36-18.08,1.26-3.93,3.2-7.63,4.69-11.5,1.93-5.01,3.82-10.04,5.51-15.13.48-1.44.89-3.94.16-4.54-1.7-1.4-2.39,1.18-3.64,1.87-6.34,3.52-12.84,6.89-20.25,7.02-1.94.03-3.92-2.01-5.87-3.14-.14-.08-.24-.56-.14-.68,1.03-1.34,1.84-3.12,3.21-3.85,3.25-1.73,6.87-2.79,10.17-4.44,3.76-1.89,7.54-3.85,10.96-6.28,6.67-4.73,10.96-11.58,15.19-18.39.36-.58.4-1.8.02-2.26-.39-.48-1.52-.66-2.23-.51-7.01,1.48-14.08,1.54-21.18,1.09-5.8-.37-11.62-.61-17.4-1.22-3.18-.34-6.28-1.34-9.42-2.02-4.2-.92-8.41-1.74-12.58-2.75-3.12-.76-6.18-1.75-9.26-2.64-5.22-1.5-10.45-2.94-15.64-4.53-6.33-1.94-12.6-4.05-18.92-6-4.97-1.53-10.01-2.85-14.98-4.39-3.23-1-6.33-2.54-9.61-3.24-3.94-.84-5.05-3.35-7.96-5.31s-7.46-1.55-10.74-1.39c-10.36.49-20.7,1.45-31.03,2.42-6.49.61-13.03,1.22-19.27,3.09-15.46,4.63-31.41,16.89-34.04,33.67-1.2,7.65-2.73,15.24-.23,22.91.71,2.19,1.31,4.43,1.9,6.66.18.69.12,1.43.2,2.65-1.78-1.09-3.01-1.85-4.86-2.99Z"/>
      <path d="M110.39,4.21c4.62.69,8.3,2.52,13.02,3.97,6.21,1.91,12.42,3.78,18.64,5.67,6.56,2,13.08,4.1,19.67,6,8.13,2.33,16.45,4.07,24.41,6.84,8.85,3.08,17.98,4.32,27.15,5.19,8.71.83,17.53.49,26.26,1.12,4.53.33,8.9.07,13.31-.81.96-.19,2.01-.18,2.98-.03,2.64.4,3.56,1.76,3.16,4.3-.38,2.37-.91,4.73-.98,7.11-.15,4.64-1.88,8.71-3.99,12.71-.69,1.31-1.27,2.72-1.6,4.15-1.31,5.64-2.41,11.32-3.75,16.96-1.49,6.27-2.9,12.58-4.82,18.73-1.22,3.9-3.22,7.57-5,11.29-1.21,2.53-2.81,4.88-3.95,7.44-2.54,5.72-6.72,10.25-10.72,14.86-3.58,4.12-7.33,8.15-11.41,11.76-6.84,6.06-14.24,11.36-22.93,14.6-1.52.57-3.09,1.37-4.24,2.48-3.09,2.96-6.9,4.47-10.73,6.1-4.03,1.71-7.84,3.95-11.92,5.53-14.83,5.76-31.81,5.73-47.54,4.96-16.61-.81-33.13-3.48-49.25-7.53-9.61-2.41-18.97-5.55-27.45-10.73-4.43-2.71-8.76-5.8-12.48-9.39-4.57-4.41-8.2-9.74-10.82-15.57-3.38-7.5-6.77-15.02-9.6-22.74-1.7-4.63-2.5-9.62-3.41-14.5-1-5.36-2.12-10.77-2.35-16.19-.25-5.99.47-12.02.73-18.04.12-2.74.35-5.49.16-8.21-.45-6.41,1.88-12.24,3.53-18.22.95-3.45,1.98-6.96,3.71-10.11s4.83-5.25,7.65-7.46c6.37-4.98,13.65-8.8,21.37-11.2,9.78-3.04,20.1-3.8,30.31-4.54,10.11-.73,20.42-1.45,30.27.94,3.51.85,6.95,2.1,10.55,2.34.71.05,1.39.12,2.05.22ZM11.42,78.13c.26,4.96-.04,9.48.86,13.75,1.24,5.86,1.35,12.02,4.35,17.5,1.9,3.48,2.93,7.46,5.02,10.78,3.4,5.39,7.1,10.57,11.99,14.91,6.09,5.41,12.71,9.94,20,13.36,6.15,2.89,12.42,5.68,19.24,6.87,4.05.7,8.04,1.79,12.09,2.48,3.88.66,7.81,1.08,11.73,1.5,5.89.62,11.79,1.51,17.69,1.6,6.36.1,12.76-.42,19.11-.99,6.89-.62,13.75-1.52,20.61-2.48,3.18-.44,6.3-1.82,9.46-1.85,3.65-.03,6.55-1.51,9.54-3.1.36-.19.77-.31,1.14-.49,4.65-2.18,9.74-3.75,13.86-6.69,6.53-4.65,14.15-7.76,19.69-13.85,2.99-3.29,6.57-6.04,9.51-9.37,4.75-5.38,9.1-11.05,11.36-18.08,1.26-3.93,3.2-7.63,4.69-11.5,1.93-5.01,3.82-10.04,5.51-15.13.48-1.44.89-3.94.16-4.54-1.7-1.4-2.39,1.18-3.64,1.87-6.34,3.52-12.84,6.89-20.25,7.02-1.94.03-3.92-2.01-5.87-3.14-.14-.08-.24-.56-.14-.68,1.03-1.34,1.84-3.12,3.21-3.85,3.25-1.73,6.87-2.79,10.17-4.44,3.76-1.89,7.54-3.85,10.96-6.28,6.67-4.73,10.96-11.58,15.19-18.39.36-.58.4-1.8.02-2.26-.39-.48-1.52-.66-2.23-.51-7.01,1.48-14.08,1.54-21.18,1.09-5.8-.37-11.62-.61-17.4-1.22-3.18-.34-6.28-1.34-9.42-2.02-4.2-.92-8.41-1.74-12.58-2.75-3.12-.76-6.18-1.75-9.26-2.64-5.22-1.5-10.45-2.94-15.64-4.53-6.33-1.94-12.6-4.05-18.92-6-4.97-1.53-10.01-2.85-14.98-4.39-3.23-1-6.33-2.54-9.61-3.24-3.94-.84-5.05-3.35-7.96-5.31s-7.46-1.55-10.74-1.39c-10.36.49-20.7,1.45-31.03,2.42-6.49.61-13.03,1.22-19.27,3.09-15.46,4.63-31.41,16.89-34.04,33.67-1.2,7.65-2.73,15.24-.23,22.91.71,2.19,1.31,4.43,1.9,6.66.18.69.12,1.43.2,2.65-1.78-1.09-3.01-1.85-4.86-2.99Z"/>
      <path class="cls-1" d="M112.94,178.93c.43-2.27.14-4.13,2.99-3.85,2.27.23,2.51,1.49,2.57,3.13.03,1-2.75,2.85-4.01,2.43-.75-.25-1.22-1.32-1.54-1.71Z"/>
    </g>
  </g>
</svg>