<?xml version="1.0" encoding="UTF-8"?>
<svg id="Layer_2" xmlns="http://www.w3.org/2000/svg" viewBox="0 0 192.84 214.29">
  <defs>
    <style>
      .cls-1 {
        fill: #fff;
      }

      .cls-2 {
        fill: #f9d289;
      }
    </style>
  </defs>
  <g id="Layer_2-2" data-name="Layer_2">
    <g>
      <path class="cls-1" d="M59.56,77.71c-2.7-4.42-5.51-9.04-5.9-14.2-.33-4.38,1.11-8.67,2.54-12.82,2.33-6.77,4.69-13.61,8.5-19.68,6.45-10.26,16.84-17.76,28.3-21.69s23.93-4.45,35.91-2.61c7.38,1.14,14.68,3.17,21.29,6.66,7.23,3.81,13.47,9.27,19.16,15.13,6.2,6.39,11.92,13.43,15.42,21.62,8.67,20.28,2.1,44.49-10.95,62.27-2.24,3.05-4.72,6.07-5.78,9.71-2.47,8.44,3.08,15.8,6.88,22.75-12.3,3.55-24.68,6.93-36.53,11.86-9.12,3.79-18.34,6.7-26.78,12.14s-15.89,12.21-22.09,20.03c-1.88,2.37-16.6,23.05-14.01,25.42-3.86-3.53-6.01-7.73-7.84-12.63-2.33-6.22-.9-14.15.43-20.41,3.68-17.32,10.32-33.12,9.63-51-.77-19.81-7.9-35.73-18.16-52.54Z"/>
      <path d="M191.75,58.86c-.6-10.87-5.38-19.99-11.88-28.33-2.36-3.04-5.16-5.76-7.87-8.5-1.74-1.75-3.65-3.34-5.55-4.91-4.12-3.42-8.75-5.92-13.81-7.65-2.03-.7-4.05-1.41-6.03-2.22-2.9-1.18-5.66-2.91-8.66-3.59-5.19-1.16-9.94-4.05-15.58-3.56-4.5.38-9.24-.64-13.56.33-6.45,1.46-13.2,1.59-19.37,4.34-2.65,1.18-5.57,1.78-8.14,3.09-2.78,1.41-5.33,3.3-7.92,5.07-3.41,2.33-7.02,4.45-10.07,7.18-4.5,4.04-8.79,8.48-10.96,14.27-1.51,4.07-2.32,8.4-3.34,12.64-1.07,4.5-2.35,8.99-2.88,13.56-.35,2.93-1.68,3.52-4.11,3.64-6.99.34-13.88.06-20.64-2.11-2.57-.83-5.33-1.45-8.01-1.48-4.86-.07-8.74,2.38-11.77,6.04C.71,67.75-.02,69.37,0,70.73c.03,3.46.12,7.01.93,10.34,2.11,8.66,8.56,14.61,14.1,21.05,1.28,1.49,1.69,2.42.24,3.63-4.54,3.81-5.61,8.45-4.04,14.1.82,2.93,2.22,5.06,4.89,6.46,3.46,1.83,7.12,2.55,11.01,2.6,9.76.11,19.58-.38,28.95,3.34,2.45.98,5.09,1.6,7.7,2.02,4.13.68,5.04,1.78,5.33,6.05.37,5.44-.38,10.39-3.21,15.28-1.84,3.18-2.44,7.12-3.44,10.76-1.65,5.98-3.98,11.81-3.53,18.22.14,2.05.05,4.12-.06,6.18.41,1.42.79,2.87,1.25,4.29.99,3.03,1.94,6.51,3.63,9.23,1.47,2.38,3.79,4.23,5.57,6.37.04.05.06.1.1.15,0-.11,0-.22-.01-.34,1.85,1.14,3.09,1.9,4.87,2.99-.09-1.22-.03-1.97-.21-2.65-.58-2.24-1.18-4.47-1.89-6.66-2.5-7.68-.97-15.26.23-22.91,1.09-6.93,5.22-12.43,7.99-18.57,3.02-6.68,5.32-13.6,5.77-20.97.14-2.25.91-2.75,3.09-3.08,6.82-1.04,13.46-2.82,18.15-8.46.69-.82,1.14-2.29.9-3.25-.15-.58-1.89-1.16-2.85-1.07-6.18.57-12.34,1.33-18.5,2.02-.47.05-.95.01-1.52.01.04-.41-.03-.72.1-.85,5.61-5.83,8.12-12.78,7.47-20.83-.26-3.2-.46-6.45-1.15-9.57-1.16-5.19-5.12-8.29-9.41-10.73-5.17-2.93-10.62-5.36-15.92-8.05-2.33-1.17-3.62-3.08-4.73-5.49-3.01-6.53-2.64-13.13-.72-19.66,2.09-7.16,4.95-14.01,9.37-20.19,4.57-6.39,10.12-11.25,17.58-13.92,2.71-.97,5.19-2.62,7.92-3.5,3.36-1.08,6.85-2.08,10.35-2.4,4.42-.41,8.96-.54,13.35,0,4.61.57,9.19,1.8,13.62,3.24,5.58,1.82,11.13,3.86,16.43,6.36,3.71,1.75,7.2,4.16,10.4,6.75,3.45,2.81,6.82,5.87,9.53,9.36,3.13,4.02,5.57,8.58,8.15,13,.53.92.36,2.26.5,3.41.67,5.27,1.16,10.57,2.04,15.8,1.06,6.4-1.18,12.18-2.97,18.04-1.39,4.54-2.84,9.11-4.77,13.44-1.57,3.53-4.2,6.58-5.8,10.1-2.88,6.3-4.54,12.82-3.44,19.97.08.49.16.96.25,1.44.47.49.93.98,1.31,1.51,1.45,2.02,2.67,3.88,4.72,5.35,1.8,1.29,3.76,2.34,5.78,3.3-1.84-2.14-2.45-4.32-2.56-6.58-.04-.08-.07-.16-.08-.24-.62-5-.54-10.08,1.5-14.71,2.1-4.74,4.91-9.17,7.36-13.76.86-1.62,1.58-3.32,2.38-4.98.68-1.4,1.49-2.74,2.05-4.19.95-2.44,1.77-4.93,2.61-7.42.84-2.51,2-4.98,2.4-7.56.83-5.21,1.24-10.49,1.78-15.4-.4-3.62-.91-6.83-1.09-10.05Z"/>
      <path d="M22.93,107.45c-1.59,2.3-3.03,3.95-3.96,5.85-1.05,2.15.17,3.62,2.55,3.37,1.89-.2,3.77-.72,5.65-.75,4.96-.08,10-.53,14.86.18,9.24,1.34,18.24,4.18,27.76,3.81,5.71-.22,11.1-4.22,12.39-9.88.39-1.7.72-3.42,1.2-5.1.78-2.69-.06-4.89-1.86-6.83-4.1-4.41-9.49-7.12-14.78-9.38-6.31-2.68-11.64-5.74-14.26-12.38-.2-.5-1.25-1.09-1.74-.97-2.24.58-4.48,1.28-6.62,2.17-8.11,3.38-16.06,3.09-24.08-.45-3.67-1.62-7.57-2.72-12.22-4.35.38,2.34.16,4.29.99,5.54,3.02,4.55,6.24,8.99,9.67,13.24,2.66,3.29,6.16,5.53,10.47,6.22,1.39.22,2.78.49,4.17.68,7.56.98,15.1,2.46,22.69,2.74,5.3.2,10.68-1.13,15.99-2.01,2.76-.46,4.63.43,5.6,2.88.87,2.2,1,4.41-.53,6.6-1.37,1.97-2.99,2.1-5,1.47-.45-.14-1.01-.18-1.46-.04-6.46,2-13.12,1.59-19.73,1.69-5.54.08-11.08.13-16.62.29-4.19.12-8.47.65-11.16-4.58Z"/>
      <path class="cls-2" d="M22.93,107.45c2.69,5.23,6.97,4.7,11.16,4.58,5.54-.16,11.08-.21,16.62-.29,6.62-.1,13.27.32,19.73-1.69.44-.14,1.01-.1,1.46.04,2.01.63,3.63.5,5-1.47,1.53-2.19,1.4-4.41.53-6.6-.97-2.45-2.84-3.33-5.6-2.88-5.31.88-10.69,2.21-15.99,2.01-7.59-.28-15.13-1.76-22.69-2.74-1.4-.18-2.78-.45-4.17-.68-4.31-.69-7.81-2.93-10.47-6.22-3.43-4.25-6.65-8.69-9.67-13.24-.83-1.25-.61-3.2-.99-5.54,4.64,1.63,8.54,2.73,12.22,4.35,8.01,3.54,15.97,3.84,24.08.45,2.14-.89,4.37-1.58,6.62-2.17.48-.13,1.54.47,1.74.97,2.62,6.64,7.95,9.7,14.26,12.38,5.3,2.25,10.68,4.97,14.78,9.38,1.8,1.93,2.64,4.14,1.86,6.83-.49,1.67-.82,3.4-1.2,5.1-1.29,5.66-6.68,9.66-12.39,9.88-9.52.37-18.52-2.47-27.76-3.81-4.86-.7-9.9-.26-14.86-.18-1.89.03-3.76.56-5.65.75-2.38.25-3.6-1.22-2.55-3.37.93-1.9,2.37-3.55,3.96-5.85Z"/>
    </g>
  </g>
</svg>