<?xml version="1.0" encoding="UTF-8"?>
<svg id="Layer_2" xmlns="http://www.w3.org/2000/svg" viewBox="0 0 148.5 110.62">
  <defs>
    <style>
      .cls-1 {
        fill: #fff;
      }
    </style>
  </defs>
  <g id="Layer_2-2" data-name="Layer_2">
    <g>
      <path class="cls-1" d="M2.92,65.56c.96,3.47,2.14,6.87,3.53,10.19.89,2.14,1.69,4.71,2.83,6.7s3.49,3.18,5.32,4.35c4.46,2.83,9.29,5.02,14.03,7.32,2.27,1.1,4.56,2.2,7,2.84,3.08.81,6.29.87,9.47.92,10.67.18,21.35.37,32.02.55,2.4.04,4.82.08,7.18-.38,4.05-.79,7.65-2.99,11.41-4.7,3.53-1.61,7.26-2.81,10.64-4.72,3.36-1.9,6.3-4.45,9.21-6.99,5.81-5.06,11.62-10.12,17.43-15.18,2.04-1.77,4.1-3.57,5.64-5.79,3.68-5.31,3.78-12.86.24-18.26-1.82-2.78-4.43-4.92-6.99-7.03-6.88-5.63-13.78-11.29-21.31-16.02-7.36-4.64-15.26-8.36-23.13-12.06-3.58-1.69-7.2-3.39-11.08-4.21-4.42-.93-8.99-.69-13.5-.38-10.57.72-21.19,1.75-31.4,4.57-6.91,1.91-13.64,4.65-19.68,8.53-2.76,1.77-5.8,3.72-7.6,6.52s-2.36,6.21-2.88,9.42c-1.23,7.71-1.83,14.68-.75,22.46.53,3.83,1.32,7.63,2.36,11.35Z"/>
      <path d="M127.1,38.98c-2.2-1.6-4.39-3.22-6.61-4.79-2.97-2.11-5.94-4.22-8.95-6.25-7.83-5.27-16.42-9.03-25.27-12.17-6.62-2.36-13.34-4.47-20.09-6.44-2.01-.58-4.29-.51-6.42-.36-8.53.6-17.07,1.1-25.55,2.12-5.65.68-11.33,1.75-16.73,3.49-2.89.93-5.28,3.55-7.74,5.6-1.39,1.16-2.32,2.85-3.71,4.01-.82.68-2.13.78-3.21,1.15.12-1,.1-2.04.39-3,1.88-6.34,6.67-9.85,12.33-12.5,4.02-1.88,7.91-4.09,12.07-5.57,3.14-1.12,6.6-1.36,9.93-1.93,3.5-.6,7-1.4,10.53-1.63,6.04-.4,12.17-1.05,18.15-.45,9.27.92,18.48,2.62,27.64,4.39,2.85.55,6.16.81,8.2,3.58.09.12.28.26.42.26,3.68-.19,5.85,3.03,9.05,4.03,1.88.59,3.5,2.15,5.1,3.46,3.43,2.81,6.76,5.73,10.13,8.6,4.77,4.07,9.75,7.92,14.24,12.28,3.44,3.34,6.18,7.37,7.28,12.25.43,1.92.4,3.61-1.3,4.96-.5.4-1.01.96-1.19,1.55-.92,2.9-2.16,5.78-2.52,8.77-1.01,8.25-5.33,14.43-11.38,19.7-6.82,5.95-14.33,10.91-22.37,15.01-3,1.53-6.33,2.42-9.45,3.75-2.83,1.21-5.49,2.91-8.39,3.86-3.92,1.28-7.97,2.35-12.05,2.95-4.65.68-9.41,1.13-14.09.95-5.27-.19-10.6-.8-15.75-1.92-12.21-2.67-22.45-9.29-31.84-17.22-3.85-3.25-7.2-7.1-10.61-10.83-.96-1.05-1.46-2.59-1.91-3.99-.17-.53.23-1.56.7-1.88.45-.31,1.34-.07,2.01.08.37.08.74.42.98.74,3.48,4.65,8.88,6.23,13.83,8.39,5.21,2.27,10.56,4.25,15.97,6,3.04.98,6.31,1.23,9.48,1.8,2.04.37,4.09.69,6.11,1.11,7.96,1.69,15.88.97,23.81-.22,8.06-1.21,15.46-4.34,22.93-7.44,6.33-2.63,12.02-6.27,17.69-9.91,3.32-2.13,5.87-5.47,8.78-8.25,1.44-1.37,3.04-2.59,4.34-4.07,2.01-2.28,3.86-4.71,5.65-7.17.15-.2-.54-1.46-1.05-1.63-5.55-1.91-11.1-3.86-16.73-5.49-6.18-1.79-12.46-3.28-18.7-4.86-1.52-.39-3.15-.46-4.61-.98-.68-.24-1.39-1.17-1.52-1.89-.08-.44.93-1.51,1.47-1.53,3.47-.11,6.94-.1,10.41.04,5.89.25,11.78.65,17.68.91.72.03,1.47-.41,2.2-.63.08-.26.16-.51.24-.77Z"/>
    </g>
  </g>
</svg>