<svg width="32" height="32" viewBox="0 0 32 32" fill="none" xmlns="http://www.w3.org/2000/svg">
<path d="M16 5C22.075 5 27 9.925 27 16C27 22.075 22.075 27 16 27C9.925 27 5 22.075 5 16C5 9.925 9.925 5 16 5ZM20 17C20.552 17 21 16.5525 21 16C21 15.4475 20.552 15 20 15C19.876 15 18.5435 15 17 15C17 13.4565 17 12.124 17 12C17 11.448 16.5525 11 16 11C15.448 11 15 11.448 15 12C15 12.124 15 13.4565 15 15C13.4565 15 12.124 15 12 15C11.448 15 11 15.4475 11 16C11 16.5525 11.448 17 12 17C12.124 17 13.4565 17 15 17C15 18.5435 15 19.876 15 20C15 20.552 15.448 21 16 21C16.5525 21 17 20.552 17 20C17 19.876 17 18.5435 17 17C18.5435 17 19.876 17 20 17Z" fill="white"/>
</svg>
