<svg width="48" height="48" viewBox="0 0 48 48" fill="none" xmlns="http://www.w3.org/2000/svg">
<path d="M24 7.5C33.1125 7.5 40.5 14.8875 40.5 24C40.5 33.1125 33.1125 40.5 24 40.5C14.8875 40.5 7.5 33.1125 7.5 24C7.5 14.8875 14.8875 7.5 24 7.5ZM30 25.5C30.828 25.5 31.5 24.8288 31.5 24C31.5 23.1712 30.828 22.5 30 22.5C29.814 22.5 27.8152 22.5 25.5 22.5C25.5 20.1848 25.5 18.186 25.5 18C25.5 17.172 24.8288 16.5 24 16.5C23.172 16.5 22.5 17.172 22.5 18C22.5 18.186 22.5 20.1848 22.5 22.5C20.1848 22.5 18.186 22.5 18 22.5C17.172 22.5 16.5 23.1712 16.5 24C16.5 24.8288 17.172 25.5 18 25.5C18.186 25.5 20.1848 25.5 22.5 25.5C22.5 27.8152 22.5 29.814 22.5 30C22.5 30.828 23.172 31.5 24 31.5C24.8288 31.5 25.5 30.828 25.5 30C25.5 29.814 25.5 27.8152 25.5 25.5C27.8152 25.5 29.814 25.5 30 25.5Z" fill="white"/>
</svg>
