<svg width="48" height="48" viewBox="0 0 48 48" fill="none" xmlns="http://www.w3.org/2000/svg">
<path d="M24 7.5C14.9018 7.5 7.5 14.9018 7.5 24C7.5 33.0982 14.9018 40.5 24 40.5C33.0982 40.5 40.5 33.0982 40.5 24C40.5 14.9018 33.0982 7.5 24 7.5ZM24 10.5C31.4438 10.5 37.5 16.5562 37.5 24C37.5 31.4438 31.4438 37.5 24 37.5C16.5562 37.5 10.5 31.4438 10.5 24C10.5 16.5562 16.5562 10.5 24 10.5ZM22.4707 15.5024C22.1505 15.5024 21.9053 15.7289 21.9053 16.0679V17.3291H21.3208C20.6616 17.3291 20.228 17.7714 20.228 18.4307V29.4023C20.228 30.0616 20.6608 30.5047 21.3208 30.5039H21.9053V31.7666C21.9053 32.1056 22.1505 32.3306 22.4707 32.3306C22.791 32.3306 23.0347 32.1056 23.0347 31.7666V30.5039H24.353V31.7666C24.353 32.1056 24.5982 32.3306 24.9185 32.3306C25.2387 32.3306 25.4824 32.1056 25.4824 31.7666V30.4761C27.8652 30.2593 29.25 28.9322 29.25 26.8037C29.25 25.0517 28.101 23.79 26.3115 23.5635V23.4888C27.5828 23.2623 28.5908 21.982 28.5908 20.6162C28.5908 18.8455 27.3657 17.6117 25.4824 17.3672V16.0679C25.4824 15.7289 25.2387 15.5024 24.9185 15.5024C24.5982 15.5024 24.353 15.7289 24.353 16.0679V17.3291H23.0347V16.0679C23.0347 15.7289 22.791 15.5024 22.4707 15.5024ZM21.9229 18.8174H24.3911C25.9736 18.8174 26.8872 19.495 26.8872 20.8037C26.8872 22.2355 25.8133 22.9702 23.8828 22.9702H21.9229V18.8174ZM21.9229 24.4585H24.3428C26.433 24.4585 27.5259 25.2035 27.5259 26.729C27.5259 28.2545 26.4629 29.0171 24.5039 29.0171H21.9229V24.4585Z" fill="white"/>
</svg>
