<svg width="129" height="128" viewBox="0 0 129 128" fill="none" xmlns="http://www.w3.org/2000/svg">
<path d="M64.5 20C40.238 20 20.5 39.738 20.5 64C20.5 88.262 40.238 108 64.5 108C88.762 108 108.5 88.262 108.5 64C108.5 39.738 88.762 20 64.5 20ZM64.5 28C84.35 28 100.5 44.15 100.5 64C100.5 83.85 84.35 100 64.5 100C44.65 100 28.5 83.85 28.5 64C28.5 44.15 44.65 28 64.5 28ZM60.4219 41.3398C59.5679 41.3398 58.9141 41.9437 58.9141 42.8477V46.2109H57.3555C55.5975 46.2109 54.4414 47.3904 54.4414 49.1484V78.4062C54.4414 80.1642 55.5955 81.3457 57.3555 81.3438H58.9141V84.7109C58.9141 85.6149 59.5679 86.2148 60.4219 86.2148C61.2759 86.2148 61.9258 85.6149 61.9258 84.7109V81.3438H65.4414V84.7109C65.4414 85.6149 66.0952 86.2148 66.9492 86.2148C67.8032 86.2148 68.4531 85.6149 68.4531 84.7109V81.2695C74.8071 80.6915 78.5 77.1526 78.5 71.4766C78.5 66.8046 75.4361 63.4399 70.6641 62.8359V62.6367C74.0541 62.0327 76.7422 58.6186 76.7422 54.9766C76.7422 50.2546 73.4751 46.9645 68.4531 46.3125V42.8477C68.4531 41.9437 67.8032 41.3398 66.9492 41.3398C66.0952 41.3398 65.4414 41.9437 65.4414 42.8477V46.2109H61.9258V42.8477C61.9258 41.9437 61.2759 41.3398 60.4219 41.3398ZM58.9609 50.1797H65.543C69.763 50.1797 72.1992 51.9866 72.1992 55.4766C72.1992 59.2946 69.3355 61.2539 64.1875 61.2539H58.9609V50.1797ZM58.9609 65.2227H65.4141C70.9881 65.2227 73.9023 67.2093 73.9023 71.2773C73.9023 75.3453 71.0677 77.3789 65.8438 77.3789H58.9609V65.2227Z" fill="#FB513B"/>
</svg>
