<svg width="24" height="24" viewBox="0 0 24 24" fill="none" xmlns="http://www.w3.org/2000/svg">
<g clip-path="url(#clip0_17002_370)">
<path d="M0 3.42857C0 1.53502 1.53502 0 3.42857 0H20.5714C22.465 0 24 1.53502 24 3.42857V20.5714C24 22.465 22.465 24 20.5714 24H3.42857C1.53502 24 0 22.465 0 20.5714V3.42857Z" fill="#F3474D"/>
<path d="M19.0717 20.6846C18.6067 20.6846 18.1918 20.5904 17.8269 20.4021C17.4679 20.2079 17.1854 19.9401 16.9794 19.5987C16.7734 19.2574 16.6704 18.8719 16.6704 18.4422C16.6704 18.0126 16.7705 17.63 16.9706 17.2946C17.1766 16.9532 17.4532 16.6854 17.8004 16.4912C18.1477 16.297 18.539 16.1999 18.9746 16.1999C19.3983 16.1999 19.772 16.2911 20.0957 16.4736C20.4194 16.656 20.6725 16.9091 20.8549 17.2328C21.0433 17.5565 21.1374 17.9273 21.1374 18.3451C21.1374 18.4216 21.1316 18.504 21.1198 18.5923C21.1139 18.6747 21.0992 18.7718 21.0756 18.8836L17.3767 18.8925V17.9655L20.5018 17.9567L19.9192 18.3451C19.9133 18.0979 19.875 17.8949 19.8044 17.736C19.7338 17.5712 19.6278 17.4476 19.4866 17.3652C19.3512 17.2769 19.1835 17.2328 18.9834 17.2328C18.7715 17.2328 18.5861 17.2828 18.4272 17.3829C18.2742 17.477 18.1535 17.6124 18.0653 17.789C17.9829 17.9655 17.9417 18.1803 17.9417 18.4334C17.9417 18.6865 17.9858 18.9042 18.0741 19.0867C18.1683 19.2633 18.2977 19.4016 18.4625 19.5016C18.6332 19.5958 18.8333 19.6429 19.0628 19.6429C19.2747 19.6429 19.466 19.6075 19.6367 19.5369C19.8073 19.4604 19.9574 19.3486 20.0869 19.2015L20.8285 19.943C20.6166 20.1902 20.3606 20.3756 20.0604 20.4992C19.7603 20.6228 19.4307 20.6846 19.0717 20.6846Z" fill="white"/>
<path d="M9.24561 20.5875V16.297H10.5963V20.5875H9.24561ZM11.9912 20.5875V18.0803C11.9912 17.8625 11.9235 17.6948 11.7881 17.5771C11.6586 17.4535 11.4968 17.3917 11.3026 17.3917C11.1672 17.3917 11.0465 17.4211 10.9406 17.48C10.8347 17.533 10.7493 17.6095 10.6846 17.7095C10.6257 17.8096 10.5963 17.9332 10.5963 18.0803L10.0754 17.8508C10.0754 17.5094 10.149 17.2181 10.2962 16.9768C10.4433 16.7296 10.6434 16.5413 10.8965 16.4118C11.1495 16.2764 11.435 16.2087 11.7528 16.2087C12.053 16.2087 12.3207 16.2764 12.5562 16.4118C12.7975 16.5472 12.9887 16.7355 13.13 16.9768C13.2712 17.2181 13.3419 17.5065 13.3419 17.8419V20.5875H11.9912ZM14.7367 20.5875V18.0803C14.7367 17.8625 14.669 17.6948 14.5337 17.5771C14.4042 17.4535 14.2423 17.3917 14.0481 17.3917C13.9127 17.3917 13.7921 17.4211 13.6862 17.48C13.5802 17.533 13.4949 17.6095 13.4301 17.7095C13.3713 17.8096 13.3419 17.9332 13.3419 18.0803L12.565 17.9744C12.5768 17.6095 12.6621 17.2975 12.821 17.0386C12.9858 16.7737 13.2006 16.5707 13.4655 16.4294C13.7362 16.2823 14.0393 16.2087 14.3747 16.2087C14.7043 16.2087 14.9957 16.2794 15.2487 16.4206C15.5077 16.556 15.7107 16.7531 15.8579 17.0121C16.0109 17.2652 16.0874 17.5712 16.0874 17.9302V20.5875H14.7367Z" fill="white"/>
<path d="M7.44643 20.6846C7.21689 20.6846 7.02562 20.6051 6.8726 20.4462C6.71958 20.2873 6.64307 20.0961 6.64307 19.8724C6.64307 19.637 6.71958 19.4428 6.8726 19.2898C7.02562 19.1308 7.21689 19.0514 7.44643 19.0514C7.68184 19.0514 7.87312 19.1308 8.02025 19.2898C8.17328 19.4428 8.24979 19.637 8.24979 19.8724C8.24979 20.0961 8.17328 20.2873 8.02025 20.4462C7.87312 20.6051 7.68184 20.6846 7.44643 20.6846Z" fill="white"/>
</g>
<defs>
<clipPath id="clip0_17002_370">
<rect width="24" height="24" fill="white"/>
</clipPath>
</defs>
</svg>
