<svg width="48" height="48" viewBox="0 0 48 48" fill="none" xmlns="http://www.w3.org/2000/svg">
<g clip-path="url(#clip0_11009_396)">
<path d="M0 6.85714C0 3.07005 3.07005 0 6.85714 0H41.1429C44.93 0 48 3.07005 48 6.85714V41.1429C48 44.93 44.93 48 41.1429 48H6.85714C3.07005 48 0 44.93 0 41.1429V6.85714Z" fill="#FF6624"/>
<path d="M38.1433 41.3691C37.2134 41.3691 36.3836 41.1808 35.6538 40.8041C34.9358 40.4157 34.3708 39.8801 33.9588 39.1974C33.5468 38.5147 33.3408 37.7437 33.3408 36.8844C33.3408 36.0252 33.5409 35.2601 33.9411 34.5891C34.3531 33.9064 34.9063 33.3708 35.6008 32.9824C36.2953 32.594 37.0781 32.3997 37.9491 32.3997C38.7966 32.3997 39.5441 32.5822 40.1914 32.9471C40.8388 33.312 41.345 33.8181 41.7099 34.4655C42.0866 35.1129 42.2749 35.8545 42.2749 36.6902C42.2749 36.8432 42.2631 37.008 42.2396 37.1846C42.2278 37.3494 42.1984 37.5436 42.1513 37.7673L34.7533 37.7849V35.931L41.0036 35.9133L39.8383 36.6902C39.8266 36.1958 39.75 35.7898 39.6088 35.4719C39.4675 35.1424 39.2557 34.8952 38.9732 34.7304C38.7024 34.5538 38.367 34.4655 37.9668 34.4655C37.543 34.4655 37.1722 34.5656 36.8544 34.7657C36.5484 34.954 36.3071 35.2248 36.1305 35.5779C35.9657 35.931 35.8833 36.3606 35.8833 36.8668C35.8833 37.3729 35.9716 37.8085 36.1482 38.1733C36.3365 38.5265 36.5955 38.8031 36.925 39.0032C37.2664 39.1915 37.6666 39.2857 38.1257 39.2857C38.5494 39.2857 38.932 39.2151 39.2733 39.0738C39.6147 38.9208 39.9148 38.6972 40.1738 38.4029L41.6569 39.886C41.2332 40.3804 40.7211 40.7512 40.1208 40.9984C39.5205 41.2455 38.8613 41.3691 38.1433 41.3691Z" fill="white"/>
<path d="M18.4907 41.1749V32.594H21.1921V41.1749H18.4907ZM23.9818 41.1749V36.1605C23.9818 35.725 23.8465 35.3896 23.5757 35.1541C23.3168 34.907 22.9931 34.7834 22.6046 34.7834C22.3339 34.7834 22.0926 34.8422 21.8807 34.9599C21.6688 35.0659 21.4982 35.2189 21.3687 35.419C21.251 35.6191 21.1921 35.8663 21.1921 36.1605L20.1504 35.7015C20.1504 35.0188 20.2975 34.4361 20.5918 33.9535C20.8861 33.4591 21.2863 33.0825 21.7924 32.8235C22.2986 32.5528 22.8695 32.4174 23.5051 32.4174C24.1054 32.4174 24.641 32.5528 25.1118 32.8235C25.5944 33.0942 25.977 33.4709 26.2595 33.9535C26.542 34.4361 26.6832 35.0129 26.6832 35.6838V41.1749H23.9818ZM29.4729 41.1749V36.1605C29.4729 35.725 29.3376 35.3896 29.0668 35.1541C28.8079 34.907 28.4842 34.7834 28.0957 34.7834C27.825 34.7834 27.5837 34.8422 27.3718 34.9599C27.1599 35.0659 26.9893 35.2189 26.8598 35.419C26.7421 35.6191 26.6832 35.8663 26.6832 36.1605L25.1295 35.9487C25.153 35.2189 25.3237 34.595 25.6415 34.0771C25.9711 33.5474 26.4007 33.1413 26.9304 32.8588C27.4719 32.5646 28.0781 32.4174 28.749 32.4174C29.4082 32.4174 29.9908 32.5587 30.497 32.8412C31.0149 33.1119 31.421 33.5062 31.7153 34.0241C32.0213 34.5303 32.1743 35.1424 32.1743 35.8604V41.1749H29.4729Z" fill="white"/>
<path d="M14.8924 41.3691C14.4333 41.3691 14.0507 41.2102 13.7447 40.8924C13.4387 40.5746 13.2856 40.192 13.2856 39.7448C13.2856 39.2739 13.4387 38.8855 13.7447 38.5794C14.0507 38.2616 14.4333 38.1027 14.8924 38.1027C15.3632 38.1027 15.7458 38.2616 16.04 38.5794C16.3461 38.8855 16.4991 39.2739 16.4991 39.7448C16.4991 40.192 16.3461 40.5746 16.04 40.8924C15.7458 41.2102 15.3632 41.3691 14.8924 41.3691Z" fill="white"/>
</g>
<defs>
<clipPath id="clip0_11009_396">
<rect width="48" height="48" fill="white"/>
</clipPath>
</defs>
</svg>
