<svg width="64" height="64" viewBox="0 0 64 64" fill="none" xmlns="http://www.w3.org/2000/svg">
<g clip-path="url(#clip0_17002_394)">
<path d="M0 9.14286C0 4.0934 4.0934 0 9.14286 0H54.8571C59.9066 0 64 4.0934 64 9.14286V54.8571C64 59.9066 59.9066 64 54.8571 64H9.14286C4.0934 64 0 59.9066 0 54.8571V9.14286Z" fill="#FF6624"/>
<path d="M50.8574 55.1589C49.6176 55.1589 48.5111 54.9077 47.5381 54.4055C46.5807 53.8876 45.8274 53.1735 45.2781 52.2632C44.7288 51.3529 44.4541 50.325 44.4541 49.1793C44.4541 48.0336 44.7209 47.0134 45.2545 46.1188C45.8038 45.2086 46.5415 44.4945 47.4674 43.9766C48.3934 43.4586 49.4371 43.1997 50.5985 43.1997C51.7285 43.1997 52.7251 43.4429 53.5883 43.9295C54.4515 44.416 55.1263 45.0909 55.6129 45.9541C56.1151 46.8172 56.3662 47.806 56.3662 48.9203C56.3662 49.1243 56.3505 49.3441 56.3191 49.5795C56.3034 49.7992 56.2642 50.0582 56.2014 50.3563L46.3374 50.3799V47.908L54.6712 47.8845L53.1174 48.9203C53.1017 48.2611 52.9997 47.7197 52.8114 47.2959C52.6231 46.8565 52.3406 46.5269 51.9639 46.3072C51.6029 46.0718 51.1556 45.9541 50.622 45.9541C50.057 45.9541 49.5626 46.0875 49.1389 46.3543C48.7308 46.6054 48.4091 46.9663 48.1737 47.4372C47.954 47.908 47.8441 48.4809 47.8441 49.1557C47.8441 49.8306 47.9618 50.4113 48.1972 50.8978C48.4483 51.3686 48.7936 51.7375 49.2331 52.0043C49.6882 52.2554 50.2218 52.3809 50.8339 52.3809C51.3989 52.3809 51.909 52.2868 52.3641 52.0984C52.8192 51.8944 53.2195 51.5962 53.5647 51.2038L55.5422 53.1813C54.9772 53.8405 54.2945 54.3349 53.4941 54.6645C52.6937 54.9941 51.8148 55.1589 50.8574 55.1589Z" fill="white"/>
<path d="M24.6548 54.8999V43.4586H28.2567V54.8999H24.6548ZM31.9762 54.8999V48.214C31.9762 47.6333 31.7958 47.1861 31.4348 46.8722C31.0895 46.5426 30.6579 46.3778 30.14 46.3778C29.779 46.3778 29.4573 46.4563 29.1748 46.6132C28.8923 46.7545 28.6647 46.9585 28.4921 47.2253C28.3351 47.4921 28.2567 47.8217 28.2567 48.214L26.8677 47.602C26.8677 46.6917 27.0639 45.9148 27.4562 45.2713C27.8486 44.6122 28.3822 44.1099 29.0571 43.7647C29.7319 43.4037 30.4931 43.2232 31.3406 43.2232C32.141 43.2232 32.8551 43.4037 33.4829 43.7647C34.1264 44.1256 34.6365 44.6279 35.0131 45.2713C35.3898 45.9148 35.5781 46.6838 35.5781 47.5784V54.8999H31.9762ZM39.2977 54.8999V48.214C39.2977 47.6333 39.1172 47.1861 38.7563 46.8722C38.411 46.5426 37.9794 46.3778 37.4615 46.3778C37.1005 46.3778 36.7788 46.4563 36.4963 46.6132C36.2138 46.7545 35.9862 46.9585 35.8135 47.2253C35.6566 47.4921 35.5781 47.8217 35.5781 48.214L33.5065 47.9315C33.5378 46.9585 33.7654 46.1267 34.1892 45.4361C34.6286 44.7299 35.2015 44.1884 35.9077 43.8117C36.6297 43.4194 37.4379 43.2232 38.3325 43.2232C39.2114 43.2232 39.9883 43.4115 40.6631 43.7882C41.3537 44.1492 41.8951 44.6749 42.2875 45.3655C42.6956 46.0404 42.8996 46.8565 42.8996 47.8138V54.8999H39.2977Z" fill="white"/>
<path d="M19.8566 55.1589C19.2446 55.1589 18.7345 54.947 18.3264 54.5232C17.9184 54.0995 17.7144 53.5894 17.7144 52.993C17.7144 52.3652 17.9184 51.8473 18.3264 51.4393C18.7345 51.0155 19.2446 50.8036 19.8566 50.8036C20.4844 50.8036 20.9945 51.0155 21.3869 51.4393C21.7949 51.8473 21.9989 52.3652 21.9989 52.993C21.9989 53.5894 21.7949 54.0995 21.3869 54.5232C20.9945 54.947 20.4844 55.1589 19.8566 55.1589Z" fill="white"/>
</g>
<defs>
<clipPath id="clip0_17002_394">
<rect width="64" height="64" fill="white"/>
</clipPath>
</defs>
</svg>
