<svg width="16" height="16" viewBox="0 0 16 16" fill="none" xmlns="http://www.w3.org/2000/svg">
<g clip-path="url(#clip0_17002_382)">
<path d="M0 2.28571C0 1.02335 1.02335 0 2.28571 0H13.7143C14.9767 0 16 1.02335 16 2.28571V13.7143C16 14.9767 14.9767 16 13.7143 16H2.28571C1.02335 16 0 14.9767 0 13.7143V2.28571Z" fill="#FF6624"/>
<path d="M12.7146 13.7897C12.4046 13.7897 12.128 13.7269 11.8848 13.6014C11.6454 13.4719 11.4571 13.2934 11.3198 13.0658C11.1824 12.8382 11.1138 12.5812 11.1138 12.2948C11.1138 12.0084 11.1805 11.7534 11.3139 11.5297C11.4512 11.3021 11.6356 11.1236 11.8671 10.9941C12.0986 10.8647 12.3595 10.7999 12.6499 10.7999C12.9324 10.7999 13.1815 10.8607 13.3973 10.9824C13.6131 11.104 13.7818 11.2727 13.9035 11.4885C14.029 11.7043 14.0918 11.9515 14.0918 12.2301C14.0918 12.2811 14.0879 12.336 14.08 12.3949C14.0761 12.4498 14.0663 12.5145 14.0506 12.5891L11.5846 12.595V11.977L13.668 11.9711L13.2796 12.2301C13.2757 12.0653 13.2502 11.9299 13.2031 11.824C13.156 11.7141 13.0854 11.6317 12.9912 11.5768C12.901 11.5179 12.7892 11.4885 12.6558 11.4885C12.5145 11.4885 12.3909 11.5219 12.285 11.5886C12.183 11.6514 12.1025 11.7416 12.0437 11.8593C11.9887 11.977 11.9613 12.1202 11.9613 12.2889C11.9613 12.4577 11.9907 12.6028 12.0496 12.7245C12.1123 12.8422 12.1986 12.9344 12.3085 13.0011C12.4223 13.0639 12.5557 13.0952 12.7087 13.0952C12.85 13.0952 12.9775 13.0717 13.0913 13.0246C13.2051 12.9736 13.3051 12.8991 13.3914 12.801L13.8858 13.2953C13.7446 13.4601 13.5739 13.5837 13.3738 13.6661C13.1737 13.7485 12.9539 13.7897 12.7146 13.7897Z" fill="white"/>
<path d="M6.16357 13.725V10.8646H7.06404V13.725H6.16357ZM7.99394 13.725V12.0535C7.99394 11.9083 7.94882 11.7965 7.85858 11.718C7.77226 11.6356 7.66436 11.5944 7.53488 11.5944C7.44463 11.5944 7.3642 11.6141 7.29357 11.6533C7.22295 11.6886 7.16606 11.7396 7.1229 11.8063C7.08366 11.873 7.06404 11.9554 7.06404 12.0535L6.7168 11.9005C6.7168 11.6729 6.76585 11.4787 6.86394 11.3178C6.96203 11.153 7.09543 11.0275 7.26415 10.9412C7.43286 10.8509 7.62316 10.8058 7.83503 10.8058C8.03514 10.8058 8.21366 10.8509 8.37061 10.9412C8.53148 11.0314 8.65899 11.1569 8.75316 11.3178C8.84733 11.4787 8.89441 11.6709 8.89441 11.8946V13.725H7.99394ZM9.82431 13.725V12.0535C9.82431 11.9083 9.77918 11.7965 9.68894 11.718C9.60262 11.6356 9.49472 11.5944 9.36524 11.5944C9.275 11.5944 9.19457 11.6141 9.12394 11.6533C9.05332 11.6886 8.99642 11.7396 8.95326 11.8063C8.91403 11.873 8.89441 11.9554 8.89441 12.0535L8.37649 11.9829C8.38434 11.7396 8.44123 11.5317 8.54717 11.359C8.65703 11.1825 8.80024 11.0471 8.97681 10.9529C9.15729 10.8548 9.35936 10.8058 9.583 10.8058C9.80273 10.8058 9.99694 10.8529 10.1657 10.947C10.3383 11.0373 10.4737 11.1687 10.5718 11.3414C10.6738 11.5101 10.7248 11.7141 10.7248 11.9534V13.725H9.82431Z" fill="white"/>
<path d="M4.96428 13.7897C4.81126 13.7897 4.68375 13.7368 4.58173 13.6308C4.47972 13.5249 4.42871 13.3974 4.42871 13.2483C4.42871 13.0913 4.47972 12.9618 4.58173 12.8598C4.68375 12.7539 4.81126 12.7009 4.96428 12.7009C5.12123 12.7009 5.24875 12.7539 5.34684 12.8598C5.44885 12.9618 5.49986 13.0913 5.49986 13.2483C5.49986 13.3974 5.44885 13.5249 5.34684 13.6308C5.24875 13.7368 5.12123 13.7897 4.96428 13.7897Z" fill="white"/>
</g>
<defs>
<clipPath id="clip0_17002_382">
<rect width="16" height="16" fill="white"/>
</clipPath>
</defs>
</svg>
