<svg width="32" height="32" viewBox="0 0 32 32" fill="none" xmlns="http://www.w3.org/2000/svg">
<g clip-path="url(#clip0_17002_346)">
<path d="M0 4.57143C0 2.0467 2.0467 0 4.57143 0H27.4286C29.9533 0 32 2.0467 32 4.57143V27.4286C32 29.9533 29.9533 32 27.4286 32H4.57143C2.0467 32 0 29.9533 0 27.4286V4.57143Z" fill="#F3474D"/>
<path d="M25.4287 27.5794C24.8088 27.5794 24.2556 27.4539 23.769 27.2028C23.2904 26.9438 22.9137 26.5868 22.639 26.1316C22.3644 25.6765 22.2271 25.1625 22.2271 24.5896C22.2271 24.0168 22.3605 23.5067 22.6273 23.0594C22.9019 22.6043 23.2707 22.2472 23.7337 21.9883C24.1967 21.7293 24.7185 21.5999 25.2992 21.5999C25.8642 21.5999 26.3625 21.7215 26.7941 21.9647C27.2257 22.208 27.5632 22.5454 27.8064 22.977C28.0575 23.4086 28.1831 23.903 28.1831 24.4602C28.1831 24.5622 28.1752 24.672 28.1596 24.7898C28.1517 24.8996 28.1321 25.0291 28.1007 25.1782L23.1687 25.19V23.954L27.3356 23.9423L26.5587 24.4602C26.5509 24.1306 26.4999 23.8599 26.4057 23.648C26.3115 23.4283 26.1703 23.2635 25.9819 23.1536C25.8015 23.0359 25.5778 22.977 25.311 22.977C25.0285 22.977 24.7813 23.0437 24.5694 23.1771C24.3654 23.3027 24.2046 23.4832 24.0868 23.7186C23.977 23.954 23.9221 24.2404 23.9221 24.5779C23.9221 24.9153 23.9809 25.2057 24.0986 25.4489C24.2242 25.6843 24.3968 25.8687 24.6165 26.0021C24.8441 26.1277 25.1109 26.1905 25.4169 26.1905C25.6994 26.1905 25.9545 26.1434 26.1821 26.0492C26.4096 25.9472 26.6097 25.7981 26.7824 25.6019L27.7711 26.5907C27.4886 26.9203 27.1473 27.1675 26.7471 27.3323C26.3468 27.497 25.9074 27.5794 25.4287 27.5794Z" fill="white"/>
<path d="M12.3271 27.45V21.7293H14.1281V27.45H12.3271ZM15.9879 27.45V24.1071C15.9879 23.8167 15.8976 23.5931 15.7172 23.4361C15.5445 23.2713 15.3287 23.1889 15.0698 23.1889C14.8893 23.1889 14.7284 23.2282 14.5871 23.3066C14.4459 23.3773 14.3321 23.4793 14.2458 23.6127C14.1673 23.7461 14.1281 23.9109 14.1281 24.1071L13.4336 23.801C13.4336 23.3459 13.5317 22.9574 13.7279 22.6357C13.9241 22.3061 14.1909 22.055 14.5283 21.8824C14.8657 21.7019 15.2463 21.6116 15.6701 21.6116C16.0703 21.6116 16.4273 21.7019 16.7412 21.8824C17.063 22.0628 17.318 22.314 17.5063 22.6357C17.6947 22.9574 17.7888 23.3419 17.7888 23.7892V27.45H15.9879ZM19.6486 27.45V24.1071C19.6486 23.8167 19.5584 23.5931 19.3779 23.4361C19.2052 23.2713 18.9894 23.1889 18.7305 23.1889C18.55 23.1889 18.3891 23.2282 18.2479 23.3066C18.1066 23.3773 17.9928 23.4793 17.9065 23.6127C17.8281 23.7461 17.7888 23.9109 17.7888 24.1071L16.753 23.9658C16.7687 23.4793 16.8825 23.0634 17.0943 22.7181C17.3141 22.365 17.6005 22.0942 17.9536 21.9059C18.3146 21.7097 18.7187 21.6116 19.166 21.6116C19.6055 21.6116 19.9939 21.7058 20.3313 21.8941C20.6766 22.0746 20.9473 22.3375 21.1435 22.6828C21.3475 23.0202 21.4496 23.4283 21.4496 23.9069V27.45H19.6486Z" fill="white"/>
<path d="M9.92808 27.5795C9.62204 27.5795 9.367 27.4735 9.16298 27.2616C8.95895 27.0498 8.85693 26.7947 8.85693 26.4965C8.85693 26.1827 8.95895 25.9237 9.16298 25.7197C9.367 25.5078 9.62204 25.4019 9.92808 25.4019C10.242 25.4019 10.497 25.5078 10.6932 25.7197C10.8972 25.9237 10.9992 26.1827 10.9992 26.4965C10.9992 26.7947 10.8972 27.0498 10.6932 27.2616C10.497 27.4735 10.242 27.5795 9.92808 27.5795Z" fill="white"/>
</g>
<defs>
<clipPath id="clip0_17002_346">
<rect width="32" height="32" fill="white"/>
</clipPath>
</defs>
</svg>
