<svg width="49" height="48" viewBox="0 0 49 48" fill="none" xmlns="http://www.w3.org/2000/svg">
<path d="M24.5 8.5C33.6125 8.5 41 15.8875 41 25C41 34.1125 33.6125 41.5 24.5 41.5C15.3875 41.5 8 34.1125 8 25C8 15.8875 15.3875 8.5 24.5 8.5ZM32.5093 20.1145C32.96 19.4193 32.7613 18.49 32.066 18.04C31.3685 17.59 30.4407 17.788 29.9907 18.4833L22.709 29.7228L18.8765 25.366C18.3298 24.7442 17.381 24.6827 16.7593 25.231C16.1375 25.7777 16.0767 26.7258 16.6235 27.3483L21.7648 33.1915C22.0513 33.5163 22.4622 33.7008 22.8912 33.7008C22.928 33.7008 22.9647 33.6993 23.0007 33.697C23.4695 33.6625 23.894 33.4105 24.1498 33.0167L32.5093 20.1145Z" fill="white"/>
</svg>
