<svg width="146" height="42" viewBox="0 0 146 42" fill="none" xmlns="http://www.w3.org/2000/svg">
<path d="M140.615 42H5.99985C3.03966 42 0.615234 39.6362 0.615234 36.75V5.25001C0.615234 2.36382 3.03966 6.67572e-06 5.99985 6.67572e-06H140.615C143.575 6.67572e-06 146 2.36382 146 5.25001V36.75C146 39.6362 143.575 42 140.615 42Z" fill="black"/>
<path d="M140.615 0.841319C143.108 0.841319 145.137 2.81926 145.137 5.25001V36.75C145.137 39.1808 143.108 41.1587 140.615 41.1587H5.99985C3.50677 41.1587 1.47812 39.1808 1.47812 36.75V5.25001C1.47812 2.81926 3.50677 0.841319 5.99985 0.841319H140.615ZM140.615 6.67572e-06H5.99985C3.03966 6.67572e-06 0.615234 2.36382 0.615234 5.25001V36.75C0.615234 39.6362 3.03966 42 5.99985 42H140.615C143.575 42 146 39.6362 146 36.75V5.25001C146 2.36382 143.575 6.67572e-06 140.615 6.67572e-06Z" fill="#A6A6A6"/>
<path d="M11.8529 7.91565C11.5366 8.23852 11.3535 8.74121 11.3535 9.39221V32.613C11.3535 33.264 11.5366 33.7666 11.8529 34.0895L11.931 34.1604L25.2768 21.1535V20.8464L11.931 7.83953L11.8529 7.91565Z" fill="url(#paint0_linear_8089_6949)"/>
<path d="M29.7205 25.4913L25.2769 21.1535V20.8464L29.7259 16.5086L29.8255 16.565L35.0944 19.488C36.598 20.3175 36.598 21.6825 35.0944 22.5172L29.8255 25.4349L29.7205 25.4913Z" fill="url(#paint1_linear_8089_6949)"/>
<path d="M29.8255 25.4349L25.2769 21L11.853 34.0895C12.3525 34.6014 13.1669 34.6631 14.093 34.1512L29.8255 25.4349Z" fill="url(#paint2_linear_8089_6949)"/>
<path d="M29.8255 16.5651L14.093 7.84875C13.1669 7.34213 12.3525 7.40382 11.853 7.91569L25.2769 21L29.8255 16.5651Z" fill="url(#paint3_linear_8089_6949)"/>
<path d="M51.6805 10.7559C51.6805 11.6327 51.4112 12.3349 50.8808 12.8586C50.271 13.4794 49.4768 13.7917 48.5035 13.7917C47.5733 13.7917 46.7791 13.4741 46.1276 12.8481C45.4747 12.2128 45.1489 11.4332 45.1489 10.5C45.1489 9.56681 45.4747 8.78719 46.1276 8.15719C46.7791 7.52588 47.5733 7.20825 48.5035 7.20825C48.9666 7.20825 49.4082 7.30144 49.8295 7.47469C50.2495 7.64925 50.5914 7.8855 50.8391 8.17688L50.2764 8.73075C49.8443 8.23332 49.256 7.98788 48.5035 7.98788C47.8251 7.98788 47.2368 8.21888 46.7374 8.68481C46.2433 9.15206 45.9957 9.75713 45.9957 10.5C45.9957 11.2429 46.2433 11.8532 46.7374 12.3204C47.2368 12.7811 47.8251 13.0174 48.5035 13.0174C49.2237 13.0174 49.8295 12.7811 50.3074 12.3152C50.6224 12.0067 50.8014 11.5815 50.8485 11.0381H48.5035V10.2795H51.632C51.6697 10.4436 51.6805 10.6024 51.6805 10.7559Z" fill="white" stroke="white" stroke-width="0.16" stroke-miterlimit="10"/>
<path d="M56.6436 8.12566H53.705V10.1207H56.3542V10.8793H53.705V12.8743H56.6436V13.6473H52.873V7.3526H56.6436V8.12566Z" fill="white" stroke="white" stroke-width="0.16" stroke-miterlimit="10"/>
<path d="M60.1466 13.6473H59.3147V8.12566H57.5122V7.3526H61.9505V8.12566H60.1466V13.6473Z" fill="white" stroke="white" stroke-width="0.16" stroke-miterlimit="10"/>
<path d="M65.1621 13.6473V7.3526H65.9927V13.6473H65.1621Z" fill="white" stroke="white" stroke-width="0.16" stroke-miterlimit="10"/>
<path d="M69.6745 13.6473H68.8493V8.12566H67.04V7.3526H71.4837V8.12566H69.6745V13.6473Z" fill="white" stroke="white" stroke-width="0.16" stroke-miterlimit="10"/>
<path d="M79.8865 12.8376C79.2498 13.4741 78.4609 13.7917 77.5199 13.7917C76.5736 13.7917 75.7848 13.4741 75.148 12.8376C74.5126 12.2023 74.1963 11.4227 74.1963 10.5C74.1963 9.57731 74.5126 8.79769 75.148 8.16244C75.7848 7.52588 76.5736 7.20825 77.5199 7.20825C78.4555 7.20825 79.2444 7.52588 79.8811 8.16769C80.5219 8.80819 80.8382 9.58256 80.8382 10.5C80.8382 11.4227 80.5219 12.2023 79.8865 12.8376ZM75.7632 12.3099C76.2424 12.7811 76.8253 13.0174 77.5199 13.0174C78.2092 13.0174 78.7974 12.7811 79.2713 12.3099C79.7492 11.8388 79.9915 11.2337 79.9915 10.5C79.9915 9.76631 79.7492 9.16125 79.2713 8.69006C78.7974 8.21888 78.2092 7.98263 77.5199 7.98263C76.8253 7.98263 76.2424 8.21888 75.7632 8.69006C75.2853 9.16125 75.043 9.76631 75.043 10.5C75.043 11.2337 75.2853 11.8388 75.7632 12.3099Z" fill="white" stroke="white" stroke-width="0.16" stroke-miterlimit="10"/>
<path d="M82.0054 13.6473V7.3526H83.015L86.1542 12.2482H86.1906L86.1542 11.0381V7.3526H86.9848V13.6473H86.1179L82.8306 8.51022H82.7942L82.8306 9.7256V13.6473H82.0054Z" fill="white" stroke="white" stroke-width="0.16" stroke-miterlimit="10"/>
<path d="M73.9917 22.8401C71.4623 22.8401 69.396 24.717 69.396 27.3066C69.396 29.8751 71.4623 31.7717 73.9917 31.7717C76.5265 31.7717 78.5929 29.8751 78.5929 27.3066C78.5929 24.717 76.5265 22.8401 73.9917 22.8401ZM73.9917 30.0129C72.6038 30.0129 71.4098 28.896 71.4098 27.3066C71.4098 25.6961 72.6038 24.5989 73.9917 24.5989C75.3796 24.5989 76.579 25.6961 76.579 27.3066C76.579 28.896 75.3796 30.0129 73.9917 30.0129ZM63.9642 22.8401C61.4294 22.8401 59.3685 24.717 59.3685 27.3066C59.3685 29.8751 61.4294 31.7717 63.9642 31.7717C66.4977 31.7717 68.56 29.8751 68.56 27.3066C68.56 24.717 66.4977 22.8401 63.9642 22.8401ZM63.9642 30.0129C62.575 30.0129 61.3769 28.896 61.3769 27.3066C61.3769 25.6961 62.575 24.5989 63.9642 24.5989C65.3521 24.5989 66.5461 25.6961 66.5461 27.3066C66.5461 28.896 65.3521 30.0129 63.9642 30.0129ZM52.0319 24.2091V26.1069H56.6802C56.5442 27.1674 56.1808 27.9471 55.6235 28.4904C54.945 29.1467 53.8883 29.8751 52.0319 29.8751C49.1713 29.8751 46.9313 27.6242 46.9313 24.8351C46.9313 22.0461 49.1713 19.7951 52.0319 19.7951C53.5786 19.7951 54.704 20.3844 55.5346 21.1483L56.9063 19.8109C55.7446 18.7294 54.1992 17.8986 52.0319 17.8986C48.1092 17.8986 44.8125 21.0105 44.8125 24.8351C44.8125 28.6598 48.1092 31.7717 52.0319 31.7717C54.1521 31.7717 55.7446 31.0944 56.9965 29.8239C58.2794 28.5731 58.6792 26.8144 58.6792 25.3943C58.6792 24.9533 58.6415 24.5477 58.5742 24.2091H52.0319ZM100.825 25.6804C100.446 24.6816 99.2792 22.8401 96.9019 22.8401C94.5461 22.8401 92.5848 24.6501 92.5848 27.3066C92.5848 29.8082 94.5259 31.7717 97.1281 31.7717C99.2321 31.7717 100.446 30.5209 100.946 29.7924L99.3842 28.7779C98.8633 29.5207 98.1538 30.0129 97.1281 30.0129C96.109 30.0129 95.3781 29.5575 94.9096 28.6598L101.036 26.1883L100.825 25.6804ZM94.5784 27.1674C94.5259 25.4454 95.9502 24.5634 96.9706 24.5634C97.7702 24.5634 98.4486 24.9533 98.6748 25.5111L94.5784 27.1674ZM89.599 31.5H91.6129V18.375H89.599V31.5ZM86.3009 23.835H86.2336C85.7813 23.3126 84.9184 22.8401 83.8254 22.8401C81.5315 22.8401 79.4342 24.8036 79.4342 27.321C79.4342 29.8239 81.5315 31.7717 83.8254 31.7717C84.9184 31.7717 85.7813 31.2952 86.2336 30.7571H86.3009V31.3976C86.3009 33.1052 85.3654 34.0226 83.8563 34.0226C82.6259 34.0226 81.8627 33.1564 81.5477 32.4279L79.7963 33.1406C80.3011 34.3245 81.6379 35.7814 83.8563 35.7814C86.2175 35.7814 88.2098 34.4269 88.2098 31.1312V23.1118H86.3009V23.835ZM83.9977 30.0129C82.6098 30.0129 81.4481 28.8802 81.4481 27.321C81.4481 25.7473 82.6098 24.5989 83.9977 24.5989C85.3654 24.5989 86.4436 25.7473 86.4436 27.321C86.4436 28.8802 85.3654 30.0129 83.9977 30.0129ZM110.253 18.375H105.437V31.5H107.445V26.5269H110.253C112.484 26.5269 114.671 24.9533 114.671 22.4503C114.671 19.9487 112.478 18.375 110.253 18.375ZM110.306 24.7013H107.445V20.2007H110.306C111.805 20.2007 112.661 21.4148 112.661 22.4503C112.661 23.4662 111.805 24.7013 110.306 24.7013ZM122.721 22.8152C121.27 22.8152 119.761 23.4399 119.14 24.8246L120.923 25.5531C121.306 24.8246 122.012 24.5884 122.757 24.5884C123.799 24.5884 124.856 25.1987 124.872 26.2763V26.4141C124.509 26.2093 123.731 25.9061 122.774 25.9061C120.854 25.9061 118.898 26.9364 118.898 28.8593C118.898 30.618 120.47 31.7507 122.238 31.7507C123.589 31.7507 124.335 31.1561 124.804 30.4644H124.872V31.479H126.812V26.4443C126.812 24.1172 125.03 22.8152 122.721 22.8152ZM122.479 30.0077C121.822 30.0077 120.907 29.6901 120.907 28.896C120.907 27.8801 122.048 27.4903 123.036 27.4903C123.921 27.4903 124.335 27.6806 124.872 27.9313C124.715 29.1467 123.642 30.0077 122.479 30.0077ZM133.879 23.1026L131.571 28.7923H131.502L129.115 23.1026H126.949L130.536 31.0537L128.489 35.4782H130.588L136.114 23.1026H133.879ZM115.775 31.5H117.789V18.375H115.775V31.5Z" fill="white"/>
<defs>
<linearGradient id="paint0_linear_8089_6949" x1="24.0918" y1="32.8548" x2="6.47596" y2="14.7872" gradientUnits="userSpaceOnUse">
<stop stop-color="#00A0FF"/>
<stop offset="0.0066" stop-color="#00A1FF"/>
<stop offset="0.2601" stop-color="#00BEFF"/>
<stop offset="0.5122" stop-color="#00D2FF"/>
<stop offset="0.7604" stop-color="#00DFFF"/>
<stop offset="1" stop-color="#00E3FF"/>
</linearGradient>
<linearGradient id="paint1_linear_8089_6949" x1="37.0524" y1="20.9985" x2="10.9942" y2="20.9985" gradientUnits="userSpaceOnUse">
<stop stop-color="#FFE000"/>
<stop offset="0.4087" stop-color="#FFBD00"/>
<stop offset="0.7754" stop-color="#FFA500"/>
<stop offset="1" stop-color="#FF9C00"/>
</linearGradient>
<linearGradient id="paint2_linear_8089_6949" x1="27.3521" y1="18.5891" x2="3.46355" y2="-5.91201" gradientUnits="userSpaceOnUse">
<stop stop-color="#FF3A44"/>
<stop offset="1" stop-color="#C31162"/>
</linearGradient>
<linearGradient id="paint3_linear_8089_6949" x1="8.47397" y1="41.815" x2="19.1413" y2="30.8743" gradientUnits="userSpaceOnUse">
<stop stop-color="#32A071"/>
<stop offset="0.0685" stop-color="#2DA771"/>
<stop offset="0.4762" stop-color="#15CF74"/>
<stop offset="0.8009" stop-color="#06E775"/>
<stop offset="1" stop-color="#00F076"/>
</linearGradient>
</defs>
</svg>
