<svg width="96" height="96" viewBox="0 0 96 96" fill="none" xmlns="http://www.w3.org/2000/svg">
<g opacity="0.64">
<rect width="96" height="96" rx="48" fill="#262626"/>
<path d="M59.8125 27.75C54.5396 27.75 50.25 32.2928 50.25 37.875C50.25 43.4572 54.5396 48 59.8125 48C65.0854 48 69.375 43.4572 69.375 37.875C69.375 32.2928 65.0854 27.75 59.8125 27.75ZM36.1875 31.125C30.9146 31.125 26.625 35.6678 26.625 41.25C26.625 46.8323 30.9146 51.375 36.1875 51.375C41.4604 51.375 45.75 46.8323 45.75 41.25C45.75 35.6678 41.4604 31.125 36.1875 31.125ZM59.8125 32.25C62.6036 32.25 64.875 34.7734 64.875 37.875C64.875 40.9766 62.6036 43.5 59.8125 43.5C57.0214 43.5 54.75 40.9766 54.75 37.875C54.75 34.7734 57.0214 32.25 59.8125 32.25ZM59.8103 50.4038C54.2764 50.4038 49.2119 52.4415 45.8115 55.8333C43.1294 54.5211 40.0299 53.7788 36.75 53.7788C28.8255 53.7788 21.9146 58.0602 19.5498 64.4333C18.4586 67.373 20.6762 70.5 23.8059 70.5H49.6941C51.86 70.5 53.5766 69.0092 54.0799 67.125H72.1106C75.4924 67.125 78.5117 63.5748 76.76 59.9399C73.97 54.1462 67.3152 50.4038 59.8103 50.4038ZM59.8125 54.9038C65.5106 54.9038 70.6935 57.7128 72.7061 61.8933C72.885 62.2736 72.4594 62.625 72.1084 62.625H53.1131C52.2494 61.0336 51.0901 59.6071 49.6919 58.3887C52.2581 56.2199 55.9143 54.9038 59.8125 54.9038Z" fill="#8A8C93"/>
</g>
</svg>
