<svg width="48" height="48" viewBox="0 0 48 48" fill="none" xmlns="http://www.w3.org/2000/svg">
<path d="M40.7064 34.125C41.3835 35.3003 41.3835 36.7014 40.7047 37.875C40.0276 39.0486 38.8141 39.75 37.4582 39.75H10.5415C9.1856 39.75 7.97206 39.0486 7.29498 37.875C6.61616 36.7014 6.61616 35.3003 7.29324 34.125L20.7516 10.8142C21.4304 9.6406 22.6439 8.93921 23.9998 8.93921C25.3557 8.93921 26.5693 9.6406 27.2481 10.8142L40.7064 34.125ZM22.7238 17.7205C22.4009 18.0382 22.2446 18.434 22.2585 18.9097L22.4964 27.7951C22.5259 28.7899 23.0294 29.2882 24.0103 29.2882C24.9616 29.2882 25.4443 28.7899 25.4582 27.7951L25.7394 18.9323C25.7533 18.4566 25.5919 18.0555 25.2533 17.7309C24.9148 17.408 24.4929 17.2448 23.9894 17.2448C23.4703 17.2448 23.0484 17.4045 22.7238 17.7205ZM23.9998 34.8663C25.1752 34.8663 25.88 33.9462 25.88 33.0677C25.88 32.1892 25.1509 31.2691 23.9998 31.2691C22.8488 31.2691 22.1196 32.2413 22.1196 33.0677C22.1196 33.8941 22.8245 34.8663 23.9998 34.8663Z" fill="white"/>
</svg>
