<svg width="48" height="48" viewBox="0 0 48 48" fill="none" xmlns="http://www.w3.org/2000/svg">
<path d="M12.75 9C10.2682 9 8.25 11.0182 8.25 13.5V34.5C8.25 36.9818 10.2682 39 12.75 39H35.25C37.7318 39 39.75 36.9818 39.75 34.5V19.5C39.75 17.0182 37.7318 15 35.25 15H20.25H12.75C11.9227 15 11.25 14.3273 11.25 13.5C11.25 12.6727 11.9227 12 12.75 12H34.5C35.328 12 36 11.328 36 10.5C36 9.672 35.328 9 34.5 9H12.75ZM11.25 17.7378C11.7199 17.9046 12.2236 18 12.75 18H20.25H35.25C36.0772 18 36.75 18.6727 36.75 19.5V34.5C36.75 35.3272 36.0772 36 35.25 36H12.75C11.9227 36 11.25 35.3272 11.25 34.5V17.7378ZM31.5 24.75C30.2572 24.75 29.25 25.7572 29.25 27C29.25 28.2428 30.2572 29.25 31.5 29.25C32.7428 29.25 33.75 28.2428 33.75 27C33.75 25.7572 32.7428 24.75 31.5 24.75Z" fill="white"/>
</svg>
