<svg width="32" height="30" viewBox="0 0 32 30" fill="none" xmlns="http://www.w3.org/2000/svg">
<path d="M27.25 6C29.7309 6 31.75 8.0191 31.75 10.5V25.5C31.75 27.9809 29.7309 30 27.25 30H4.75C2.2691 30 0.25 27.9809 0.25 25.5V4.5C0.25 2.0191 2.2691 0 4.75 0H26.5C27.3281 0 28 0.671875 28 1.5C28 2.32812 27.3281 3 26.5 3H4.75C3.92361 3 3.25 3.67361 3.25 4.5C3.25 5.32639 3.92361 6 4.75 6H27.25ZM23.5 20.25C24.7431 20.25 25.75 19.2431 25.75 18C25.75 16.7569 24.7431 15.75 23.5 15.75C22.2569 15.75 21.25 16.7569 21.25 18C21.25 19.2431 22.2569 20.25 23.5 20.25Z" fill="white"/>
</svg>
