<svg width="48" height="48" viewBox="0 0 48 48" fill="none" xmlns="http://www.w3.org/2000/svg">
<path d="M15 7.5C12.5145 7.5 10.5 9.5145 10.5 12V36C10.5 38.4855 12.5145 40.5 15 40.5H33C35.4855 40.5 37.5 38.4855 37.5 36V12C37.5 9.5145 35.4855 7.5 33 7.5H29.25H18.75H15ZM15 10.5H18.75C18.75 11.7428 19.7572 12.75 21 12.75H27C28.2428 12.75 29.25 11.7428 29.25 10.5H33C33.8288 10.5 34.5 11.1712 34.5 12V36C34.5 36.8288 33.8288 37.5 33 37.5H15C14.1712 37.5 13.5 36.8288 13.5 36V12C13.5 11.1712 14.1712 10.5 15 10.5Z" fill="white"/>
</svg>
