<svg width="48" height="48" viewBox="0 0 48 48" fill="none" xmlns="http://www.w3.org/2000/svg">
<path d="M24 6.75C15.3682 6.75 9.75 11.6827 9.75 20.25V24C9.75 24 9 25.3897 9 27C9 29.1562 10.7535 30.8857 12 31.5C13.422 37.431 20.25 41.25 24 41.25C27.75 41.25 34.578 37.431 36 31.5C37.2465 30.8857 39 28.8911 39 26.7349C39 25.1246 38.25 24 38.25 24V20.25C38.25 10.1355 31.0034 9.56689 31.0034 9.56689C31.0034 9.56689 28.8608 6.75 24 6.75ZM29.5576 17.6748C30.6946 18.6933 33.3537 23.0693 33.3867 25.5H35.6924C35.8543 25.8013 36 26.2092 36 26.7349C36 28.3894 33.4116 29.4316 33.4116 29.4316C33.4116 34.3989 26.5627 38.25 24 38.25C21.4373 38.25 14.5884 34.1026 14.5884 29.4316C14.5884 29.4316 12 28.686 12 27C12 26.3694 12.1439 25.8712 12.3047 25.5H14.3496L15.8525 22.4927C22.2358 22.3937 26.7054 20.4918 29.5576 17.6748Z" fill="white"/>
</svg>
