<svg width="48" height="48" viewBox="0 0 48 48" fill="none" xmlns="http://www.w3.org/2000/svg">
<path d="M42.75 24C42.75 24.585 42.4125 25.1175 41.88 25.3575L11.13 39.6075C10.9275 39.705 10.7175 39.75 10.5 39.75C10.2203 39.75 9.948 39.6705 9.70425 39.5265C9.25275 39.2588 9 38.7465 9 38.2215V29.2575C9 28.5428 9.50475 27.927 10.206 27.7868L25.4625 24.735C26.265 24.5775 26.265 23.4225 25.4625 23.265L10.206 20.214C9.50475 20.0738 9 19.458 9 18.7425V9.75002C9 9.24002 9.2625 8.76002 9.69 8.48252C10.125 8.21252 10.665 8.17502 11.13 8.39252L41.88 22.6425C42.4125 22.8825 42.75 23.415 42.75 24Z" fill="white"/>
</svg>
