<svg width="48" height="48" viewBox="0 0 48 48" fill="none" xmlns="http://www.w3.org/2000/svg">
<path d="M28.1602 11.2808C27.7762 11.2746 27.39 11.4146 27.0923 11.7026C26.4975 12.2786 26.4818 13.229 27.0586 13.8237L35.4595 22.5H9C8.172 22.5 7.5 23.172 7.5 24C7.5 24.828 8.172 25.5 9 25.5H35.4595L27.0586 34.1763C26.4826 34.771 26.4975 35.7206 27.0923 36.2974C27.384 36.5794 27.761 36.7207 28.1367 36.7207C28.5282 36.7207 28.9201 36.5682 29.2134 36.2637L40.0767 25.043C40.6399 24.4617 40.6399 23.5383 40.0767 22.957L29.2134 11.7363C28.9261 11.4386 28.5442 11.287 28.1602 11.2808Z" fill="white"/>
</svg>
