<svg width="33" height="32" viewBox="0 0 33 32" fill="none" xmlns="http://www.w3.org/2000/svg">
<g clip-path="url(#clip0_25003_306)">
<path d="M24 10C25.6539 10 27 11.3461 27 13V23C27 24.6539 25.6539 26 24 26H9C7.34606 26 6 24.6539 6 23V9C6 7.34606 7.34606 6 9 6H23.5C24.0521 6 24.5 6.44792 24.5 7C24.5 7.55208 24.0521 8 23.5 8H9C8.44907 8 8 8.44907 8 9C8 9.55093 8.44907 10 9 10H24ZM21.5 19.5C22.3287 19.5 23 18.8287 23 18C23 17.1713 22.3287 16.5 21.5 16.5C20.6713 16.5 20 17.1713 20 18C20 18.8287 20.6713 19.5 21.5 19.5Z" fill="#FF6624"/>
</g>
<defs>
<clipPath id="clip0_25003_306">
<rect width="32" height="32" fill="white" transform="translate(0.5)"/>
</clipPath>
</defs>
</svg>
