<svg width="48" height="48" viewBox="0 0 48 48" fill="none" xmlns="http://www.w3.org/2000/svg">
<path d="M31.8749 10.5C28.3596 10.5 25.4999 13.5285 25.4999 17.25C25.4999 20.9715 28.3596 24 31.8749 24C35.3901 24 38.2499 20.9715 38.2499 17.25C38.2499 13.5285 35.3901 10.5 31.8749 10.5ZM16.1249 12.75C12.6096 12.75 9.74985 15.7785 9.74985 19.5C9.74985 23.2215 12.6096 26.25 16.1249 26.25C19.6401 26.25 22.4999 23.2215 22.4999 19.5C22.4999 15.7785 19.6401 12.75 16.1249 12.75ZM31.8749 13.5C33.7356 13.5 35.2499 15.1823 35.2499 17.25C35.2499 19.3177 33.7356 21 31.8749 21C30.0141 21 28.4999 19.3177 28.4999 17.25C28.4999 15.1823 30.0141 13.5 31.8749 13.5ZM31.8734 25.6025C28.1841 25.6025 24.8078 26.961 22.5409 29.2222C20.7528 28.3474 18.6864 27.8525 16.4999 27.8525C11.2169 27.8525 6.60956 30.7068 5.03306 34.9556C4.30556 36.9153 5.78396 39 7.87046 39H25.1292C26.5732 39 27.7176 38.0061 28.0531 36.75H40.0736C42.3281 36.75 44.3409 34.3832 43.1732 31.96C41.3132 28.0975 36.8766 25.6025 31.8734 25.6025ZM31.8749 28.6025C35.6736 28.6025 39.1288 30.4752 40.4706 33.2622C40.5898 33.5157 40.3061 33.75 40.0721 33.75H27.4085C26.8328 32.6891 26.0599 31.7381 25.1278 30.9258C26.8386 29.4799 29.276 28.6025 31.8749 28.6025Z" fill="white"/>
</svg>
