<svg width="48" height="48" viewBox="0 0 48 48" fill="none" xmlns="http://www.w3.org/2000/svg">
<path d="M24 7.5C33.1125 7.5 40.5 14.8875 40.5 24C40.5 33.1125 33.1125 40.5 24 40.5C14.8875 40.5 7.5 33.1125 7.5 24C7.5 14.8875 14.8875 7.5 24 7.5ZM25.5 31.5C25.5 31.0492 25.5 24.4508 25.5 24C25.5 23.172 24.8288 22.5 24 22.5C23.1713 22.5 22.5 23.172 22.5 24C22.5 24.4508 22.5 31.0492 22.5 31.5C22.5 32.328 23.1713 33 24 33C24.8288 33 25.5 32.328 25.5 31.5ZM24 20.25C25.2428 20.25 26.25 19.2428 26.25 18C26.25 16.7572 25.2428 15.75 24 15.75C22.7572 15.75 21.75 16.7572 21.75 18C21.75 19.2428 22.7572 20.25 24 20.25Z" fill="white"/>
</svg>
