<svg width="42" height="34" viewBox="0 0 42 34" fill="none" xmlns="http://www.w3.org/2000/svg">
<path d="M8.50868 0.052063C6.8125 0.052063 5.38889 0.35241 4.23611 0.951369C3.08507 1.55206 2.21528 2.4288 1.62847 3.57984C1.0434 4.73262 0.75 6.14408 0.75 7.81248V13.1041C0.75 14.7725 1.0434 16.1823 1.63021 17.335C2.21701 18.4861 3.08507 19.3628 4.23611 19.9635C5.38889 20.5625 6.6632 20.8646 8.35938 20.8646V24.9809C8.35938 25.6979 8.53472 26.2673 8.88715 26.6875C9.23958 27.1094 9.73958 27.3194 10.3872 27.3194C10.842 27.3194 11.2552 27.1979 11.6285 26.9583C12 26.7153 12.4705 26.3403 13.0365 25.8298L18.5799 20.8646H23.0556C24.7517 20.8646 26.1753 20.5625 27.3281 19.9635C28.4809 19.3628 29.3472 18.4861 29.934 17.335C30.5191 16.1823 30.8142 14.7725 30.8142 13.1041V7.81248C30.8142 6.14234 30.5208 4.73262 29.934 3.57984C29.3472 2.4288 28.4809 1.55206 27.3281 0.951369C26.1753 0.35241 24.7517 0.052063 23.0556 0.052063H8.50868ZM32.9549 6.05206C33.0295 6.61456 33.0677 7.19963 33.0677 7.81422V13.1024C33.0677 15.1198 32.684 16.8906 31.9427 18.3524C31.1406 19.9288 29.941 21.1423 28.3646 21.96C26.8958 22.7239 25.1094 23.1146 23.0556 23.1146H19.4392L15.7049 26.4514C16.5972 26.7291 17.6094 26.8646 18.75 26.8646H23.2205L28.7691 31.8298C29.3316 32.3403 29.8056 32.7153 30.1736 32.9548C30.5486 33.1944 30.9601 33.3142 31.4184 33.3142C32.0625 33.3142 32.566 33.1059 32.9184 32.6857C33.2708 32.2656 33.4427 31.6962 33.4427 30.9826V26.8646C35.1441 26.8646 36.4132 26.5642 37.5677 25.9635C38.7222 25.3646 39.5851 24.4878 40.1771 23.3316C40.7622 22.184 41.0556 20.776 41.0556 19.1024V13.8142C41.0556 12.1423 40.7622 10.7326 40.1771 9.57637C39.5851 8.4288 38.7222 7.55206 37.5677 6.95137C36.4132 6.35241 34.9948 6.05206 33.2934 6.05206H32.9549Z" fill="white"/>
</svg>
