<svg width="48" height="48" viewBox="0 0 48 48" fill="none" xmlns="http://www.w3.org/2000/svg">
<path d="M19.8385 11.281C19.4545 11.2871 19.0743 11.4388 18.7867 11.7365L7.92195 22.9572C7.3587 23.5385 7.3587 24.4619 7.92195 25.0432L18.7867 36.2639C19.0807 36.5676 19.4719 36.7209 19.8634 36.7209C20.2391 36.7209 20.616 36.5796 20.9078 36.2976C21.5025 35.7216 21.5182 34.7712 20.9415 34.1765L12.5406 25.5002H39.0001C39.8281 25.5002 40.5001 24.8282 40.5001 24.0002C40.5001 23.1722 39.8281 22.5002 39.0001 22.5002H12.5406L20.9415 13.8239C21.5175 13.2292 21.5025 12.2796 20.9078 11.7028C20.61 11.4148 20.2224 11.2748 19.8385 11.281Z" fill="black"/>
</svg>
