<svg width="48" height="48" viewBox="0 0 48 48" fill="none" xmlns="http://www.w3.org/2000/svg">
<path d="M12 8.25C9.93225 8.25 8.25 9.93225 8.25 12V18C8.25 20.0677 9.93225 21.75 12 21.75H18C20.0677 21.75 21.75 20.0677 21.75 18V12C21.75 9.93225 20.0677 8.25 18 8.25H12ZM29.25 8.25C27.1823 8.25 25.5 9.93225 25.5 12V18C25.5 20.0677 27.1823 21.75 29.25 21.75H35.25C37.3177 21.75 39 20.0677 39 18V12C39 9.93225 37.3177 8.25 35.25 8.25H29.25ZM12 11.25H18C18.414 11.25 18.75 11.5868 18.75 12V18C18.75 18.4132 18.414 18.75 18 18.75H12C11.586 18.75 11.25 18.4132 11.25 18V12C11.25 11.5868 11.586 11.25 12 11.25ZM29.25 11.25H35.25C35.664 11.25 36 11.5868 36 12V18C36 18.4132 35.664 18.75 35.25 18.75H29.25C28.836 18.75 28.5 18.4132 28.5 18V12C28.5 11.5868 28.836 11.25 29.25 11.25ZM13.5 13.5V16.5H16.5V13.5H13.5ZM30.75 13.5V16.5H33.75V13.5H30.75ZM12 25.5C9.93225 25.5 8.25 27.1823 8.25 29.25V35.25C8.25 37.3177 9.93225 39 12 39H18C20.0677 39 21.75 37.3177 21.75 35.25V29.25C21.75 27.1823 20.0677 25.5 18 25.5H12ZM25.5 25.5V30H30V25.5H25.5ZM30 30V34.5H34.5V30H30ZM34.5 30H39V25.5H34.5V30ZM34.5 34.5V39H39V34.5H34.5ZM30 34.5H25.5V39H30V34.5ZM12 28.5H18C18.414 28.5 18.75 28.8368 18.75 29.25V35.25C18.75 35.6632 18.414 36 18 36H12C11.586 36 11.25 35.6632 11.25 35.25V29.25C11.25 28.8368 11.586 28.5 12 28.5ZM13.5 30.75V33.75H16.5V30.75H13.5Z" fill="white"/>
</svg>
