<svg width="48" height="48" viewBox="0 0 48 48" fill="none" xmlns="http://www.w3.org/2000/svg">
<path d="M11.25 9C7.52775 9 4.5 12.0285 4.5 15.75V33C4.5 36.7215 7.52775 39.75 11.25 39.75H12.4028V40.6875C12.4028 41.5155 13.0748 42.1875 13.9028 42.1875C14.7308 42.1875 15.4028 41.5155 15.4028 40.6875V39.75H31.7637V40.6875C31.7637 41.5155 32.4357 42.1875 33.2637 42.1875C34.0917 42.1875 34.7637 41.5155 34.7637 40.6875V39.75H35.25C38.9722 39.75 42 36.7215 42 33V15.75C42 12.0285 38.9722 9 35.25 9H11.25ZM25.9204 16.1968C30.2217 16.1968 33.7222 19.6958 33.7222 23.9971C33.7222 28.2983 30.2217 31.7988 25.9204 31.7988C21.6184 31.7988 18.1194 28.2983 18.1201 23.9971C18.1201 19.6958 21.6192 16.1968 25.9204 16.1968ZM25.9204 18.4468C22.8589 18.4468 20.3701 20.9363 20.3701 23.9971C20.3701 27.0578 22.8597 29.5488 25.9204 29.5488C28.9812 29.5488 31.4722 27.0578 31.4722 23.9971C31.4722 20.9363 28.9812 18.4468 25.9204 18.4468ZM13.2363 20.5371C13.8573 20.5371 14.3613 21.0404 14.3613 21.6621V26.335C14.3613 26.956 13.8573 27.46 13.2363 27.46C12.6153 27.46 12.1113 26.9567 12.1113 26.335V21.6621C12.1113 21.0404 12.6153 20.5371 13.2363 20.5371Z" fill="white"/>
</svg>
