<svg width="48" height="48" viewBox="0 0 48 48" fill="none" xmlns="http://www.w3.org/2000/svg">
<path d="M24.3751 3C23.7541 3 23.2501 3.504 23.2501 4.125C23.2501 4.746 23.7541 5.25 24.3751 5.25C24.9961 5.25 25.5001 4.746 25.5001 4.125C25.5001 3.504 24.9961 3 24.3751 3ZM34.7272 3.75C34.5404 3.7437 34.3499 3.77313 34.1647 3.84082L24.2975 7.43115C23.5542 7.7019 23.1482 8.50321 23.3702 9.26221L23.8551 10.9189L14.7072 7.59082C13.9669 7.32007 13.1377 7.67345 12.8204 8.39795L6.17151 23.5518C5.30526 25.5243 5.29471 27.7929 6.14221 29.7744C6.79069 31.2906 7.9099 32.5556 9.30627 33.3984L7.45764 38.4741L4.63782 37.4473C3.86082 37.1653 2.99869 37.5653 2.71594 38.3438C2.43244 39.1222 2.83392 39.9821 3.61242 40.2656L12.069 43.3447C12.2385 43.4062 12.4107 43.4355 12.5817 43.4355C13.1944 43.4355 13.7696 43.058 13.9908 42.4482C14.2743 41.6697 13.8743 40.8084 13.0958 40.5249L10.276 39.4995L12.1246 34.4224C12.5263 34.4851 12.931 34.522 13.3361 34.522C14.5556 34.522 15.7726 34.2392 16.8766 33.6812C18.7996 32.7077 20.2484 30.964 20.8536 28.8955L24.9845 14.7788L28.0167 25.144C28.6227 27.2125 30.0737 28.9577 31.9967 29.9312C33.1007 30.4899 34.3163 30.772 35.5358 30.772C35.9409 30.772 36.3454 30.735 36.7472 30.6724L38.5958 35.751L35.776 36.7764C34.9975 37.0591 34.5975 37.9197 34.881 38.6982C35.1022 39.3072 35.6782 39.6855 36.2902 39.6855C36.4604 39.6855 36.6334 39.6562 36.8029 39.5947L45.2594 36.5171C46.0379 36.2343 46.4394 35.3737 46.1559 34.5952C45.8731 33.8167 45.0103 33.4167 44.234 33.6987L41.4156 34.7241L39.5685 29.6484C40.9632 28.8058 42.0816 27.541 42.7296 26.0259C43.5771 24.0444 43.5666 21.7758 42.7003 19.8018L36.0499 4.64795C35.8114 4.10401 35.2874 3.76891 34.7272 3.75ZM20.2501 4.5C19.4214 4.5 18.7501 5.17125 18.7501 6C18.7501 6.82875 19.4214 7.5 20.2501 7.5C21.0789 7.5 21.7501 6.82875 21.7501 6C21.7501 5.17125 21.0789 4.5 20.2501 4.5ZM33.8688 7.14111L36.0016 12H29.2472L32.9708 24.7236C33.396 26.1776 34.1182 27.1723 35.0553 27.75C34.4701 27.6916 33.894 27.5302 33.3502 27.2549C32.1472 26.6459 31.2754 25.5963 30.8966 24.3018L26.6456 9.76904L33.8688 7.14111ZM15.003 10.8911L22.2277 13.5205L21.5758 15.75H14.7233L11.0363 24.1538C9.88625 26.7751 10.6635 29.7247 12.7018 31.4839C12.3608 31.4374 12.0225 31.3561 11.6896 31.2349C10.4221 30.7729 9.43076 29.8357 8.90051 28.5952C8.37026 27.3547 8.37584 25.9918 8.91809 24.7573L15.003 10.8911ZM35.2501 15.75C36.0789 15.75 36.7501 16.4212 36.7501 17.25C36.7501 18.0788 36.0789 18.75 35.2501 18.75C34.4214 18.75 33.7501 18.0788 33.7501 17.25C33.7501 16.4212 34.4214 15.75 35.2501 15.75ZM17.6251 18.75C18.2461 18.75 18.7501 19.254 18.7501 19.875C18.7501 20.496 18.2461 21 17.6251 21C17.0041 21 16.5001 20.496 16.5001 19.875C16.5001 19.254 17.0041 18.75 17.6251 18.75Z" fill="white"/>
</svg>
