<svg width="48" height="48" viewBox="0 0 48 48" fill="none" xmlns="http://www.w3.org/2000/svg">
<path d="M24 3.75C23.4638 3.75 22.928 3.98087 22.6201 4.44287L19.3022 9.42041C18.9617 9.93041 18.93 10.5833 19.2188 11.1226C19.5075 11.6633 20.0701 12 20.6821 12H22.5V31.0239C21.8215 30.6297 21.0597 30.3591 20.2397 30.2563L16.1191 29.7407C14.6191 29.554 13.4868 28.2732 13.4868 26.7612V25.2437C15.2407 24.6292 16.5 22.9638 16.5 21C16.5 18.5145 14.4855 16.5 12 16.5C9.5145 16.5 7.5 18.5145 7.5 21C7.5 22.954 8.74667 24.613 10.4868 25.2349V26.7612C10.4868 29.7837 12.7486 32.3438 15.7471 32.7173L19.8662 33.2329C21.3677 33.4212 22.5 34.7033 22.5 36.2153V37.0664C21.1764 37.6452 20.25 38.962 20.25 40.5C20.25 42.5715 21.9285 44.25 24 44.25C26.0715 44.25 27.75 42.5715 27.75 40.5C27.75 38.962 26.8236 37.6452 25.5 37.0664V36.2153V31.7095C25.5 30.1975 26.6316 28.9168 28.1323 28.7285L32.2515 28.2129C35.2507 27.8394 37.5132 25.2793 37.5132 22.2568V21.75H38.25C39.4927 21.75 40.5 20.7427 40.5 19.5V15C40.5 13.7573 39.4927 12.75 38.25 12.75H33.75C32.5073 12.75 31.5 13.7573 31.5 15V19.5C31.5 20.7427 32.5073 21.75 33.75 21.75H34.5132V22.2568C34.5132 23.7688 33.3816 25.0488 31.8809 25.2363L27.7603 25.752C26.9405 25.8547 26.1784 26.1253 25.5 26.5195V12H27.3179C27.9299 12 28.4932 11.6633 28.7827 11.124C29.0707 10.5833 29.039 9.92966 28.6992 9.42041L25.3813 4.44287C25.0735 3.98087 24.5362 3.75 24 3.75Z" fill="white"/>
</svg>
