<svg width="81" height="46" viewBox="0 0 81 46" fill="none" xmlns="http://www.w3.org/2000/svg">
<path d="M73.8628 40.2878C72.4868 40.2878 71.2788 40.0318 70.2388 39.5198C69.1988 38.9918 68.3828 38.2638 67.7908 37.3358C67.2148 36.3918 66.9268 35.3118 66.9268 34.0958C66.9268 32.8958 67.2068 31.8318 67.7668 30.9038C68.3428 29.9758 69.1268 29.2478 70.1188 28.7198C71.1108 28.1758 72.2308 27.9038 73.4788 27.9038C74.7108 27.9038 75.7988 28.1598 76.7428 28.6718C77.6868 29.1678 78.4228 29.8638 78.9508 30.7598C79.4948 31.6558 79.7668 32.6798 79.7668 33.8318C79.7668 34.0718 79.7508 34.3278 79.7188 34.5998C79.7028 34.8558 79.6548 35.1598 79.5748 35.5118L68.9188 35.5838V32.7038L77.8228 32.6318L75.6388 33.9038C75.6388 33.2638 75.5588 32.7438 75.3988 32.3438C75.2548 31.9278 75.0308 31.6158 74.7268 31.4078C74.4228 31.1998 74.0388 31.0958 73.5748 31.0958C73.0948 31.0958 72.6788 31.2158 72.3268 31.4558C71.9748 31.6958 71.7028 32.0398 71.5108 32.4878C71.3348 32.9358 71.2468 33.4798 71.2468 34.1198C71.2468 34.7758 71.3428 35.3278 71.5348 35.7758C71.7428 36.2078 72.0388 36.5358 72.4228 36.7598C72.8068 36.9838 73.2868 37.0958 73.8628 37.0958C74.4228 37.0958 74.9108 37.0078 75.3268 36.8318C75.7588 36.6398 76.1508 36.3438 76.5028 35.9438L78.8548 38.2718C78.2628 38.9438 77.5508 39.4478 76.7188 39.7838C75.8868 40.1198 74.9348 40.2878 73.8628 40.2878Z" fill="white"/>
<path d="M58.6394 45.4237C57.3114 45.4237 56.1354 45.1997 55.1114 44.7517C54.0874 44.3197 53.2954 43.7037 52.7354 42.9037L55.5194 40.1437C55.8874 40.5437 56.2954 40.8557 56.7434 41.0797C57.1914 41.3197 57.7354 41.4397 58.3754 41.4397C59.1434 41.4397 59.7434 41.2557 60.1754 40.8877C60.6234 40.5197 60.8474 39.9837 60.8474 39.2797V36.1597L61.6154 33.6157L60.9674 31.0957V28.1917H65.5514V39.0877C65.5514 40.3837 65.2474 41.5037 64.6394 42.4477C64.0314 43.3917 63.2074 44.1197 62.1674 44.6317C61.1274 45.1597 59.9514 45.4237 58.6394 45.4237ZM58.4234 39.5197C57.3194 39.5197 56.3434 39.2637 55.4954 38.7517C54.6474 38.2397 53.9834 37.5437 53.5034 36.6637C53.0234 35.7837 52.7834 34.8077 52.7834 33.7357C52.7834 32.6477 53.0234 31.6717 53.5034 30.8077C53.9834 29.9277 54.6474 29.2317 55.4954 28.7197C56.3434 28.2077 57.3194 27.9517 58.4234 27.9517C59.1114 27.9517 59.7434 28.0717 60.3194 28.3117C60.9114 28.5357 61.3994 28.8557 61.7834 29.2717C62.1834 29.6877 62.4394 30.1677 62.5514 30.7117V36.7597C62.4394 37.3037 62.1834 37.7837 61.7834 38.1997C61.3994 38.6157 60.9114 38.9437 60.3194 39.1837C59.7434 39.4077 59.1114 39.5197 58.4234 39.5197ZM59.2874 35.5117C59.6714 35.5117 59.9994 35.4237 60.2714 35.2477C60.5434 35.0717 60.7514 34.8477 60.8954 34.5757C61.0394 34.3037 61.1114 34.0157 61.1114 33.7117C61.1114 33.4077 61.0394 33.1197 60.8954 32.8477C60.7514 32.5757 60.5434 32.3517 60.2714 32.1757C60.0154 31.9997 59.6954 31.9117 59.3114 31.9117C58.9434 31.9117 58.6234 31.9997 58.3514 32.1757C58.0794 32.3517 57.8714 32.5837 57.7274 32.8717C57.5834 33.1437 57.5114 33.4237 57.5114 33.7117C57.5114 33.9837 57.5834 34.2637 57.7274 34.5517C57.8714 34.8237 58.0714 35.0557 58.3274 35.2477C58.5994 35.4237 58.9194 35.5117 59.2874 35.5117Z" fill="white"/>
<path d="M46.9207 39.9997V33.3757C46.9207 32.9117 46.7847 32.5597 46.5127 32.3197C46.2567 32.0637 45.9287 31.9357 45.5287 31.9357C45.2567 31.9357 45.0087 31.9917 44.7847 32.1037C44.5767 32.2157 44.4087 32.3837 44.2807 32.6077C44.1687 32.8157 44.1127 33.0717 44.1127 33.3757L42.2887 32.5597C42.2887 31.5997 42.4967 30.7757 42.9127 30.0877C43.3447 29.3997 43.9287 28.8717 44.6647 28.5037C45.4167 28.1357 46.2647 27.9517 47.2087 27.9517C48.0567 27.9517 48.8087 28.1437 49.4647 28.5277C50.1367 28.8957 50.6647 29.4077 51.0487 30.0637C51.4327 30.7037 51.6247 31.4477 51.6247 32.2957V39.9997H46.9207ZM39.4087 39.9997V28.1917H44.1127V39.9997H39.4087Z" fill="white"/>
<path d="M29.7406 40.2397C28.6366 40.2397 27.6606 39.9757 26.8126 39.4477C25.9646 38.9197 25.3006 38.1997 24.8206 37.2877C24.3406 36.3597 24.1006 35.2957 24.1006 34.0957C24.1006 32.8957 24.3406 31.8317 24.8206 30.9037C25.3006 29.9757 25.9646 29.2557 26.8126 28.7437C27.6606 28.2157 28.6366 27.9517 29.7406 27.9517C30.4286 27.9517 31.0606 28.0717 31.6366 28.3117C32.2286 28.5357 32.7166 28.8557 33.1006 29.2717C33.5006 29.6877 33.7566 30.1677 33.8686 30.7117V37.4797C33.7566 38.0237 33.5006 38.5037 33.1006 38.9197C32.7166 39.3357 32.2286 39.6637 31.6366 39.9037C31.0606 40.1277 30.4286 40.2397 29.7406 40.2397ZM30.7966 36.1117C31.3886 36.1117 31.8606 35.9277 32.2126 35.5597C32.5806 35.1757 32.7646 34.6877 32.7646 34.0957C32.7646 33.6957 32.6846 33.3517 32.5246 33.0637C32.3646 32.7597 32.1326 32.5197 31.8286 32.3437C31.5406 32.1677 31.2046 32.0797 30.8206 32.0797C30.4366 32.0797 30.0926 32.1677 29.7886 32.3437C29.5006 32.5197 29.2686 32.7597 29.0926 33.0637C28.9166 33.3677 28.8286 33.7117 28.8286 34.0957C28.8286 34.4797 28.9086 34.8237 29.0686 35.1277C29.2446 35.4317 29.4846 35.6717 29.7886 35.8477C30.0926 36.0237 30.4286 36.1117 30.7966 36.1117ZM32.6206 39.9997V36.8317L33.2686 33.9517L32.6206 31.0957V28.1917H37.2046V39.9997H32.6206Z" fill="white"/>
<path d="M14.521 39.9997V28.1917H19.225V39.9997H14.521ZM19.225 33.6157L17.041 31.6717C17.649 30.3917 18.353 29.4557 19.153 28.8637C19.969 28.2557 20.985 27.9517 22.201 27.9517C22.745 27.9517 23.209 28.0157 23.593 28.1437C23.993 28.2717 24.313 28.4557 24.553 28.6957L21.913 32.4397C21.801 32.3117 21.633 32.2077 21.409 32.1277C21.201 32.0317 20.953 31.9837 20.665 31.9837C20.185 31.9837 19.825 32.1277 19.585 32.4157C19.345 32.6877 19.225 33.0877 19.225 33.6157Z" fill="white"/>
<mask id="mask0_158_863" style="mask-type:alpha" maskUnits="userSpaceOnUse" x="0" y="1" width="31" height="40">
<path fill-rule="evenodd" clip-rule="evenodd" d="M30.75 1.2998H0.75V40.2998H12.83V27.4418C12.83 26.8895 13.2777 26.4418 13.83 26.4418H20.1746C20.2601 26.4418 20.3453 26.4304 20.4284 26.4103C21.0135 26.2687 21.6267 26.2018 22.26 26.2018C22.9279 26.2018 23.5861 26.2788 24.1952 26.4802C24.7953 26.6736 25.3735 26.9825 25.8494 27.4583L26.2959 27.9048C26.6399 28.2489 26.6864 28.7906 26.406 29.1882L22.4273 34.8308C22.2708 35.0528 21.9478 35.0697 21.7689 34.8653C21.5139 34.5739 21.034 34.7542 21.034 35.1415V40.2998H30.75V1.2998Z" fill="white"/>
</mask>
<g mask="url(#mask0_158_863)">
<path d="M3.78042 26.9233C4.67733 26.5158 5.6722 26.289 6.71951 26.289C7.32526 26.289 7.91347 26.3649 8.47533 26.5077C8.74877 26.5628 9.01926 26.6326 9.28563 26.7169C9.77126 21.7658 10.2563 16.8149 10.7406 11.8644C10.8802 10.4402 11.0198 8.99499 10.7976 7.58137C10.5754 6.16776 9.94284 4.76662 8.825 3.95527C8.58852 3.78361 8.3036 3.63496 8.02343 3.70113C7.80024 3.75388 7.62549 3.93226 7.46593 4.1068C2.02394 10.0528 0.262182 19.0677 3.65464 26.6508C3.69552 26.7419 3.73744 26.833 3.78042 26.9233Z" fill="#EB343A"/>
<path d="M3.78042 26.9233C4.67733 26.5158 5.6722 26.289 6.71951 26.289C7.32526 26.289 7.91347 26.3649 8.47533 26.5077C8.74877 26.5628 9.01926 26.6326 9.28563 26.7169C9.77126 21.7658 10.2563 16.8149 10.7406 11.8644C10.8802 10.4402 11.0198 8.99499 10.7976 7.58137C10.5754 6.16776 9.94284 4.76662 8.825 3.95527C8.58852 3.78361 8.3036 3.63496 8.02343 3.70113C7.80024 3.75388 7.62549 3.93226 7.46593 4.1068C2.02394 10.0528 0.262182 19.0677 3.65464 26.6508C3.69552 26.7419 3.73744 26.833 3.78042 26.9233Z" fill="black" fill-opacity="0.16"/>
<path d="M9.83442 11.189C12.4899 6.98845 17.4817 3.08903 22.1582 1.84229C23.1364 1.58143 23.2124 7.20903 23.163 7.65786C22.8363 10.7047 21.7868 13.6355 20.385 16.3074C19.0383 18.8785 17.3696 21.2272 15.6278 23.5049L15.6169 23.5192C14.3355 25.1955 13.0244 26.9108 11.1946 27.8717C9.96794 26.8811 8.41215 26.2888 6.71935 26.2888C6.26192 26.2888 5.81449 26.3321 5.38086 26.4147C5.88621 21.2077 7.05036 15.5923 9.83442 11.189Z" fill="#EB343A"/>
<path d="M9.83442 11.189C12.4899 6.98845 17.4817 3.08903 22.1582 1.84229C23.1364 1.58143 23.2124 7.20903 23.163 7.65786C22.8363 10.7047 21.7868 13.6355 20.385 16.3074C19.0383 18.8785 17.3696 21.2272 15.6278 23.5049L15.6169 23.5192C14.3355 25.1955 13.0244 26.9108 11.1946 27.8717C9.96794 26.8811 8.41215 26.2888 6.71935 26.2888C6.26192 26.2888 5.81449 26.3321 5.38086 26.4147C5.88621 21.2077 7.05036 15.5923 9.83442 11.189Z" fill="black" fill-opacity="0.08"/>
<path d="M15.2326 14.4312C18.8416 11.1427 24.6198 8.80362 29.4312 8.91966C30.437 8.94364 29.0959 14.3708 28.9345 14.7851C27.8556 17.6238 26.11 20.1451 24.0908 22.3173C22.1505 24.4042 19.9519 26.1937 17.7048 27.8922C16.3101 28.9478 14.8859 30.0254 13.272 30.5846C12.2795 28.3359 10.1852 26.6923 7.68164 26.3532C9.43412 21.9548 11.8248 17.5357 15.2326 14.4312Z" fill="#EB343A"/>
<path d="M16.6946 19.8548C19.8648 18.3539 24.3684 17.9962 27.7115 19.1404C28.4096 19.3801 26.3999 22.8777 26.2119 23.1309C24.8946 24.8763 23.1756 26.2525 21.334 27.3238C19.5656 28.3538 17.6737 29.1191 15.7667 29.8096C14.9476 30.1063 14.1138 30.4077 13.269 30.5774C12.4496 28.7266 10.8835 27.2868 8.95752 26.6484C11.071 23.9141 13.6494 21.2947 16.6946 19.8548Z" fill="#EB343A"/>
<path d="M16.6946 19.8548C19.8648 18.3539 24.3684 17.9962 27.7115 19.1404C28.4096 19.3801 26.3999 22.8777 26.2119 23.1309C24.8946 24.8763 23.1756 26.2525 21.334 27.3238C19.5656 28.3538 17.6737 29.1191 15.7667 29.8096C14.9476 30.1063 14.1138 30.4077 13.269 30.5774C12.4496 28.7266 10.8835 27.2868 8.95752 26.6484C11.071 23.9141 13.6494 21.2947 16.6946 19.8548Z" fill="white" fill-opacity="0.08"/>
<path d="M6.72049 39.3333C9.89439 39.3333 12.4673 36.7351 12.4673 33.5301C12.4673 30.3252 9.89439 27.7271 6.72049 27.7271C3.54659 27.7271 0.973633 30.3252 0.973633 33.5301C0.973633 36.7351 3.54659 39.3333 6.72049 39.3333Z" fill="white"/>
</g>
</svg>
